<svg xmlns="http://www.w3.org/2000/svg" xmlns:xlink="http://www.w3.org/1999/xlink" width="1196.426" height="822.348" viewBox="0 0 1196.426 822.348"><defs><linearGradient id="linear-gradient" x1="26.61" y1="28.108" x2="27.455" y2="29.481" gradientUnits="objectBoundingBox"><stop offset="0" stop-color="#fff" stop-opacity="0.6"></stop><stop offset="1" stop-color="#fff" stop-opacity="0"></stop></linearGradient><linearGradient id="linear-gradient-2" x1="26.406" y1="25.684" x2="27.426" y2="27.492" xlink:href="#linear-gradient"></linearGradient></defs><g id="Group_1346" data-name="Group 1346" transform="translate(-1331.574 -294)"><rect id="Rectangle_220" data-name="Rectangle 220" width="708" height="494" rx="27" transform="translate(1411 294)" fill="#ddd"></rect><rect id="Rectangle_221" data-name="Rectangle 221" width="673" height="459" rx="13" transform="translate(1429 312)" fill="#efefef"></rect><g id="Group_1151" data-name="Group 1151" transform="translate(1563.36 886.58)"><circle id="Ellipse_184" data-name="Ellipse 184" cx="10.427" cy="10.427" r="10.427" transform="translate(29.701)" fill="#b7d0f4"></circle><ellipse id="Ellipse_185" data-name="Ellipse 185" cx="4.521" cy="4.521" rx="4.521" ry="4.521" transform="translate(0 66.742)" fill="#b7d0f4"></ellipse><circle id="Ellipse_186" data-name="Ellipse 186" cx="9.303" cy="9.303" r="9.303" transform="translate(50.556 92.7)" fill="#b7d0f4"></circle></g><g id="Group_1154" data-name="Group 1154" transform="translate(1331.574 817.134)"><circle id="Ellipse_184-2" data-name="Ellipse 184" cx="10.427" cy="10.427" r="10.427" transform="translate(29.701)" fill="#b7d0f4"></circle><ellipse id="Ellipse_185-2" data-name="Ellipse 185" cx="4.521" cy="4.521" rx="4.521" ry="4.521" transform="translate(0 66.742)" fill="#b7d0f4"></ellipse><circle id="Ellipse_186-2" data-name="Ellipse 186" cx="9.303" cy="9.303" r="9.303" transform="translate(50.556 92.7)" fill="#b7d0f4"></circle></g><g id="Group_1152" data-name="Group 1152" transform="translate(2162.155 327.354)"><ellipse id="Ellipse_181" data-name="Ellipse 181" cx="9.573" cy="9.573" rx="9.573" ry="9.573" transform="translate(52.361 41.95)" fill="#b7d0f4"></ellipse><circle id="Ellipse_182" data-name="Ellipse 182" cx="8.931" cy="8.931" r="8.931" transform="translate(14.339 89.307)" fill="#b7d0f4"></circle><ellipse id="Ellipse_183" data-name="Ellipse 183" cx="9.144" cy="9.144" rx="9.144" ry="9.144" transform="translate(0)" fill="#b7d0f4"></ellipse></g><g id="Group_1153" data-name="Group 1153" transform="translate(2398.119 434.523)"><ellipse id="Ellipse_197" data-name="Ellipse 197" cx="8.638" cy="8.638" rx="8.638" ry="8.638" transform="translate(74.343 117.238)" fill="#b7d0f4"></ellipse><ellipse id="Ellipse_198" data-name="Ellipse 198" cx="10.516" cy="10.516" rx="10.516" ry="10.516" transform="translate(0 91.803)" fill="#b7d0f4"></ellipse><circle id="Ellipse_199" data-name="Ellipse 199" cx="10.45" cy="10.45" r="10.45" transform="translate(64.874)" fill="#b7d0f4"></circle></g><g id="Group_1043" data-name="Group 1043" transform="translate(1391.261 972.724)"><path id="Path_3408" data-name="Path 3408" d="M-1663.021-263.709c-1.421,5.7-43.5,0-43.5,0s.338,19.484-2.366,31.548c-1.167,5.209-2.913,9.038-5.489,9.319-12.754,2.21-17.85-19.694-19.709-32.308-.745-5.011-.97-8.559-.97-8.559s-7.518,3.45-15.879,6.519c-9.46,3.491-19.977,6.49-21.821,3.462-4.9-9.277,22.722-34.237,22.722-34.237s-27.1-14.26-22.1-19.976a11.151,11.151,0,0,1,2.7-1.717c13.218-6.054,42.218,8.137,42.218,8.137s28.535-27.8,32.815-22.82-9.277,34.954-9.277,34.954C-1673-285.106-1661.6-269.424-1663.021-263.709Z" transform="translate(1780.376 329.162)" fill="#5175c9" opacity="0.33" style="mix-blend-mode: multiply;isolation: isolate"></path><g id="Group_795" data-name="Group 795"><path id="Path_3409" data-name="Path 3409" d="M-1668.67-267.1c-1.421,5.7-43.5,0-43.5,0s.338,19.484-2.365,31.548c-1.169,5.208-2.914,9.038-5.491,9.319-12.753,2.21-17.85-19.7-19.708-32.308-.746-5.012-.972-8.56-.972-8.56s-7.517,3.449-15.879,6.517c-9.46,3.491-19.976,6.49-21.82,3.464-4.9-9.277,22.721-34.237,22.721-34.237s-27.1-14.261-22.1-19.976a11.166,11.166,0,0,1,2.7-1.718c13.219-6.053,42.219,8.137,42.219,8.137s28.535-27.8,32.815-22.82-9.277,34.956-9.277,34.956C-1678.651-288.5-1667.249-272.814-1668.67-267.1Z" transform="translate(1778.987 328.328)" fill="#f581cd"></path><path id="Path_3410" data-name="Path 3410" d="M-1762.757-286.406a5.683,5.683,0,0,0-2.675-.76,6.8,6.8,0,0,0-2.675.76c-3.15,1.464-3.15,6.855,0,8.319a5.689,5.689,0,0,0,2.675.761,6.789,6.789,0,0,0,2.675-.761C-1759.606-279.551-1759.606-284.943-1762.757-286.406Z" transform="translate(1781.081 338.45)" fill="#f577c9"></path><path id="Path_3411" data-name="Path 3411" d="M-1751.754-303.421a5.617,5.617,0,0,0-6.765-3.841,5.555,5.555,0,0,0-3.288,2.528,5.372,5.372,0,0,0,0,5.552c1.358,1.879,3.06,2.952,5.481,2.626A5.5,5.5,0,0,0-1751.754-303.421Z" transform="translate(1783.022 333.471)" fill="#f577c9"></path><path id="Path_3412" data-name="Path 3412" d="M-1739.926-291.619c-5.944,0-5.954,9.238,0,9.238S-1733.972-291.619-1739.926-291.619Z" transform="translate(1787.495 337.356)" fill="#f577c9"></path><path id="Path_3413" data-name="Path 3413" d="M-1753.691-292.866c-5.436,0-5.445,8.447,0,8.447S-1748.248-292.866-1753.691-292.866Z" transform="translate(1784.204 337.049)" fill="#f577c9"></path><path id="Path_3414" data-name="Path 3414" d="M-1733.479-306.808c-4.586,0-4.594,7.127,0,7.127S-1728.885-306.808-1733.479-306.808Z" transform="translate(1789.331 333.62)" fill="#f577c9"></path><path id="Path_3415" data-name="Path 3415" d="M-1732.572-275.241l-.233-.254a4.061,4.061,0,0,0-5.693,0l-.234.254a4.417,4.417,0,0,0-.9,4.758,4.323,4.323,0,0,0,3.979,2.677,4.545,4.545,0,0,0,3.762-2.158A4.468,4.468,0,0,0-1732.572-275.241Z" transform="translate(1788.581 341.034)" fill="#f577c9"></path><path id="Path_3416" data-name="Path 3416" d="M-1715.273-292.454c-6.03,0-6.04,9.371,0,9.371S-1709.234-292.454-1715.273-292.454Z" transform="translate(1793.542 337.15)" fill="#f577c9"></path><path id="Path_3417" data-name="Path 3417" d="M-1698.67-288.5c-7.219,0-7.231,11.218,0,11.218S-1691.44-288.5-1698.67-288.5Z" transform="translate(1797.406 338.122)" fill="#f577c9"></path><path id="Path_3418" data-name="Path 3418" d="M-1732.633-260.839a5.921,5.921,0,0,0-4.059,1.682,5.836,5.836,0,0,0-1.682,4.059,5.841,5.841,0,0,0,5.741,5.741,5.924,5.924,0,0,0,4.059-1.681,5.84,5.84,0,0,0,1.682-4.06A5.842,5.842,0,0,0-1732.633-260.839Z" transform="translate(1788.973 344.925)" fill="#f577c9"></path><path id="Path_3419" data-name="Path 3419" d="M-1766.242-272.634c-1.506,1.732-3.1,4.139-1.929,6.124a4.913,4.913,0,0,0,2.829,1.886,21,21,0,0,0,8.756,1.028c-9.46,3.491-19.976,6.49-21.82,3.464-4.9-9.277,22.721-34.237,22.721-34.237s-27.1-14.261-22.1-19.976a11.164,11.164,0,0,1,2.7-1.718,25.166,25.166,0,0,0,6.209,7.306c6.785,5.448,15.387,8.236,22.257,13.557Q-1756.416-283.9-1766.242-272.634Z" transform="translate(1778.987 331.344)" fill="#f577c9" opacity="0.25" style="mix-blend-mode: multiply;isolation: isolate"></path><path id="Path_3420" data-name="Path 3420" d="M-1722.283-249.325c-1.169,5.208-2.914,9.038-5.491,9.319-12.753,2.21-17.85-19.7-19.708-32.308C-1742.667-261.29-1734-250.887-1722.283-249.325Z" transform="translate(1786.735 342.103)" fill="#f577c9" opacity="0.25" style="mix-blend-mode: multiply;isolation: isolate"></path></g></g><rect id="Rectangle_222" data-name="Rectangle 222" width="88" height="131" rx="14" transform="translate(1482 617)" fill="#fff"></rect><rect id="Rectangle_223" data-name="Rectangle 223" width="89" height="204" rx="14" transform="translate(1635 544)" fill="#fff"></rect><rect id="Rectangle_224" data-name="Rectangle 224" width="89" height="281" rx="14" transform="translate(1788 467)" fill="#fff"></rect><rect id="Rectangle_225" data-name="Rectangle 225" width="88" height="345" rx="14" transform="translate(1942 403)" fill="#fff"></rect><g id="Group_1155" data-name="Group 1155" transform="translate(-3.36 34.76) rotate(-1)" opacity="0.232"><path id="Path_4149" data-name="Path 4149" d="M7853.94,13942.5l431.261-213.321" transform="translate(-6387 -13367)" fill="none" stroke="#142144" stroke-linecap="round" stroke-width="15"></path><path id="Path_4150" data-name="Path 4150" d="M8276.749,13770l10.149-41.194-39.68-13.925" transform="translate(-6387 -13367)" fill="none" stroke="#142144" stroke-linecap="round" stroke-width="15"></path></g><g id="Group_1281" data-name="Group 1281"><path id="Path_4152" data-name="Path 4152" d="M8247.943,14040.964l46.984,64.369" transform="translate(-2207.495 -15100.045) rotate(16)" fill="none" stroke="#142144" stroke-linecap="round" stroke-width="13"></path><g id="Group_1150" data-name="Group 1150" transform="translate(1678.418 545.37)"><g id="Group_1133" data-name="Group 1133" transform="translate(556.71 159.545)"><g id="Group_1132" data-name="Group 1132"><path id="Path_4087" data-name="Path 4087" d="M796.479,349.123c-4.342,19.595-3.592,39.395-3.727,59.18-.111,16.191-.781,32.3-6.205,47.861-8.769,25.157-22.985,34.9-53.623,36.992-23.77,1.622-47.143-.793-70.274-5.914-8.414-1.862-8.971-1.787-10.382,6.694l10.163,34.215.006,0c.432-.133.767-.252,1.047-.316.032-.007.068-.017.1-.023a1.394,1.394,0,0,1,.342-.027,21.726,21.726,0,0,1,3.038.43q6.039,1.253,12.051,2.1c.42.06.841.111,1.261.169,2.924.4,5.842.708,8.756.963a182.529,182.529,0,0,0,63.714-5.64q6.026-1.617,12.018-3.64a78.656,78.656,0,0,0,16.809-7.917,69.985,69.985,0,0,0,16.694-14.618,94.312,94.312,0,0,0,10.481-15.513q1.084-2.01,2.06-4.052c6.724-14.046,9.766-29.238,10.717-45.114.063-1.05.13-2.1.174-3.154v-.006c.027-.647.071-1.293.109-1.933,0-.06.007-.119.011-.179,0-.044,0-.089.007-.133l.047-.05.005-.041c.006-.039.017-.115.03-.207.01-.073.023-.161.037-.266s.032-.231.051-.371c.01-.075.02-.155.031-.238.019-.143.039-.3.06-.464.028-.218.057-.454.088-.711.005-.043.01-.085.015-.13.539-4.5,1.489-14.365.56-21.914v0c-.015-.344-.027-.685-.053-1.038-.827-11.158-.023-22.488.873-33.686q.129-1.6.313-3.171c.117-.991.255-1.974.407-2.953.048-.3.1-.606.156-.91.113-.671.229-1.34.359-2,.046-.235.1-.469.147-.7.026-.127.052-.255.079-.382.127-.6.259-1.2.4-1.792.091-.383.188-.764.285-1.145q.222-.862.464-1.717.158-.559.324-1.115.262-.863.548-1.716c.118-.357.234-.716.358-1.071.214-.609.443-1.212.675-1.815.116-.3.226-.609.348-.911.363-.9.741-1.8,1.146-2.681q.526-1.153,1.1-2.287.5-.993,1.044-1.972c.027-.05.058-.1.085-.147q-.584,1.052-1.129,2.119.543-1.069,1.131-2.121c.127-.227.261-.451.391-.676.271-.473.546-.947.831-1.415.161-.265.329-.529.5-.791.27-.427.542-.853.823-1.276.181-.274.368-.546.555-.818q.423-.616.866-1.226c.195-.27.391-.538.591-.806q.463-.618.946-1.228c.2-.253.4-.506.6-.758.358-.442.73-.879,1.1-1.316.18-.209.354-.42.536-.628.564-.641,1.14-1.278,1.737-1.907-.6.628-1.172,1.263-1.734,1.9q.843-.96,1.734-1.9c.018-.019.039-.036.057-.055q.473-.492.981-.944c.145-.129.3-.247.449-.372.216-.18.431-.364.655-.536.2-.151.4-.292.6-.437.183-.132.364-.266.551-.393.247-.168.5-.329.751-.49.143-.092.284-.186.429-.275q.476-.295.961-.578l.208-.124c1.377-.8,2.787-1.558,4.155-2.36l.012-.007v0s17.017-8.142,34.3-5.026c.139.044.287.082.433.121a8.146,8.146,0,0,0,.883.19c.507.078,1,.187,1.484.3q.982.25,1.962.554h0c.2.069.406.142.607.216h0c.648.24,1.285.5,1.9.786.133.063.267.124.4.189a30.115,30.115,0,0,1,4.123,2.475c.154.11.308.219.461.331.636.464,1.264.941,1.878,1.439,13.9,11.294,18.853,26.222,19.3,43.052.525,19.724-6.572,37.738-13.067,55.892q-.809,2.262-1.6,4.529c-.164.471-.306.942-.46,1.412q-.6,1.837-1.107,3.674c-.135.5-.271.991-.4,1.486q-.6,2.4-1.043,4.788v0c-.26,1.415-.469,2.827-.643,4.237-.013.111-.031.223-.044.334-.159,1.346-.273,2.687-.355,4.025-.011.171-.024.342-.033.512-.07,1.3-.1,2.6-.1,3.889,0,.2,0,.4,0,.6q.02,1.91.146,3.8c.014.208.028.416.044.623q.141,1.889.385,3.756c.026.2.055.391.082.587.176,1.258.383,2.508.63,3.749.033.163.069.326.1.49.262,1.272.555,2.535.888,3.786.029.106.061.21.09.317.356,1.307.746,2.6,1.182,3.885l0,.01c.437,1.284.917,2.551,1.431,3.807.04.1.078.2.119.3.5,1.2,1.034,2.377,1.6,3.546.073.15.143.3.217.452q.84,1.7,1.781,3.356c.1.172.194.345.293.517q.942,1.63,1.98,3.214c.114.174.227.346.343.52q1.052,1.577,2.2,3.106c.12.16.243.317.363.477q1.174,1.538,2.44,3.025c.112.13.226.258.339.388q1.315,1.517,2.725,2.975c.078.081.16.16.238.24.994,1.013,2.017,2.007,3.082,2.973-1.063-.965-2.086-1.958-3.079-2.97.993,1.012,2.015,2,3.079,2.97a77.325,77.325,0,0,0,11.582,8.673,27.239,27.239,0,0,0,10.875-.426l-.478-2.065c-20.5-8.566-29.482-27.146-25.012-51.654,2.578-14.134,8.854-27.041,14.541-40.151,13.828-31.876,15.858-63.8-1.65-94.957-10.984-19.548-28.315-32.8-51.767-35.086C836.657,282.456,806.054,305.9,796.479,349.123ZM916.643,496.25c.876,1.009,1.779,2,2.719,2.97C918.422,498.252,917.519,497.259,916.643,496.25Zm-2.777-3.411q1.172,1.534,2.432,3.016Q915.034,494.375,913.866,492.839Zm-2.56-3.583q1.048,1.572,2.188,3.094Q912.353,490.829,911.306,489.256Zm-2.322-3.734q.938,1.623,1.971,3.2Q909.923,487.145,908.983,485.522Zm-2.075-3.873q.836,1.692,1.773,3.341Q907.748,483.341,906.908,481.65Zm-1.818-4c.494,1.191,1.029,2.367,1.593,3.531C906.119,480.017,905.584,478.841,905.09,477.65Zm-1.546-4.1c.432,1.274.91,2.533,1.42,3.78C904.454,476.087,903.976,474.829,903.544,473.554Zm-1.188-3.9c.354,1.3.742,2.588,1.173,3.862C903.1,472.24,902.711,470.951,902.356,469.653Zm-.979-4.1c.262,1.267.553,2.526.887,3.773C901.93,468.076,901.638,466.817,901.377,465.55Zm-.733-4.243c.176,1.254.382,2.5.628,3.738C901.026,463.808,900.819,462.562,900.644,461.307Zm-.468-4.344q.142,1.883.385,3.747Q900.316,458.848,900.175,456.964Zm-.19-4.428q.02,1.908.146,3.8Q900.008,454.442,899.985,452.536Zm.1-4.487c-.07,1.3-.1,2.592-.1,3.881C899.982,450.641,900.011,449.347,900.082,448.049Zm.39-4.54c-.16,1.343-.274,2.683-.355,4.019C900.2,446.192,900.312,444.852,900.471,443.509Zm.686-4.572c-.26,1.414-.469,2.826-.642,4.235C900.689,441.763,900.9,440.351,901.158,438.937Zm-75.447-81.545,0-.012c-.095.372-.188.743-.278,1.117C825.524,358.126,825.617,357.759,825.711,357.391Zm.79-2.844h0l-.008.027Zm.906-2.787,0,0c-.122.348-.235.7-.352,1.048l0-.009C827.175,352.451,827.286,352.1,827.406,351.761Zm.7-1.872c.085-.22.168-.442.253-.662-.091.229-.175.46-.263.69Zm9.813-16.956c.351-.433.714-.861,1.08-1.288C838.63,332.072,838.266,332.5,837.915,332.933Zm-1.545,1.984c.3-.4.611-.8.924-1.2C836.981,334.115,836.672,334.515,836.37,334.917Zm-1.457,2.032q.415-.6.85-1.2Q835.33,336.344,834.914,336.949Zm-1.378,2.092c.266-.421.534-.841.811-1.257C834.07,338.2,833.8,338.62,833.536,339.042Zm-1.326,2.2c.268-.467.538-.934.821-1.4C832.748,340.311,832.478,340.778,832.21,341.245Z" transform="translate(-652.269 -286.262)" fill="#c1356a"></path></g><path id="Path_4088" data-name="Path 4088" d="M886.466,320.817c.138.044.285.084.433.121a8.146,8.146,0,0,0,.883.19c.489.076.962.18,1.435.288.672.17,1.342.361,2.012.567.2.069.406.142.607.216.648.24,1.285.5,1.9.786.133.063.267.124.4.189a30.115,30.115,0,0,1,4.123,2.475c.154.11.308.219.461.331.636.464,1.264.941,1.878,1.439,13.9,11.294,18.853,26.222,19.3,43.052.525,19.724-6.572,37.738-13.067,55.892q-.809,2.262-1.6,4.529c-.164.47-.306.942-.46,1.412q-.6,1.837-1.107,3.674c-.135.5-.271.991-.4,1.486q-.6,2.4-1.043,4.788a67.88,67.88,0,0,0,21.525,63.5,77.325,77.325,0,0,0,11.582,8.673c-6.442,1.521-12.385-1.531-18.631-1.908a5.66,5.66,0,0,1-4.724-3.465c-2.653-6.631-8.857-10.885-11.946-17.381-7.421-15.609-14.9-30.952-8.712-48.738a9.511,9.511,0,0,0,.021-6.484c-3.285-7.267-.352-12.735,4.692-17.892,2.317-2.37,4.638-5.5,3.261-8.471-3.005-6.5-.523-11.377,3.816-15.883,3.48-3.613,3.967-7.506,1.118-11.212-3.151-4.1-3.458-8.828-1.448-12.5,3.122-5.712,2.2-8.92-3.01-12.8-4.255-3.175-1.968-9.748-4.245-13.34-2.384-3.761-10.586-.558-13.97-5.47-2.115-3.07-3.274-2.7-5.608-.176-3.193,3.447-6.914,5.323-11.254,4.867-5.192,1.168-8.918,9-8.918,9l-.008,0c1.668,2.081-.042,3.671-4.873,8.016-1.494,1.345-3.663,2.064-2.008,4.585,3.96,6.03,1.118,11.208-2.812,15.8-2.345,2.736-2.751,4.8-.809,7.8,3.415,5.294,2.859,10.891-.223,16.06-1.876,3.147-2,5.525-.057,8.765,3.9,6.5,4.7,13.117.2,20.1a10.5,10.5,0,0,0-.275,11.707c4.336,6.734,3.682,13.451-2.257,19.112-3.359,3.2-4.018,6.037-1.556,10.217,3.488,5.922.437,17.025-5.886,20.2-5.368,2.693-6.55,5.708-5.334,11.158,1.67,7.486-5.194,18.741-11.257,18.41-6.27-.344-7.837,3.01-9.427,7.357-2.768,7.567-8.311,12.32-16.647,13.571-3.977.6-7.6,1.683-10.114,4.629-6.217,7.281-13.6,11.519-23.881,9.809a6.694,6.694,0,0,0-6.3,2.112c-5.974,7.327-15.049,7.9-23.435,9.658-3.643.766-7.8.44-10.553-2.954-2.579-3.18-4.869-3.191-7.068.39-2.4,3.913-6.255,4.536-10.646,4.4-10.154-.312-19.833-1.772-27.578-8.832l-9.819-33.058c.132-.036.238-.071.354-.106l.006,0c.432-.133.767-.252,1.047-.316.032-.007.068-.017.1-.023a1.4,1.4,0,0,1,.342-.027,21.726,21.726,0,0,1,3.038.43q6.039,1.253,12.051,2.1c.42.06.841.111,1.261.169,2.924.4,5.842.708,8.756.963a182.529,182.529,0,0,0,63.714-5.64q6.026-1.617,12.018-3.64a78.659,78.659,0,0,0,16.809-7.917,69.985,69.985,0,0,0,16.694-14.618,94.312,94.312,0,0,0,10.481-15.513q1.084-2.01,2.06-4.052c6.724-14.046,9.766-29.238,10.717-45.114.063-1.05.13-2.1.174-3.154v-.006c.027-.647.071-1.293.109-1.933,0-.06.007-.119.011-.179,0-.044,0-.089.007-.133l.047-.05s2.12-14.246.877-24.342c-.015-.345-.027-.687-.053-1.04-.827-11.158-.023-22.488.873-33.686q.129-1.6.313-3.171a69.558,69.558,0,0,1,5.7-20.916q.526-1.153,1.1-2.287a63.039,63.039,0,0,1,10.6-14.966c.018-.019.039-.036.057-.055q.473-.492.981-.944c.145-.129.3-.247.449-.372.216-.18.431-.364.655-.536.2-.151.4-.292.6-.437.183-.132.364-.266.551-.393.247-.168.5-.329.751-.49.143-.092.284-.186.429-.275q.476-.295.961-.578l.208-.124c1.377-.8,2.787-1.558,4.155-2.36l.012-.007v0S869.182,317.7,886.466,320.817Z" transform="translate(-653.336 -289.582)" fill="#dd7a90"></path></g><g id="Group_1136" data-name="Group 1136" transform="translate(50.967 67.191)"><g id="Group_1134" data-name="Group 1134" transform="translate(73.27 23.189)"><path id="Path_4089" data-name="Path 4089" d="M175.726,218.757c.2-.152.4-.3.6-.433C176.122,218.461,175.922,218.605,175.726,218.757Z" transform="translate(-173.044 -210.432)" fill="none"></path><path id="Path_4090" data-name="Path 4090" d="M176.394,218.243a12.487,12.487,0,0,1,1.29-.746A12.393,12.393,0,0,0,176.394,218.243Z" transform="translate(-173.109 -210.351)" fill="none"></path><path id="Path_4091" data-name="Path 4091" d="M197.716,255.129a19.628,19.628,0,0,0,2.759,15.108c8.531,13.048,23.176,14.282,36.84,3.083a37.939,37.939,0,0,1,4.518-3.646,28.576,28.576,0,0,0,4.424-7.294c.522-1.647.989-3.16,1.328-4.679,2.943-13.228-.008-25.049-9.714-34.524-16.4-16.013-35.5-16.595-55.667-8.437-1.594.645-3.317,1.189-4.877,1.98a12.487,12.487,0,0,0-1.29.746c-.207.137-.407.281-.6.433s-.383.313-.565.482a7.833,7.833,0,0,0-1.006,1.133,7.677,7.677,0,0,0-.428.664,8.163,8.163,0,0,0-.683,1.549h0c8.908-7.387,20.652-1.138,30.185-6.275,2.661-1.433,4.526,3.349,7.493,3.473,13.668.574,22.6,7.292,26.863,20.3.285.869,1.161,1.536,1.733,2.317,4.217,5.761.791,21.816-5.7,24.715-2.772,1.238-4.84,3.1-7.107,4.818-2.523,1.909-18.245-2.2-19-5.259-1.39-5.657-7.141-10.262-4.145-17.027.161-.364-.711-1.188-1.1-1.8q-.534.583-1.01,1.2A18.044,18.044,0,0,0,197.716,255.129Z" transform="translate(-172.752 -209.573)" fill="#f28b9d"></path><path id="Path_4092" data-name="Path 4092" d="M173.984,220.471a7.833,7.833,0,0,1,1.006-1.133A7.833,7.833,0,0,0,173.984,220.471Z" transform="translate(-172.873 -210.531)" fill="#915dbd"></path><path id="Path_4093" data-name="Path 4093" d="M173.435,221.33a8.146,8.146,0,0,0-.683,1.55h0A8.162,8.162,0,0,1,173.435,221.33Z" transform="translate(-172.752 -210.727)" fill="#915dbd"></path><path id="Path_4094" data-name="Path 4094" d="M175.1,219.286q.273-.253.565-.482Q175.372,219.033,175.1,219.286Z" transform="translate(-172.982 -210.479)" fill="#915dbd"></path><path id="Path_4095" data-name="Path 4095" d="M200.432,259.331a18.044,18.044,0,0,1,3.246-6.936A18.044,18.044,0,0,0,200.432,259.331Z" transform="translate(-175.468 -213.775)" fill="#915dbd"></path><path id="Path_4096" data-name="Path 4096" d="M204.031,252.264q.475-.621,1.01-1.2h0Q204.507,251.642,204.031,252.264Z" transform="translate(-175.821 -213.644)" fill="#915dbd"></path></g><g id="Group_1135" data-name="Group 1135"><path id="Path_4097" data-name="Path 4097" d="M238.581,418.929l-.018,0,.006.005Z" transform="translate(-105.938 -206.924)" fill="none"></path><path id="Path_4098" data-name="Path 4098" d="M224.879,436.329c-1.908-.656-3.556-1.252-4.886-1.749C221.37,435.614,223.16,435.906,224.879,436.329Z" transform="translate(-104.116 -208.46)" fill="#e62276"></path><path id="Path_4099" data-name="Path 4099" d="M356.535,502.114a10.33,10.33,0,0,1-.624-1.1c-.014-.027-.029-.053-.041-.08a11.58,11.58,0,0,1-.5-1.217c-2.511-4.027-6.063-10.32-11.081-20.053a124.9,124.9,0,0,0-12.4-17.675l-.035-.041q-.924-1.092-1.871-2.151l-.156-.174q-.892-.994-1.8-1.958l-.281-.3q-.858-.9-1.733-1.779l-.4-.4q-.825-.817-1.666-1.611c-.173-.164-.348-.326-.522-.489-.53-.492-1.064-.981-1.6-1.461q-.317-.281-.637-.559-.764-.668-1.539-1.32c-.252-.21-.506-.418-.76-.626-.488-.4-.979-.8-1.475-1.187-.29-.228-.583-.452-.877-.676-.469-.36-.94-.717-1.415-1.067-.327-.242-.659-.478-.99-.715-.45-.322-.9-.644-1.356-.957-.368-.253-.739-.5-1.11-.748-.429-.286-.859-.573-1.293-.851-.407-.262-.818-.515-1.23-.77s-.817-.508-1.23-.755c-.446-.266-.9-.524-1.35-.784-.389-.223-.776-.447-1.168-.665-.488-.27-.981-.53-1.475-.792-.367-.194-.732-.391-1.1-.58-.528-.27-1.061-.529-1.595-.788-.347-.17-.693-.342-1.043-.507-.567-.266-1.141-.522-1.714-.777-.327-.145-.652-.295-.981-.437-.6-.261-1.216-.51-1.828-.757-.31-.126-.618-.256-.931-.379-.64-.252-1.29-.491-1.94-.729-.293-.107-.583-.219-.877-.324-.676-.239-1.36-.466-2.045-.691-.28-.092-.556-.189-.836-.279-.709-.226-1.428-.438-2.147-.649-.265-.077-.527-.16-.794-.235-.733-.208-1.476-.4-2.221-.593-.262-.069-.521-.142-.785-.207-.75-.187-1.51-.358-2.27-.529-.268-.06-.53-.125-.8-.184-.742-.16-1.493-.3-2.246-.45-.3-.057-.592-.121-.891-.177-.693-.126-1.4-.239-2.1-.353-.368-.06-.731-.127-1.1-.184-.547-.083-1.1-.151-1.654-.227s-1.07-.153-1.613-.219l-.069-.008q-1.583-.191-3.2-.341c-1.674-.156-3.345-.352-5.015-.562-3.446-.434-6.884-.96-10.319-1.519-4.7-.764-9.4-1.574-14.11-2.244-4.307-.621-8.253-3.585-12.513-4.513a10.3,10.3,0,0,0-5.31.161c.019-.005.038-.015.056-.02-1.913-.575-3.706-1.144-5.348-1.687.088.043.172.1.259.142-2.4-1.3-5.643-1.059-7.747-2.889-22.8-7.858-41.884-21.516-59.715-37.409-21.151-18.852-32.481-43.44-38.809-69.923-4.723-19.761-4.1-40.378,4.723-59.725.94-2.06,3.028-3.97,1.724-6.667-6.024-.947-5.539,3.981-6.489,7.4-.608,2.191.628,5.5-2.617,6.038-8.059,1.336-7.056,7.03-5.571,12.1.876,2.986.439,4.586-.995,7.141a90.491,90.491,0,0,0-7.117,16.235c-1.179,3.633-1.124,7.889,1.916,10.963,2.753,2.784,2.791,4.911.326,8.062-3.4,4.345-2.813,11.2.777,12.94,5.649,2.737,3.808,5.546,2.885,9.1-1.885,7.26.856,13.009,6.605,16.972,3.85,2.653,4.9,5.612,5.53,10.078,1.115,7.876,3.608,15.225,12.125,19.149,4.678,2.155,8.078,6.062,7.553,12.613-.733,9.16,8.537,16.962,17.9,16.488,3.719-.189,4.971,1.384,3.094,5.481-2.93,6.394,2.072,9.923,6.4,12.948,4.264,2.977,9.021,6.684,14.255,1.711,3.68-3.5,5.376.727,7.87,1.643,3.268,1.2,1.817,2.818.463,4.9-2.584,3.963-1.37,7.352,2.563,9.839,7.056,4.46,15.428,4.371,22.086-.772,2.208-1.705,3.923-1.136,6.02-.551,3.1.863,1.5,2.89,1.3,4.656-.423,3.825,1.045,7.254,4.708,8.041,7.652,1.646,15.688,4.177,22.522-2.461,2.384-2.314,4-1.729,5.7.929,5.791,9.083,14.538,11.955,24.639,8.48,3.877-1.334,6.814-.823,6.053,4.448-.484,3.359.041,6.614,3.272,8.186,5.957,2.9,11.46,7.524,18.859,5.9,3.576-.786,5.613,1.675,4.923,4.268-3.013,11.324,6.163,16.191,12.534,20.38,5.062,3.329,8.274,6.8,10.566,11.776,2.772,6.02,7.02,7.695,12.929,4.82,8.478-4.126,16.946-8.3,23.732-15.095l0,0,0,0c-.308-.124-.616-.248-.9-.378s-.52-.253-.767-.385l-.073-.037c-.107-.058-.206-.119-.309-.179-.164-.093-.33-.186-.485-.283-.06-.037-.115-.078-.173-.115-.193-.125-.382-.253-.561-.383l-.035-.028a10.139,10.139,0,0,1-2.474-2.582Z" transform="translate(-91.511 -189.525)" fill="#f28b9d"></path><path id="Path_4100" data-name="Path 4100" d="M227.715,437.295a11.547,11.547,0,0,0-2.305-.776Q226.507,436.9,227.715,437.295Z" transform="translate(-104.648 -208.65)" fill="#e62276"></path><path id="Path_4101" data-name="Path 4101" d="M219.283,434.2c-1.17-.4-2.322-.831-3.472-1.264l-.019,0s1.374.575,3.789,1.48c-.1-.075-.2-.143-.294-.225C219.322,433.876,219.324,433.88,219.283,434.2Z" transform="translate(-103.704 -208.298)" fill="#e62276"></path><path id="Path_4102" data-name="Path 4102" d="M170.8,188.7c-23.824,9.382-41.226,25.76-54.246,47.338,1.3,2.7-.785,4.607-1.724,6.667-8.826,19.347-9.446,39.964-4.723,59.725,6.329,26.483,17.658,51.071,38.809,69.923,16.917,15.079,34.972,28.134,56.243,36.146,1.15.434,2.3.861,3.472,1.264.041-.318.039-.323,0-.005.094.082.2.151.294.225,1.329.5,2.977,1.093,4.886,1.749a11.548,11.548,0,0,1,2.305.776c1.642.543,3.435,1.111,5.348,1.687a167.238,167.238,0,0,0,29.719,6.263v0q1.08.179,2.159.355c3.436.558,6.874,1.084,10.319,1.519,1.669.209,3.341.4,5.015.56q1.613.15,3.2.343l.069.008c.543.066,1.075.146,1.613.219s1.108.144,1.654.227c.37.057.733.124,1.1.184.7.114,1.406.226,2.1.353.3.056.593.12.891.177.752.145,1.5.29,2.246.45.268.059.53.124.8.184.76.17,1.52.343,2.27.529.263.066.522.139.785.207.745.192,1.488.385,2.221.593.267.076.529.159.794.235.72.211,1.439.423,2.147.649.28.089.556.187.836.279.685.225,1.369.452,2.045.691.294.1.584.216.877.324.65.238,1.3.477,1.94.729.313.123.62.253.931.379.611.247,1.224.5,1.828.757.329.142.654.291.981.437.574.255,1.147.511,1.714.777.35.165.7.337,1.043.507.534.259,1.067.519,1.595.788.37.189.735.386,1.1.58.493.262.987.522,1.475.792.392.217.779.442,1.168.665.452.26.9.518,1.35.784.413.247.822.5,1.23.755s.823.509,1.23.77c.435.279.864.565,1.293.851.371.247.742.494,1.11.748.455.313.906.635,1.356.957.331.237.663.474.99.715.475.35.946.707,1.415,1.067.293.225.586.448.877.676.5.39.987.787,1.475,1.187.253.208.509.416.76.626q.777.651,1.539,1.32.319.279.637.559c.539.48,1.073.969,1.6,1.461.174.163.349.325.522.489q.841.793,1.666,1.611l.4.4q.877.877,1.733,1.779l.281.3q.91.965,1.8,1.958l.156.174q.947,1.059,1.871,2.151l.035.041q1.656,1.958,3.24,4.02l.1.131A129.323,129.323,0,0,1,345.828,474c5.017,9.732,8.57,16.026,11.081,20.053l.008.013a10.815,10.815,0,0,0,.491,1.2c.013.027.028.053.041.08a10.009,10.009,0,0,0,.624,1.1l.013.017a9.882,9.882,0,0,0,1.854,2.082c.195.171.4.338.62.5l.035.028c.178.132.369.258.561.383.059.038.113.078.173.115.154.1.321.189.485.283.1.06.2.122.309.179l.073.037a16.2,16.2,0,0,0,1.667.761c.862-.851,1.733-1.693,2.571-2.555,16.052-16.551,16.269-16.662,6.243-36.868-14.428-29.093-34.187-52.717-66.367-63.4-22.22-7.385-45.419-9.109-68.313-12.607v.005a77.427,77.427,0,0,0-17.7-5.717c-5.059-2.246-10.223-4.284-15.16-6.772-37.709-19.008-62.791-48.084-69.719-90.517-4.38-26.831,9.282-53.332,30.9-63.2a8.146,8.146,0,0,1,.683-1.55,7.677,7.677,0,0,1,.428-.664,7.833,7.833,0,0,1,1.006-1.133q.273-.253.565-.482c.2-.152.4-.3.6-.433a12.393,12.393,0,0,1,1.29-.746c1.559-.791,3.283-1.335,4.877-1.98,20.169-8.158,39.263-7.576,55.667,8.437,9.706,9.474,12.657,21.3,9.714,34.524-.338,1.519-.805,3.032-1.328,4.679a28.576,28.576,0,0,1-4.424,7.294,37.935,37.935,0,0,0-4.518,3.646c-13.664,11.2-28.309,9.965-36.84-3.083a19.628,19.628,0,0,1-2.759-15.108,18.044,18.044,0,0,1,3.246-6.936q.475-.621,1.01-1.2c2.08-4.151,6.106-6.551,9.336-9.881-1.434-1.11-2.512-.614-3.656-.184-14.25,5.347-22.294,20.745-18.8,36.034,3.7,16.191,20.142,28.114,36.325,26.17a41.74,41.74,0,0,0,26.561-13.63q1.755-1.487,3.51-2.973a28.224,28.224,0,0,0,6.151-8.363c1.765-3.793,5.3-6.945,4.244-11.758a34.448,34.448,0,0,0,3.4-10.311c1.2-7.371.036-14.835-2.2-22.159C249.841,192.748,206.813,174.516,170.8,188.7Zm54.895,207.168-.012,0-.006-.005Z" transform="translate(-93.049 -183.862)" fill="#e62276"></path></g></g><g id="Group_1138" data-name="Group 1138" transform="translate(334.67 0)"><g id="Group_1137" data-name="Group 1137"><path id="Path_4103" data-name="Path 4103" d="M709.216,206.11q-1.307-4.045-2.823-7.907c-1.868-5.983-6.77-18.441-18.188-32.373-13.538-17.5-31.474-30.884-53.257-40.462a183.263,183.263,0,0,0-37.485-11.811c-.028-.014-.07-.014-.1-.029q-9.186-1.853-18.539-2.836c-3.693-.38-7.4-.675-11.123-.857-3.947-.211-7.907-.352-11.84-.436-.253,0-.492-.014-.744,0-20.646-.337-41,1.558-60.393,9.93-2.078.9-4.129,1.853-6.18,2.907q-4.149,2.128-8.117,4.509a103.646,103.646,0,0,0-28.048,24.283c-1.208,1.488-2.345,3.02-3.426,4.592-.225.337-.464.66-.675,1-.182.266-.365.533-.533.8-21.91,32.485-31.98,69-31.741,108.565a214.165,214.165,0,0,0,4.34,39.663c4.578,12.387,12.682,38.89,16.867,71.515,3.535,27.559,4.251,59.488-2.343,90.953A190.522,190.522,0,0,1,421.6,508.842a179.934,179.934,0,0,1-15.52,29.494h65.659s33.051-28.66,36.035-30.7c34.272-23.449,139.945,30.7,139.945,30.7l27.959-8.117c-.245.1-7.044-8.016-13.258-15.384a71.623,71.623,0,0,1-14.464-27.785c-4.408-16.581-7.009-29.872-.531-48.741,7.753-22.57,20.786-42.246,33.483-62.105,16.249-25.393,30.252-51.937,34.633-82.007C719.848,264.605,718.6,235.013,709.216,206.11Z" transform="translate(-406.076 -109.361)" fill="#e62276"></path></g></g><g id="Group_1142" data-name="Group 1142" transform="translate(372.996 66.158)"><g id="Group_1139" data-name="Group 1139"><path id="Path_4104" data-name="Path 4104" d="M626.393,366.293A101.816,101.816,0,0,1,588.971,389.1c-3.287-1.493-5.854-4.164-9.174-5.605-17.72-9.618-35.4-8.332-53.037.21a72.866,72.866,0,0,0-6.65,3.594,4.246,4.246,0,0,1-2.7.832c-13.853-4.564-27.215-10.123-38.859-19.166,1.322-1.978,3.637-2.237,5.563-3.081a158.9,158.9,0,0,1,48.143-13,11.139,11.139,0,0,1,3.222-.059c.818.152-.133-.712.376-.841a4.025,4.025,0,0,1,2.853-.3c10.411,1.2,20.842.413,31.265.368a12.88,12.88,0,0,1,4.356.289c6.76,1.1,13.593,1.77,20.259,3.362a206.367,206.367,0,0,1,29.506,8.906A3.58,3.58,0,0,1,626.393,366.293Z" transform="translate(-451.512 -199.281)" fill="#941a2f"></path><path id="Path_4105" data-name="Path 4105" d="M574.506,350.106c-12.7.3-25.408.767-38.1-.325-4.461.939-8.759-.383-13.005-1.259-6-1.239-12.041-2.349-17.757-4.923-8.09-3.645-13.911-9.63-18.926-16.637-.48-.669-1.131-1.426-.546-2.4,4.4.707,8.81,1.346,13.194,2.132,12.772,2.292,25.667,3.569,38.555,4.958,21.279,2.293,42.328-.322,63.422-2.505,6.449-.667,12.618-2.834,19.095-3.19,1.964-.108,4-.686,5.853.532.447,1.172-.439,1.817-1.05,2.532-13.122,15.352-30.025,21.911-49.945,21.428A1.319,1.319,0,0,1,574.506,350.106Z" transform="translate(-452.238 -196.633)" fill="#fcfcfc"></path><path id="Path_4106" data-name="Path 4106" d="M482.506,324.114c6.341,10.32,14.91,17.672,26.9,20.757a219.875,219.875,0,0,0,23.335,4.458l1.7.788c-4.307.259-7.956.822-11.608,1.286-11.929,1.515-23.332,4.929-34.5,9.227-4.28,1.648-8.489,3.481-12.73,5.231a89.076,89.076,0,0,1-23.855-25.579,22.765,22.765,0,0,1-3.044-9.14c-.8-6.331,1.9-9.93,8.215-10.871,5.725-.852,11.337.174,16.872,1.44C476.72,322.382,479.808,322.579,482.506,324.114Z" transform="translate(-448.571 -196.181)" fill="#780e1c"></path><path id="Path_4107" data-name="Path 4107" d="M584.14,350.27c4.288-.39,8.579-.737,12.86-1.177,16.313-1.677,28.824-9.971,38.925-22.435,1.5-.9,2.849-.122,4.188.408,9.56,3.78,12.841,11.751,8.753,21.138a42.816,42.816,0,0,1-12.113,15.6c-8.423-3.452-17.214-5.759-25.939-8.255-7.961-2.278-16.163-3.348-24.349-4.437C585.593,351,584.688,351.192,584.14,350.27Z" transform="translate(-461.872 -196.797)" fill="#780e1c"></path><path id="Path_4108" data-name="Path 4108" d="M584.429,386.3c3.185,1.7,6.351,3.423,8.768,6.207-8.9,3.852-18.329,5.491-27.9,6.414-9.666.932-19.142-.452-28.468-2.868-5.114-1.325-10.136-3-15.2-4.516,2.841-1.617,5.529-3.508,8.582-4.738,12.593,8.589,26.507,9.161,40.874,6.584,4.021-.722,7.471-2.877,10.623-5.452C582.539,387.252,583.26,386.406,584.429,386.3Z" transform="translate(-455.739 -202.689)" fill="#f95052"></path><path id="Path_4109" data-name="Path 4109" d="M617.773,225.939a23.507,23.507,0,0,1,7.048-13.182c4.87-4.784,10.346-5.122,16.427-2.147,7.148,3.5,12.663,8.149,13.785,16.561a7.054,7.054,0,0,1,.134,1.461c-.106,1.352.03,3.182-1.435,3.562-1.751.455-1.577-1.642-1.979-2.6-2.24-5.353-5.034-10.18-10.438-12.967-5.032-2.6-9.817-2.74-14.588.812A59.471,59.471,0,0,0,617.773,225.939Z" transform="translate(-465.171 -185.265)"></path><path id="Path_4110" data-name="Path 4110" d="M525.617,200.578a41.2,41.2,0,0,0-1.742-3.984c-5.21-9.236-14.552-11.118-23.119-4.79-3.645,2.692-6.466,6.177-9.867,9.991.118-4.744,2.371-7.856,4.931-10.713a25.25,25.25,0,0,1,13.2-7.807c7.736-1.841,12.591.839,15.487,8.271a31.875,31.875,0,0,1,1.875,8.7Z" transform="translate(-452.723 -182.716)"></path><path id="Path_4111" data-name="Path 4111" d="M585.362,385.541c-7.014,7.877-16.329,9.516-26.143,9.245-6.81-.188-13.644-.922-20.094-3.356-3.026-1.142-6.373-2.045-7.979-5.39C549.133,376.775,567.2,375.6,585.362,385.541Z" transform="translate(-456.673 -201.931)" fill="#fa7072"></path></g><g id="Group_1140" data-name="Group 1140" transform="translate(33.489 29.475)"><path id="Path_4112" data-name="Path 4112" d="M486.244,246.591a44.7,44.7,0,0,0,1.645,20.918c1.017,3.036,2.341,6.178,6.1,6.57,3.516.367,5.548-2.189,7.176-4.765,7.074-11.2,8.654-23.684,8.214-36.578a30.664,30.664,0,0,0-2.817-12.584c-2.8-5.723-6.971-6.329-11.124-1.558a25.488,25.488,0,0,0-5.685,11.034Q487.952,238.1,486.244,246.591Z" transform="translate(-485.703 -215.397)" fill="#3d1a0b"></path><path id="Path_4113" data-name="Path 4113" d="M486.3,248.139a40.48,40.48,0,0,0,3.513-16.962A46.594,46.594,0,0,0,486.3,248.139Z" transform="translate(-485.762 -216.945)" fill="#3b190a"></path><path id="Path_4114" data-name="Path 4114" d="M502.764,230.613a19.839,19.839,0,0,0,.4,9.344c.357,1.1.795,2.336,2.154,2.405,1.558.081,2.194-1.22,2.644-2.432a19.47,19.47,0,0,0,.869-11.85c-.354-1.374-.645-3.079-2.376-3.219-1.747-.141-2.246,1.571-2.827,2.827A17.841,17.841,0,0,0,502.764,230.613Z" transform="translate(-487.342 -216.324)" fill="#f9f9f8"></path></g><g id="Group_1141" data-name="Group 1141" transform="translate(146.462 47.257)"><path id="Path_4115" data-name="Path 4115" d="M611.506,266.307a44.723,44.723,0,0,0,1.645,20.919c1.017,3.035,2.342,6.177,6.1,6.57,3.516.367,5.548-2.189,7.175-4.765,7.075-11.2,8.654-23.685,8.214-36.578a30.643,30.643,0,0,0-2.817-12.584c-2.8-5.723-6.971-6.329-11.123-1.558a25.481,25.481,0,0,0-5.685,11.034Q613.214,257.816,611.506,266.307Z" transform="translate(-610.966 -235.113)" fill="#3d1a0b"></path><path id="Path_4116" data-name="Path 4116" d="M611.565,267.855a40.467,40.467,0,0,0,3.513-16.962A46.6,46.6,0,0,0,611.565,267.855Z" transform="translate(-611.025 -236.661)" fill="#3b190a"></path><path id="Path_4117" data-name="Path 4117" d="M628.027,250.329a19.828,19.828,0,0,0,.4,9.344c.357,1.1.795,2.336,2.154,2.406,1.559.08,2.194-1.221,2.644-2.433a19.463,19.463,0,0,0,.869-11.85c-.354-1.374-.645-3.079-2.376-3.219s-2.245,1.571-2.827,2.827A17.827,17.827,0,0,0,628.027,250.329Z" transform="translate(-612.605 -236.041)" fill="#f9f9f8"></path></g></g><g id="Group_1148" data-name="Group 1148" transform="translate(347.643 82.135)"><path id="Path_4118" data-name="Path 4118" d="M675.014,234.879s-10.932-5.945-42.442-11.7-52.538-3.287-63.1,3.6a29.984,29.984,0,0,1-18.382,4.71c-4.674-.61-12.868-2.516-18.923-8.53-8.949-8.89-29.033-15.569-61.059-16.333s-43.933,2.839-43.933,2.839l-1.751,10.941s.6,2.367,4.057,5.451-.435,24.714,6.955,42.678c4.974,12.093,10.865,22.932,30.9,26.038s38.993,4.417,48.074-6.4,17.127-21.742,19.622-31.767,7.8-12.627,12.827-12.534a2.969,2.969,0,0,0,1.051-.184,2.661,2.661,0,0,0,.952.389c4.941.925,9.6,4.552,10.012,14.878s6.074,22.651,12.77,35.087,25.531,15,45.777,16.023,28.216-8.393,35.542-19.224c10.883-16.092,11.456-38.063,15.471-40.379s5.08-4.517,5.08-4.517Z" transform="translate(-420.947 -201.029)" fill="#191818" opacity="0.1" style="mix-blend-mode: multiply;isolation: isolate"></path><g id="Group_1147" data-name="Group 1147"><g id="Group_1143" data-name="Group 1143" transform="translate(11.826 9.005)"><path id="Path_4119" data-name="Path 4119" d="M502.3,286.616c-8.732,4.3-24.239,3.308-37.049-.208,17.957,6.328,36.115,7.053,51.53-8.01,15.661-15.584,14.8-38.456,9.359-47.524,1.74,5.109,1.89,12.029.9,21.141C525.193,269.03,513.243,281.234,502.3,286.616Z" transform="translate(-436.681 -212.423)" fill="#2c2c2e" opacity="0.2" style="mix-blend-mode: multiply;isolation: isolate"></path><path id="Path_4120" data-name="Path 4120" d="M500.036,214.43a165.951,165.951,0,0,1,16.377,3.771A43.244,43.244,0,0,0,500.036,214.43Z" transform="translate(-440.093 -210.81)" fill="#2c2c2e"></path><path id="Path_4121" data-name="Path 4121" d="M442.7,220.409a26.563,26.563,0,0,1,7.536-5.208c16.083-6.455,30.208-2.285,45.15-.806-11.553-2.236-25.346-4.03-34.915-3.978-1.661.009-3.2.07-4.573.2-15.039,1.4-18.436,5.874-20.045,10.324s-2.366,12.772-2.277,17.077c.22,10.642,3.01,32.616,14.461,40.624C436.313,260.126,427.611,235.714,442.7,220.409Z" transform="translate(-433.572 -210.416)" fill="#393939" opacity="0.1" style="mix-blend-mode: multiply;isolation: isolate"></path><path id="Path_4122" data-name="Path 4122" d="M439.3,267.455c2.5,6.191,6.111,11.551,11.319,14.2,13.161,6.7,37.337,10.529,49.138,4.723C510.7,281,522.647,268.8,524.5,251.781c1.137-10.458.782-18.044-1.774-23.3C492.045,235.148,462.809,247.364,439.3,267.455Z" transform="translate(-434.134 -212.189)" fill="url(#linear-gradient)"></path></g><path id="Path_4123" data-name="Path 4123" d="M433.4,210.863c-.15,1.463-2.259,2.443-4.711,2.192s-4.316-1.641-4.166-3.1,2.257-2.443,4.711-2.192S433.553,209.4,433.4,210.863Z" transform="translate(-420.858 -201.147)" fill="#2c2c2e" opacity="0.2" style="mix-blend-mode: multiply;isolation: isolate"></path><path id="Path_4124" data-name="Path 4124" d="M433.686,208.1c-.15,1.462-2.258,2.445-4.709,2.193s-4.317-1.641-4.168-3.1,2.259-2.442,4.709-2.192S433.836,206.637,433.686,208.1Z" transform="translate(-420.886 -200.876)" fill="#a29f9a"></path><path id="Path_4125" data-name="Path 4125" d="M431.812,208.022c-.079.772-1.189,1.286-2.478,1.154s-2.271-.863-2.193-1.632,1.188-1.286,2.479-1.154S431.893,207.254,431.812,208.022Z" transform="translate(-421.115 -201.014)" fill="#fff" opacity="0.3"></path><g id="Group_1144" data-name="Group 1144"><path id="Path_4126" data-name="Path 4126" d="M670.057,228.787s-10.933-5.946-42.448-11.694-52.533-3.29-63.1,3.6a29.962,29.962,0,0,1-18.381,4.707c-4.673-.607-12.867-2.515-18.923-8.529-8.949-8.889-29.036-15.566-61.059-16.331s-43.933,2.837-43.933,2.837l-1.752,10.941s.6,2.368,4.058,5.453-.436,24.713,6.954,42.677c4.975,12.091,10.866,22.933,30.9,26.038s38.992,4.417,48.074-6.4,17.127-21.746,19.623-31.768,7.8-12.629,12.828-12.535a2.925,2.925,0,0,0,1.05-.185,2.67,2.67,0,0,0,.952.389c4.94.928,9.6,4.552,10.012,14.878s6.074,22.65,12.771,35.087,25.53,15,45.775,16.024S641.675,295.58,649,284.749c10.881-16.09,11.457-38.062,15.47-40.379s5.079-4.515,5.079-4.515ZM497.91,283.63c-11.8,5.806-35.976,1.977-49.138-4.723s-16.247-30.622-16.479-41.869c-.088-4.306.666-12.627,2.277-17.077s5.005-8.928,20.045-10.324,49.554,4.766,58.682,8.851,11.2,13.526,9.353,30.542S508.848,278.247,497.91,283.63ZM653.353,259.7c-2.51,10.965-10.386,33.764-24.632,37.653s-38.7,2.735-49.076-5.345c-9.619-7.488-18.843-21.866-17.2-38.9s5.586-25.864,15.356-28.01,44.811-1.175,59.255,3.243,16.861,9.492,17.535,14.178S654.314,255.5,653.353,259.7Z" transform="translate(-420.46 -200.431)" fill="#2c2c2e"></path><path id="Path_4127" data-name="Path 4127" d="M594.819,295.508c7.68,5.98,23.065,8.158,36.322,7.313-18.869,2.556-36.8-.422-48.833-18.3-12.172-18.437-6.689-40.657.481-48.434-2.739,4.648-4.293,11.4-5.171,20.519C575.976,273.642,585.2,288.02,594.819,295.508Z" transform="translate(-435.634 -203.929)" fill="#2c2c2e" opacity="0.2" style="mix-blend-mode: multiply;isolation: isolate"></path><path id="Path_4128" data-name="Path 4128" d="M617.181,226.557a165.85,165.85,0,0,0-16.8.37A43.24,43.24,0,0,1,617.181,226.557Z" transform="translate(-438.112 -202.932)" fill="#2c2c2e"></path><path id="Path_4129" data-name="Path 4129" d="M665.579,237.722c-31.413,8.455-62.133,20.152-81,45.093a46.386,46.386,0,0,0,11.169,12.854c10.377,8.079,34.827,9.236,49.076,5.345s22.122-26.688,24.632-37.653c.961-4.2,1.91-12.5,1.237-17.183A12,12,0,0,0,665.579,237.722Z" transform="translate(-436.561 -204.09)" fill="url(#linear-gradient-2)"></path><path id="Path_4130" data-name="Path 4130" d="M667.266,243.175a26.621,26.621,0,0,0-6.325-6.627c-14.438-9.584-29.116-8.366-44.047-9.953,11.769.157,25.639,1.2,35,3.191,1.629.345,3.119.72,4.437,1.122,14.445,4.418,16.861,9.492,17.535,14.178s-.276,12.984-1.237,17.183c-2.375,10.375-9.565,31.327-22.4,36.844C665.461,283.365,678.936,261.225,667.266,243.175Z" transform="translate(-439.732 -202.998)" fill="#393939" opacity="0.1" style="mix-blend-mode: multiply;isolation: isolate"></path></g><g id="Group_1145" data-name="Group 1145" transform="translate(237.899 28.073)"><path id="Path_4131" data-name="Path 4131" d="M684.284,234.314c-.149,1.463,1.877,3.574,4.329,3.827s4.263-1.311,4.376-2.777c.245-3.2-1.834-.9-4.283-1.147S684.6,231.2,684.284,234.314Z" transform="translate(-684.242 -231.685)" fill="#2c2c2e" opacity="0.2" style="mix-blend-mode: multiply;isolation: isolate"></path><path id="Path_4132" data-name="Path 4132" d="M684.246,233.791c-.149,1.461,1.716,2.85,4.169,3.1s4.559-.73,4.706-2.19-1.715-2.852-4.166-3.1S684.4,232.327,684.246,233.791Z" transform="translate(-684.238 -231.559)" fill="#a29f9a"></path><path id="Path_4133" data-name="Path 4133" d="M686.58,234.143c-.078.77.9,1.5,2.194,1.632s2.4-.382,2.478-1.153-.9-1.5-2.192-1.634S686.659,233.374,686.58,234.143Z" transform="translate(-684.467 -231.697)" fill="#fff" opacity="0.3"></path></g><g id="Group_1146" data-name="Group 1146" transform="translate(3.687 4.061)"><path id="Path_4134" data-name="Path 4134" d="M424.593,207.688c-.147,1.462,1.877,3.574,4.328,3.827s4.264-1.31,4.376-2.777c.244-3.2-1.833-.9-4.283-1.147S424.907,204.572,424.593,207.688Z" transform="translate(-424.551 -205.06)" fill="#2c2c2e" opacity="0.2" style="mix-blend-mode: multiply;isolation: isolate"></path><path id="Path_4135" data-name="Path 4135" d="M424.556,207.164c-.151,1.463,1.714,2.852,4.166,3.1s4.56-.731,4.711-2.193-1.715-2.851-4.168-3.1S424.706,205.7,424.556,207.164Z" transform="translate(-424.548 -204.934)" fill="#a29f9a"></path><path id="Path_4136" data-name="Path 4136" d="M426.887,207.518c-.078.769.9,1.5,2.193,1.633s2.4-.383,2.48-1.154-.9-1.5-2.194-1.632S426.967,206.748,426.887,207.518Z" transform="translate(-424.777 -205.072)" fill="#fff" opacity="0.3"></path></g></g></g><path id="Path_4137" data-name="Path 4137" d="M380.908,459.215s35.828,43.577,51.995,16.678c21.307-35.451,7.848,65.73,7.848,65.73L412.3,553.4s-16.824-1.328-27.542-28.623" transform="translate(-68.937 -143.685)" fill="#e62276"></path><path id="Path_4138" data-name="Path 4138" d="M384.838,538.618s10.117,21.587,27.793,22.567,1.98,23.546,1.98,23.546l-13.7,10.524L389.5,585.623s-12.17,1.07-12.17-13.646-14.446-10.792-14.446-10.792-11.3-3.123-7.745-15.787" transform="translate(-66.341 -151.475)" fill="#f28b9d"></path><g id="Group_1149" data-name="Group 1149" transform="translate(0 335.887)"><path id="Path_4139" data-name="Path 4139" d="M603.753,572.651s-.815,15.333,10.958,15.333,12.262,5.119,12.262,5.119v10.384s8.339-2.75,13.244,3.137,3.924,13.849,3.924,13.849,1.963,7.734,17.659,5.771,19.621,13.735,19.621,13.735h14.328s.388,6.867,8.236,6.867h14.189l12.562,4.315s10.013,2.353,15.175,0,19.879,4.515,19.879,4.515h7.269l5.483-2.943s28.45,4.9,35.318-2.944,21.582-8.83,21.582-8.83,11.554-.224,10.792-7.848c-.981-9.81,18.639-24.526,18.639-24.526s4.071-14.715,7.922-12.754,11.7-14.715,11.7-14.715l-4.9-3.924s6.867-10.294,4.9-14.958-1.6-13.324-1.6-13.324,1.6-5.074-1.339-6.055.981-8.829.981-8.829.077-6.385-4.376-7.607-4.453-9.07-4.453-9.07,1.963-5.887-2.943-5.887-5.887-8.829-5.887-8.829-3.924-4.905-7.848-4.905-4.905-2.943-4.905-2.943,0-1.962-2.943-2.943a41.282,41.282,0,0,1-4.905-1.962l-3.924-4.9-3.733.118H832.89l-6.274-3.062s-1.963-.98-7.848.981-7.307-.538-7.307-.538-13.295,2.5-20.163,12.31c-1.622,2.317,17.659-2.943,17.659-2.943l29.431,2.943L853.1,511.463l14.716,24.526v45.128l-36.3,38.261-50.032,10.791L707.91,610.548l-72.6-37.28-28.428-21.9-12.774.32Z" transform="translate(-89.853 -481.786)" fill="#f28b9d"></path><path id="Path_4140" data-name="Path 4140" d="M477.286,532.479c-17.5,13.712-28.7,31.692-37.674,51.391s-16.919,39.843-28.506,58.347c-18.146,28.981-60.913,39.16-94.7,35.013-29.118-3.573-54.118-16.585-78.089-31.882-15.409-9.833-30.732-19.775-49.3-23.308-1.062-.2-1.97-.393-2.755-.59l-.06-.012a82.359,82.359,0,0,0-8.968.182,2.579,2.579,0,0,1-.5.148c-29.181,5.24-41.028,30.3-57.485,50.339-10.89,13.261-22.159,26.364-37.877,34.546-11.155,5.807-22.84,7.123-34.858,7.093-1.973,0-3.153-1.118-4.267-2.448-1.932,1.186-4.426-.568-7.252,2.36,6.412,2.367,12.36,6.628,18.179,6.238,9.254-.62,18.97-.2,27.951-5.039,7.009-3.775,14.86-6.349,20.843-11.587,11.419-10,21.012-21.8,30.365-33.758,2.773-3.546,5.376-8.352,9.67-9.291,5.5-1.2,8.012-4.562,10.25-8.829,1.65-3.145,4.613-6.394,7.429-4.937,5.518,2.852,8.683-.486,11.669-3.584,3.022-3.135,5.439-3.775,9.067-1.686,3.826,2.2,7.746,3.639,12.573,1.039,2.937-1.582,7.95-.584,8.072,2.475.446,11.23,8.169,8.8,14.774,8.356,4.767-.321,7.156,1.653,8.511,5.976,2.231,7.114,8.243,10.706,15.515,10.193,4.73-.333,8.168,1.912,10.268,6.185,2.99,6.087,6.453,11.186,14.855,9.951,3.781-.556,6.691,1.779,8.47,5.581,3.31,7.074,10.136,10.3,18.186,8.942,4.779-.807,9.4.2,11.624,3.976,2.5,4.25,6.352,4.576,10.109,6.21,6.878,2.991,12.305-3.325,18.569-2.7,8.965.887,17.73.611,26.188-3.593,2.294-1.14,4.831-.655,7.279-.847,7.469-.585,23.042,2.891,26.6-4.776a14.572,14.572,0,0,1,9.488-7.877c7.1-2.071,11.009-6.842,12.863-13.566.773-2.8,1.7-6.263,4.53-6.305,9.734-.147,10.27-7.855,11.87-14.04,1.48-5.717.9-11.909,8.939-13.438,2.1-.4,2.845-3.458,3.486-5.6,2.158-7.23,2.048-8.653-.074-16.863,2.352,1.595,6.867,0,6.713-5.312-.224-7.722-3.423-7.727-2.585-10.157.953-2.763,10.422-.17,9.838-2.889-1.181-5.493-1.168-13.578,6.636-15,10.791-1.962,11.266-19.154,12.754-21.582,0,0,22.564-29.431,46.109,2.943S552.03,566.5,552.03,566.5l-38.282-53.669Z" transform="translate(-35 -484.833)" fill="#f28b9d"></path></g><path id="Path_4141" data-name="Path 4141" d="M164.731,608.43q-.994.58-1.972,1.177c.432-.258,1.1-.639,2-1.106C164.749,608.477,164.74,608.454,164.731,608.43Z" transform="translate(-47.534 -158.324)" fill="#480495"></path><path id="Path_4142" data-name="Path 4142" d="M162.091,610.107v0c.2-.124.4-.251.6-.373C162.307,609.966,162.091,610.107,162.091,610.107Z" transform="translate(-47.469 -158.452)" fill="#915dbd"></path><path id="Path_4143" data-name="Path 4143" d="M224.622,611.549c-.02.011-.033.027-.052.039.017.019.027.039.045.057Z" transform="translate(-53.598 -158.63)" fill="#915dbd"></path><path id="Path_4144" data-name="Path 4144" d="M202.635,623.568c-.02.032-.032.063-.052.1l.068.076.061-.081C202.684,623.628,202.662,623.6,202.635,623.568Z" transform="translate(-51.441 -159.81)" fill="#915dbd"></path><path id="Path_4145" data-name="Path 4145" d="M104.152,660.958c-12.266,26.857-31.614,44.38-61.111,49.186,1.114,1.329,2.294,2.443,4.267,2.448,12.018.03,23.7-1.286,34.858-7.093,15.717-8.182,26.986-21.285,37.877-34.546,16.457-20.038,28.3-45.1,57.485-50.339a2.579,2.579,0,0,0,.5-.148,82.359,82.359,0,0,1,8.968-.182l.06.012h0c.784.2,1.691.388,2.752.59,18.564,3.533,33.887,13.474,49.3,23.308,23.971,15.3,48.971,28.309,78.089,31.882,33.784,4.147,78.513-6.032,96.659-35.013,12.736-20.342,17.9-35.072,28.506-58.347,8.976-19.7,20.169-37.678,37.674-51.391,2.456-1.924,4.242-2.782,5.92-2.457-4.87-4.626-29.362-13.176-34.232-17.8-4.816-2.478-9.882-4.223-14.537-6.721-3.167-1.7-35.21-5.332-36.452-1.782-6.868,19.621-18.34,40.206-27.47,61.806-6.766,16.007-10.587,20.737-18.639,36.3-10.068,19.456-27.371,20.074-48.821,20.72-12.875.387-25.038-2.358-36.864-6.694-20.757-7.61-23.744-11.752-44.616-19.122l0-.014c-.17-.058-.335-.108-.505-.165-.425-.148-.844-.307-1.272-.451v.036c-1.079-.345-2.152-.677-3.213-.988q-3.394-.994-6.657-1.738c-1.094-.25-2.172-.472-3.242-.682-1.551-.3-3.084-.579-4.585-.806a99.416,99.416,0,0,0-12.111-1.081c-.332-.01-.663-.016-.992-.022-3.17-.055-6.183.048-9.032.276-1.621.13-3.2.292-4.707.493-1.329.178-2.606.384-3.849.606-2.441.438-4.711.95-6.8,1.506a70.838,70.838,0,0,0-14.344,5.426c-.9.467-1.566.848-2,1.106-.2.123-.4.249-.6.373-9.225,5.693-20.364,18.392-27,27.307C115.493,637.4,109.581,649.072,104.152,660.958Z" transform="translate(-35.789 -147.79)" fill="#e62276"></path><path id="Path_4146" data-name="Path 4146" d="M496.832,563.559s16.908-28.315,46.339-24.391,91.236,58.862,91.236,58.862l-53.021-79.9-51.1-13.945-35.393,11.9Z" transform="translate(-80.12 -148.097)" fill="#e62276"></path><path id="Path_4147" data-name="Path 4147" d="M683.4,558.913s95.161,86.331,153.249,31.42c9.884-9.344,14.151-20.036,17.1-28.8,8.379-24.917-3.729-52.493-27.912-62.8-12.946-5.52-29.556-6.023-46.46,11.328,0,0-4.776,5.591-1.663-.609s12.246-14.189,12.246-14.189,11.932-12.018,32.837-9.441c15.838,1.953,44.271,18.809,51.474,54.869,5.17,25.886-10.463,63.209-46.862,88.093-36.543,24.983-92.874,14.306-122.424,3.713C615.754,600.5,584.319,514.765,584.319,514.765Z" transform="translate(-88.893 -146.259)" fill="#e62276"></path><path id="Path_4148" data-name="Path 4148" d="M438.1,406.291s6.674,78.2-17.677,76.4,43.291,24.351,43.291,24.351l10.044-53.018-10.044-38.073Z" transform="translate(-72.295 -138.493)" fill="#e62276"></path></g><path id="Path_4151" data-name="Path 4151" d="M8251.656,14046.26c-35.139-50.387-128.211-183.722-128.211-183.722" transform="translate(-2207.495 -15100.045) rotate(16)" fill="none" stroke="#142144" stroke-linecap="round" stroke-width="6"></path><g id="Group_1156" data-name="Group 1156" transform="matrix(0.996, 0.087, -0.087, 0.996, 2036.559, 840.038)"><path id="Path_4061" data-name="Path 4061" d="M-1157.859-1076.833l-18.5,58.46,28.5-13.607Z" transform="translate(1274.884 1104.147)" fill="#b2cacc"></path><path id="Path_4062" data-name="Path 4062" d="M-1180.5-1077.21l18.5,58.46-31.366-13.607Z" transform="translate(1254.971 1103.707)" fill="#b2cacc"></path><g id="Group_1123" data-name="Group 1123" transform="translate(63.885 44.964)"><path id="Path_4063" data-name="Path 4063" d="M-1158.157-1009.542c-.262,0-.521-.024-.781-.048-1.04-.048-2.082-.1-3.145-.189l-.782-.072c-1.891-.117-3.783-.284-5.7-.473-.33-.024-.684-.072-1.016-.117-1.324-.143-2.648-.26-3.972-.426-.1-.024-.213-.024-.308-.048-.97-.119-1.938-.237-2.885-.38l.4-1.939.947-4.565,3.595-17.6,1.654-8.136.545-2.648v-.024l.356-1.632.543-2.577v-.024l2.768-13.528.662,8.136v.048l.827,10.122v.024l.521,6.48.048.662Z" transform="translate(1210.546 1074.25)" fill="#191818" opacity="0.1" style="mix-blend-mode: multiply;isolation: isolate"></path><path id="Path_4064" data-name="Path 4064" d="M-1143.869-1015.775l-.782-.072c-1.891-.117-3.784-.284-5.7-.473-.33-.024-.684-.072-1.016-.117-1.324-.143-2.648-.26-3.972-.426-.1-.024-.213-.024-.308-.048-.97-.119-1.938-.237-2.885-.38-.26-.022-.5-.07-.758-.094q-8.691-1.172-17.359-3.028c-.779-.165-1.537-.33-2.316-.519q-4.474-.961-8.917-2.13c-.426-.117-.827-.213-1.255-.354-1.064-.26-2.1-.569-3.167-.877l.282-1.348,4.281-18.66,1.4-5.959v-.024l.686-2.957.614-2.648v-.024l.356-1.609.117-.545.189-.779,15.373.378,17.195.449h.024l1.04.024.26,1.561v.024l.425,2.7.285,1.678.449,2.792.875,5.392v.024Z" transform="translate(1192.331 1080.246)" fill="#5f2900"></path><path id="Path_4065" data-name="Path 4065" d="M-1188.986-1068.7l-1.493,21.7,40.817,5.17,1.372-25.834Z" transform="translate(1194.469 1068.702)" fill="#5f2900"></path><path id="Path_4066" data-name="Path 4066" d="M-1152.895-1049.225l-1.437-8.771-33.626-.85-1.3,5.62Z" transform="translate(1195.901 1080.241)" opacity="0.36"></path><path id="Path_4067" data-name="Path 4067" d="M-1190.544-1066.936l-1.453,19.784,48.11,5.294,1.25-23.559Z" transform="translate(1192.692 1070.77)" fill="#5f2900"></path><path id="Path_4068" data-name="Path 4068" d="M-1178.952-1028.774c.779.189,1.537.354,2.316.519q8.658,1.846,17.359,3.028c.26.024.5.072.758.094.946.143,1.915.26,2.885.38.1.024.213.024.308.048l-2.792-2.366-5.77-4.919-23.841-20.151-4.281,18.659-.308,1.348h.026c1.064.308,2.1.617,3.167.877" transform="translate(1192.317 1088.09)" fill="#843a00"></path></g><path id="Path_4069" data-name="Path 4069" d="M-1167.39-1063.506s84.422-4.89,109.514-25.829v47.029l-95.573,44.5-14.388-64.389Z" transform="translate(1284.861 1089.511)" fill="#c9e4e7"></path><path id="Path_4070" data-name="Path 4070" d="M-1147.725-1064.227s-42.931-4.259-68.287-25.189l-5.735,45.371,58.452,39.983,16.018-58.857Z" transform="translate(1221.747 1089.416)" fill="#c9e4e7"></path></g><path id="Path_4153" data-name="Path 4153" d="M8478.563,14313.027l-18.7,55.644,22.783,30.34,48.5-14.9-5.23-58.395Z" transform="translate(-6387 -13367)" fill="#5f2900"></path><path id="Path_4154" data-name="Path 4154" d="M8484.607,14293.837l42,41.119,3.084,32.915-52.276-51.9Z" transform="translate(-6387 -13367)" fill="#843a00"></path><path id="Path_4155" data-name="Path 4155" d="M8484.9,14294.166l51.182,52.241-19.579,6.264-38.629-36.3Z" transform="matrix(1, 0.017, -0.017, 1, -6149.597, -13473.225)" fill="#843a00"></path></g><g id="Group_1282" data-name="Group 1282"><path id="Path_4152-2" data-name="Path 4152" d="M8247.943,14040.964l46.984,64.369" transform="translate(-2207.495 -15100.045) rotate(16)" fill="none" stroke="#142144" stroke-linecap="round" stroke-width="13"></path><g id="Group_1150-2" data-name="Group 1150" transform="translate(1678.418 545.37)"><g id="Group_1133-2" data-name="Group 1133" transform="translate(556.71 159.545)"><g id="Group_1132-2" data-name="Group 1132"><path id="Path_4087-2" data-name="Path 4087" d="M796.479,349.123c-4.342,19.595-3.592,39.395-3.727,59.18-.111,16.191-.781,32.3-6.205,47.861-8.769,25.157-22.985,34.9-53.623,36.992-23.77,1.622-47.143-.793-70.274-5.914-8.414-1.862-8.971-1.787-10.382,6.694l10.163,34.215.006,0c.432-.133.767-.252,1.047-.316.032-.007.068-.017.1-.023a1.394,1.394,0,0,1,.342-.027,21.726,21.726,0,0,1,3.038.43q6.039,1.253,12.051,2.1c.42.06.841.111,1.261.169,2.924.4,5.842.708,8.756.963a182.529,182.529,0,0,0,63.714-5.64q6.026-1.617,12.018-3.64a78.656,78.656,0,0,0,16.809-7.917,69.985,69.985,0,0,0,16.694-14.618,94.312,94.312,0,0,0,10.481-15.513q1.084-2.01,2.06-4.052c6.724-14.046,9.766-29.238,10.717-45.114.063-1.05.13-2.1.174-3.154v-.006c.027-.647.071-1.293.109-1.933,0-.06.007-.119.011-.179,0-.044,0-.089.007-.133l.047-.05.005-.041c.006-.039.017-.115.03-.207.01-.073.023-.161.037-.266s.032-.231.051-.371c.01-.075.02-.155.031-.238.019-.143.039-.3.06-.464.028-.218.057-.454.088-.711.005-.043.01-.085.015-.13.539-4.5,1.489-14.365.56-21.914v0c-.015-.344-.027-.685-.053-1.038-.827-11.158-.023-22.488.873-33.686q.129-1.6.313-3.171c.117-.991.255-1.974.407-2.953.048-.3.1-.606.156-.91.113-.671.229-1.34.359-2,.046-.235.1-.469.147-.7.026-.127.052-.255.079-.382.127-.6.259-1.2.4-1.792.091-.383.188-.764.285-1.145q.222-.862.464-1.717.158-.559.324-1.115.262-.863.548-1.716c.118-.357.234-.716.358-1.071.214-.609.443-1.212.675-1.815.116-.3.226-.609.348-.911.363-.9.741-1.8,1.146-2.681q.526-1.153,1.1-2.287.5-.993,1.044-1.972c.027-.05.058-.1.085-.147q-.584,1.052-1.129,2.119.543-1.069,1.131-2.121c.127-.227.261-.451.391-.676.271-.473.546-.947.831-1.415.161-.265.329-.529.5-.791.27-.427.542-.853.823-1.276.181-.274.368-.546.555-.818q.423-.616.866-1.226c.195-.27.391-.538.591-.806q.463-.618.946-1.228c.2-.253.4-.506.6-.758.358-.442.73-.879,1.1-1.316.18-.209.354-.42.536-.628.564-.641,1.14-1.278,1.737-1.907-.6.628-1.172,1.263-1.734,1.9q.843-.96,1.734-1.9c.018-.019.039-.036.057-.055q.473-.492.981-.944c.145-.129.3-.247.449-.372.216-.18.431-.364.655-.536.2-.151.4-.292.6-.437.183-.132.364-.266.551-.393.247-.168.5-.329.751-.49.143-.092.284-.186.429-.275q.476-.295.961-.578l.208-.124c1.377-.8,2.787-1.558,4.155-2.36l.012-.007v0s17.017-8.142,34.3-5.026c.139.044.287.082.433.121a8.146,8.146,0,0,0,.883.19c.507.078,1,.187,1.484.3q.982.25,1.962.554h0c.2.069.406.142.607.216h0c.648.24,1.285.5,1.9.786.133.063.267.124.4.189a30.115,30.115,0,0,1,4.123,2.475c.154.11.308.219.461.331.636.464,1.264.941,1.878,1.439,13.9,11.294,18.853,26.222,19.3,43.052.525,19.724-6.572,37.738-13.067,55.892q-.809,2.262-1.6,4.529c-.164.471-.306.942-.46,1.412q-.6,1.837-1.107,3.674c-.135.5-.271.991-.4,1.486q-.6,2.4-1.043,4.788v0c-.26,1.415-.469,2.827-.643,4.237-.013.111-.031.223-.044.334-.159,1.346-.273,2.687-.355,4.025-.011.171-.024.342-.033.512-.07,1.3-.1,2.6-.1,3.889,0,.2,0,.4,0,.6q.02,1.91.146,3.8c.014.208.028.416.044.623q.141,1.889.385,3.756c.026.2.055.391.082.587.176,1.258.383,2.508.63,3.749.033.163.069.326.1.49.262,1.272.555,2.535.888,3.786.029.106.061.21.09.317.356,1.307.746,2.6,1.182,3.885l0,.01c.437,1.284.917,2.551,1.431,3.807.04.1.078.2.119.3.5,1.2,1.034,2.377,1.6,3.546.073.15.143.3.217.452q.84,1.7,1.781,3.356c.1.172.194.345.293.517q.942,1.63,1.98,3.214c.114.174.227.346.343.52q1.052,1.577,2.2,3.106c.12.16.243.317.363.477q1.174,1.538,2.44,3.025c.112.13.226.258.339.388q1.315,1.517,2.725,2.975c.078.081.16.16.238.24.994,1.013,2.017,2.007,3.082,2.973-1.063-.965-2.086-1.958-3.079-2.97.993,1.012,2.015,2,3.079,2.97a77.325,77.325,0,0,0,11.582,8.673,27.239,27.239,0,0,0,10.875-.426l-.478-2.065c-20.5-8.566-29.482-27.146-25.012-51.654,2.578-14.134,8.854-27.041,14.541-40.151,13.828-31.876,15.858-63.8-1.65-94.957-10.984-19.548-28.315-32.8-51.767-35.086C836.657,282.456,806.054,305.9,796.479,349.123ZM916.643,496.25c.876,1.009,1.779,2,2.719,2.97C918.422,498.252,917.519,497.259,916.643,496.25Zm-2.777-3.411q1.172,1.534,2.432,3.016Q915.034,494.375,913.866,492.839Zm-2.56-3.583q1.048,1.572,2.188,3.094Q912.353,490.829,911.306,489.256Zm-2.322-3.734q.938,1.623,1.971,3.2Q909.923,487.145,908.983,485.522Zm-2.075-3.873q.836,1.692,1.773,3.341Q907.748,483.341,906.908,481.65Zm-1.818-4c.494,1.191,1.029,2.367,1.593,3.531C906.119,480.017,905.584,478.841,905.09,477.65Zm-1.546-4.1c.432,1.274.91,2.533,1.42,3.78C904.454,476.087,903.976,474.829,903.544,473.554Zm-1.188-3.9c.354,1.3.742,2.588,1.173,3.862C903.1,472.24,902.711,470.951,902.356,469.653Zm-.979-4.1c.262,1.267.553,2.526.887,3.773C901.93,468.076,901.638,466.817,901.377,465.55Zm-.733-4.243c.176,1.254.382,2.5.628,3.738C901.026,463.808,900.819,462.562,900.644,461.307Zm-.468-4.344q.142,1.883.385,3.747Q900.316,458.848,900.175,456.964Zm-.19-4.428q.02,1.908.146,3.8Q900.008,454.442,899.985,452.536Zm.1-4.487c-.07,1.3-.1,2.592-.1,3.881C899.982,450.641,900.011,449.347,900.082,448.049Zm.39-4.54c-.16,1.343-.274,2.683-.355,4.019C900.2,446.192,900.312,444.852,900.471,443.509Zm.686-4.572c-.26,1.414-.469,2.826-.642,4.235C900.689,441.763,900.9,440.351,901.158,438.937Zm-75.447-81.545,0-.012c-.095.372-.188.743-.278,1.117C825.524,358.126,825.617,357.759,825.711,357.391Zm.79-2.844h0l-.008.027Zm.906-2.787,0,0c-.122.348-.235.7-.352,1.048l0-.009C827.175,352.451,827.286,352.1,827.406,351.761Zm.7-1.872c.085-.22.168-.442.253-.662-.091.229-.175.46-.263.69Zm9.813-16.956c.351-.433.714-.861,1.08-1.288C838.63,332.072,838.266,332.5,837.915,332.933Zm-1.545,1.984c.3-.4.611-.8.924-1.2C836.981,334.115,836.672,334.515,836.37,334.917Zm-1.457,2.032q.415-.6.85-1.2Q835.33,336.344,834.914,336.949Zm-1.378,2.092c.266-.421.534-.841.811-1.257C834.07,338.2,833.8,338.62,833.536,339.042Zm-1.326,2.2c.268-.467.538-.934.821-1.4C832.748,340.311,832.478,340.778,832.21,341.245Z" transform="translate(-652.269 -286.262)" fill="#c1356a"></path></g><path id="Path_4088-2" data-name="Path 4088" d="M886.466,320.817c.138.044.285.084.433.121a8.146,8.146,0,0,0,.883.19c.489.076.962.18,1.435.288.672.17,1.342.361,2.012.567.2.069.406.142.607.216.648.24,1.285.5,1.9.786.133.063.267.124.4.189a30.115,30.115,0,0,1,4.123,2.475c.154.11.308.219.461.331.636.464,1.264.941,1.878,1.439,13.9,11.294,18.853,26.222,19.3,43.052.525,19.724-6.572,37.738-13.067,55.892q-.809,2.262-1.6,4.529c-.164.47-.306.942-.46,1.412q-.6,1.837-1.107,3.674c-.135.5-.271.991-.4,1.486q-.6,2.4-1.043,4.788a67.88,67.88,0,0,0,21.525,63.5,77.325,77.325,0,0,0,11.582,8.673c-6.442,1.521-12.385-1.531-18.631-1.908a5.66,5.66,0,0,1-4.724-3.465c-2.653-6.631-8.857-10.885-11.946-17.381-7.421-15.609-14.9-30.952-8.712-48.738a9.511,9.511,0,0,0,.021-6.484c-3.285-7.267-.352-12.735,4.692-17.892,2.317-2.37,4.638-5.5,3.261-8.471-3.005-6.5-.523-11.377,3.816-15.883,3.48-3.613,3.967-7.506,1.118-11.212-3.151-4.1-3.458-8.828-1.448-12.5,3.122-5.712,2.2-8.92-3.01-12.8-4.255-3.175-1.968-9.748-4.245-13.34-2.384-3.761-10.586-.558-13.97-5.47-2.115-3.07-3.274-2.7-5.608-.176-3.193,3.447-6.914,5.323-11.254,4.867-5.192,1.168-8.918,9-8.918,9l-.008,0c1.668,2.081-.042,3.671-4.873,8.016-1.494,1.345-3.663,2.064-2.008,4.585,3.96,6.03,1.118,11.208-2.812,15.8-2.345,2.736-2.751,4.8-.809,7.8,3.415,5.294,2.859,10.891-.223,16.06-1.876,3.147-2,5.525-.057,8.765,3.9,6.5,4.7,13.117.2,20.1a10.5,10.5,0,0,0-.275,11.707c4.336,6.734,3.682,13.451-2.257,19.112-3.359,3.2-4.018,6.037-1.556,10.217,3.488,5.922.437,17.025-5.886,20.2-5.368,2.693-6.55,5.708-5.334,11.158,1.67,7.486-5.194,18.741-11.257,18.41-6.27-.344-7.837,3.01-9.427,7.357-2.768,7.567-8.311,12.32-16.647,13.571-3.977.6-7.6,1.683-10.114,4.629-6.217,7.281-13.6,11.519-23.881,9.809a6.694,6.694,0,0,0-6.3,2.112c-5.974,7.327-15.049,7.9-23.435,9.658-3.643.766-7.8.44-10.553-2.954-2.579-3.18-4.869-3.191-7.068.39-2.4,3.913-6.255,4.536-10.646,4.4-10.154-.312-19.833-1.772-27.578-8.832l-9.819-33.058c.132-.036.238-.071.354-.106l.006,0c.432-.133.767-.252,1.047-.316.032-.007.068-.017.1-.023a1.4,1.4,0,0,1,.342-.027,21.726,21.726,0,0,1,3.038.43q6.039,1.253,12.051,2.1c.42.06.841.111,1.261.169,2.924.4,5.842.708,8.756.963a182.529,182.529,0,0,0,63.714-5.64q6.026-1.617,12.018-3.64a78.659,78.659,0,0,0,16.809-7.917,69.985,69.985,0,0,0,16.694-14.618,94.312,94.312,0,0,0,10.481-15.513q1.084-2.01,2.06-4.052c6.724-14.046,9.766-29.238,10.717-45.114.063-1.05.13-2.1.174-3.154v-.006c.027-.647.071-1.293.109-1.933,0-.06.007-.119.011-.179,0-.044,0-.089.007-.133l.047-.05s2.12-14.246.877-24.342c-.015-.345-.027-.687-.053-1.04-.827-11.158-.023-22.488.873-33.686q.129-1.6.313-3.171a69.558,69.558,0,0,1,5.7-20.916q.526-1.153,1.1-2.287a63.039,63.039,0,0,1,10.6-14.966c.018-.019.039-.036.057-.055q.473-.492.981-.944c.145-.129.3-.247.449-.372.216-.18.431-.364.655-.536.2-.151.4-.292.6-.437.183-.132.364-.266.551-.393.247-.168.5-.329.751-.49.143-.092.284-.186.429-.275q.476-.295.961-.578l.208-.124c1.377-.8,2.787-1.558,4.155-2.36l.012-.007v0S869.182,317.7,886.466,320.817Z" transform="translate(-653.336 -289.582)" fill="#dd7a90"></path></g><g id="Group_1136-2" data-name="Group 1136" transform="translate(50.967 67.191)"><g id="Group_1134-2" data-name="Group 1134" transform="translate(73.27 23.189)"><path id="Path_4089-2" data-name="Path 4089" d="M175.726,218.757c.2-.152.4-.3.6-.433C176.122,218.461,175.922,218.605,175.726,218.757Z" transform="translate(-173.044 -210.432)" fill="none"></path><path id="Path_4090-2" data-name="Path 4090" d="M176.394,218.243a12.487,12.487,0,0,1,1.29-.746A12.393,12.393,0,0,0,176.394,218.243Z" transform="translate(-173.109 -210.351)" fill="none"></path><path id="Path_4091-2" data-name="Path 4091" d="M197.716,255.129a19.628,19.628,0,0,0,2.759,15.108c8.531,13.048,23.176,14.282,36.84,3.083a37.939,37.939,0,0,1,4.518-3.646,28.576,28.576,0,0,0,4.424-7.294c.522-1.647.989-3.16,1.328-4.679,2.943-13.228-.008-25.049-9.714-34.524-16.4-16.013-35.5-16.595-55.667-8.437-1.594.645-3.317,1.189-4.877,1.98a12.487,12.487,0,0,0-1.29.746c-.207.137-.407.281-.6.433s-.383.313-.565.482a7.833,7.833,0,0,0-1.006,1.133,7.677,7.677,0,0,0-.428.664,8.163,8.163,0,0,0-.683,1.549h0c8.908-7.387,20.652-1.138,30.185-6.275,2.661-1.433,4.526,3.349,7.493,3.473,13.668.574,22.6,7.292,26.863,20.3.285.869,1.161,1.536,1.733,2.317,4.217,5.761.791,21.816-5.7,24.715-2.772,1.238-4.84,3.1-7.107,4.818-2.523,1.909-18.245-2.2-19-5.259-1.39-5.657-7.141-10.262-4.145-17.027.161-.364-.711-1.188-1.1-1.8q-.534.583-1.01,1.2A18.044,18.044,0,0,0,197.716,255.129Z" transform="translate(-172.752 -209.573)" fill="#f28b9d"></path><path id="Path_4092-2" data-name="Path 4092" d="M173.984,220.471a7.833,7.833,0,0,1,1.006-1.133A7.833,7.833,0,0,0,173.984,220.471Z" transform="translate(-172.873 -210.531)" fill="#915dbd"></path><path id="Path_4093-2" data-name="Path 4093" d="M173.435,221.33a8.146,8.146,0,0,0-.683,1.55h0A8.162,8.162,0,0,1,173.435,221.33Z" transform="translate(-172.752 -210.727)" fill="#915dbd"></path><path id="Path_4094-2" data-name="Path 4094" d="M175.1,219.286q.273-.253.565-.482Q175.372,219.033,175.1,219.286Z" transform="translate(-172.982 -210.479)" fill="#915dbd"></path><path id="Path_4095-2" data-name="Path 4095" d="M200.432,259.331a18.044,18.044,0,0,1,3.246-6.936A18.044,18.044,0,0,0,200.432,259.331Z" transform="translate(-175.468 -213.775)" fill="#915dbd"></path><path id="Path_4096-2" data-name="Path 4096" d="M204.031,252.264q.475-.621,1.01-1.2h0Q204.507,251.642,204.031,252.264Z" transform="translate(-175.821 -213.644)" fill="#915dbd"></path></g><g id="Group_1135-2" data-name="Group 1135"><path id="Path_4097-2" data-name="Path 4097" d="M238.581,418.929l-.018,0,.006.005Z" transform="translate(-105.938 -206.924)" fill="none"></path><path id="Path_4098-2" data-name="Path 4098" d="M224.879,436.329c-1.908-.656-3.556-1.252-4.886-1.749C221.37,435.614,223.16,435.906,224.879,436.329Z" transform="translate(-104.116 -208.46)" fill="#e62276"></path><path id="Path_4099-2" data-name="Path 4099" d="M356.535,502.114a10.33,10.33,0,0,1-.624-1.1c-.014-.027-.029-.053-.041-.08a11.58,11.58,0,0,1-.5-1.217c-2.511-4.027-6.063-10.32-11.081-20.053a124.9,124.9,0,0,0-12.4-17.675l-.035-.041q-.924-1.092-1.871-2.151l-.156-.174q-.892-.994-1.8-1.958l-.281-.3q-.858-.9-1.733-1.779l-.4-.4q-.825-.817-1.666-1.611c-.173-.164-.348-.326-.522-.489-.53-.492-1.064-.981-1.6-1.461q-.317-.281-.637-.559-.764-.668-1.539-1.32c-.252-.21-.506-.418-.76-.626-.488-.4-.979-.8-1.475-1.187-.29-.228-.583-.452-.877-.676-.469-.36-.94-.717-1.415-1.067-.327-.242-.659-.478-.99-.715-.45-.322-.9-.644-1.356-.957-.368-.253-.739-.5-1.11-.748-.429-.286-.859-.573-1.293-.851-.407-.262-.818-.515-1.23-.77s-.817-.508-1.23-.755c-.446-.266-.9-.524-1.35-.784-.389-.223-.776-.447-1.168-.665-.488-.27-.981-.53-1.475-.792-.367-.194-.732-.391-1.1-.58-.528-.27-1.061-.529-1.595-.788-.347-.17-.693-.342-1.043-.507-.567-.266-1.141-.522-1.714-.777-.327-.145-.652-.295-.981-.437-.6-.261-1.216-.51-1.828-.757-.31-.126-.618-.256-.931-.379-.64-.252-1.29-.491-1.94-.729-.293-.107-.583-.219-.877-.324-.676-.239-1.36-.466-2.045-.691-.28-.092-.556-.189-.836-.279-.709-.226-1.428-.438-2.147-.649-.265-.077-.527-.16-.794-.235-.733-.208-1.476-.4-2.221-.593-.262-.069-.521-.142-.785-.207-.75-.187-1.51-.358-2.27-.529-.268-.06-.53-.125-.8-.184-.742-.16-1.493-.3-2.246-.45-.3-.057-.592-.121-.891-.177-.693-.126-1.4-.239-2.1-.353-.368-.06-.731-.127-1.1-.184-.547-.083-1.1-.151-1.654-.227s-1.07-.153-1.613-.219l-.069-.008q-1.583-.191-3.2-.341c-1.674-.156-3.345-.352-5.015-.562-3.446-.434-6.884-.96-10.319-1.519-4.7-.764-9.4-1.574-14.11-2.244-4.307-.621-8.253-3.585-12.513-4.513a10.3,10.3,0,0,0-5.31.161c.019-.005.038-.015.056-.02-1.913-.575-3.706-1.144-5.348-1.687.088.043.172.1.259.142-2.4-1.3-5.643-1.059-7.747-2.889-22.8-7.858-41.884-21.516-59.715-37.409-21.151-18.852-32.481-43.44-38.809-69.923-4.723-19.761-4.1-40.378,4.723-59.725.94-2.06,3.028-3.97,1.724-6.667-6.024-.947-5.539,3.981-6.489,7.4-.608,2.191.628,5.5-2.617,6.038-8.059,1.336-7.056,7.03-5.571,12.1.876,2.986.439,4.586-.995,7.141a90.491,90.491,0,0,0-7.117,16.235c-1.179,3.633-1.124,7.889,1.916,10.963,2.753,2.784,2.791,4.911.326,8.062-3.4,4.345-2.813,11.2.777,12.94,5.649,2.737,3.808,5.546,2.885,9.1-1.885,7.26.856,13.009,6.605,16.972,3.85,2.653,4.9,5.612,5.53,10.078,1.115,7.876,3.608,15.225,12.125,19.149,4.678,2.155,8.078,6.062,7.553,12.613-.733,9.16,8.537,16.962,17.9,16.488,3.719-.189,4.971,1.384,3.094,5.481-2.93,6.394,2.072,9.923,6.4,12.948,4.264,2.977,9.021,6.684,14.255,1.711,3.68-3.5,5.376.727,7.87,1.643,3.268,1.2,1.817,2.818.463,4.9-2.584,3.963-1.37,7.352,2.563,9.839,7.056,4.46,15.428,4.371,22.086-.772,2.208-1.705,3.923-1.136,6.02-.551,3.1.863,1.5,2.89,1.3,4.656-.423,3.825,1.045,7.254,4.708,8.041,7.652,1.646,15.688,4.177,22.522-2.461,2.384-2.314,4-1.729,5.7.929,5.791,9.083,14.538,11.955,24.639,8.48,3.877-1.334,6.814-.823,6.053,4.448-.484,3.359.041,6.614,3.272,8.186,5.957,2.9,11.46,7.524,18.859,5.9,3.576-.786,5.613,1.675,4.923,4.268-3.013,11.324,6.163,16.191,12.534,20.38,5.062,3.329,8.274,6.8,10.566,11.776,2.772,6.02,7.02,7.695,12.929,4.82,8.478-4.126,16.946-8.3,23.732-15.095l0,0,0,0c-.308-.124-.616-.248-.9-.378s-.52-.253-.767-.385l-.073-.037c-.107-.058-.206-.119-.309-.179-.164-.093-.33-.186-.485-.283-.06-.037-.115-.078-.173-.115-.193-.125-.382-.253-.561-.383l-.035-.028a10.139,10.139,0,0,1-2.474-2.582Z" transform="translate(-91.511 -189.525)" fill="#f28b9d"></path><path id="Path_4100-2" data-name="Path 4100" d="M227.715,437.295a11.547,11.547,0,0,0-2.305-.776Q226.507,436.9,227.715,437.295Z" transform="translate(-104.648 -208.65)" fill="#e62276"></path><path id="Path_4101-2" data-name="Path 4101" d="M219.283,434.2c-1.17-.4-2.322-.831-3.472-1.264l-.019,0s1.374.575,3.789,1.48c-.1-.075-.2-.143-.294-.225C219.322,433.876,219.324,433.88,219.283,434.2Z" transform="translate(-103.704 -208.298)" fill="#e62276"></path><path id="Path_4102-2" data-name="Path 4102" d="M170.8,188.7c-23.824,9.382-41.226,25.76-54.246,47.338,1.3,2.7-.785,4.607-1.724,6.667-8.826,19.347-9.446,39.964-4.723,59.725,6.329,26.483,17.658,51.071,38.809,69.923,16.917,15.079,34.972,28.134,56.243,36.146,1.15.434,2.3.861,3.472,1.264.041-.318.039-.323,0-.005.094.082.2.151.294.225,1.329.5,2.977,1.093,4.886,1.749a11.548,11.548,0,0,1,2.305.776c1.642.543,3.435,1.111,5.348,1.687a167.238,167.238,0,0,0,29.719,6.263v0q1.08.179,2.159.355c3.436.558,6.874,1.084,10.319,1.519,1.669.209,3.341.4,5.015.56q1.613.15,3.2.343l.069.008c.543.066,1.075.146,1.613.219s1.108.144,1.654.227c.37.057.733.124,1.1.184.7.114,1.406.226,2.1.353.3.056.593.12.891.177.752.145,1.5.29,2.246.45.268.059.53.124.8.184.76.17,1.52.343,2.27.529.263.066.522.139.785.207.745.192,1.488.385,2.221.593.267.076.529.159.794.235.72.211,1.439.423,2.147.649.28.089.556.187.836.279.685.225,1.369.452,2.045.691.294.1.584.216.877.324.65.238,1.3.477,1.94.729.313.123.62.253.931.379.611.247,1.224.5,1.828.757.329.142.654.291.981.437.574.255,1.147.511,1.714.777.35.165.7.337,1.043.507.534.259,1.067.519,1.595.788.37.189.735.386,1.1.58.493.262.987.522,1.475.792.392.217.779.442,1.168.665.452.26.9.518,1.35.784.413.247.822.5,1.23.755s.823.509,1.23.77c.435.279.864.565,1.293.851.371.247.742.494,1.11.748.455.313.906.635,1.356.957.331.237.663.474.99.715.475.35.946.707,1.415,1.067.293.225.586.448.877.676.5.39.987.787,1.475,1.187.253.208.509.416.76.626q.777.651,1.539,1.32.319.279.637.559c.539.48,1.073.969,1.6,1.461.174.163.349.325.522.489q.841.793,1.666,1.611l.4.4q.877.877,1.733,1.779l.281.3q.91.965,1.8,1.958l.156.174q.947,1.059,1.871,2.151l.035.041q1.656,1.958,3.24,4.02l.1.131A129.323,129.323,0,0,1,345.828,474c5.017,9.732,8.57,16.026,11.081,20.053l.008.013a10.815,10.815,0,0,0,.491,1.2c.013.027.028.053.041.08a10.009,10.009,0,0,0,.624,1.1l.013.017a9.882,9.882,0,0,0,1.854,2.082c.195.171.4.338.62.5l.035.028c.178.132.369.258.561.383.059.038.113.078.173.115.154.1.321.189.485.283.1.06.2.122.309.179l.073.037a16.2,16.2,0,0,0,1.667.761c.862-.851,1.733-1.693,2.571-2.555,16.052-16.551,16.269-16.662,6.243-36.868-14.428-29.093-34.187-52.717-66.367-63.4-22.22-7.385-45.419-9.109-68.313-12.607v.005a77.427,77.427,0,0,0-17.7-5.717c-5.059-2.246-10.223-4.284-15.16-6.772-37.709-19.008-62.791-48.084-69.719-90.517-4.38-26.831,9.282-53.332,30.9-63.2a8.146,8.146,0,0,1,.683-1.55,7.677,7.677,0,0,1,.428-.664,7.833,7.833,0,0,1,1.006-1.133q.273-.253.565-.482c.2-.152.4-.3.6-.433a12.393,12.393,0,0,1,1.29-.746c1.559-.791,3.283-1.335,4.877-1.98,20.169-8.158,39.263-7.576,55.667,8.437,9.706,9.474,12.657,21.3,9.714,34.524-.338,1.519-.805,3.032-1.328,4.679a28.576,28.576,0,0,1-4.424,7.294,37.935,37.935,0,0,0-4.518,3.646c-13.664,11.2-28.309,9.965-36.84-3.083a19.628,19.628,0,0,1-2.759-15.108,18.044,18.044,0,0,1,3.246-6.936q.475-.621,1.01-1.2c2.08-4.151,6.106-6.551,9.336-9.881-1.434-1.11-2.512-.614-3.656-.184-14.25,5.347-22.294,20.745-18.8,36.034,3.7,16.191,20.142,28.114,36.325,26.17a41.74,41.74,0,0,0,26.561-13.63q1.755-1.487,3.51-2.973a28.224,28.224,0,0,0,6.151-8.363c1.765-3.793,5.3-6.945,4.244-11.758a34.448,34.448,0,0,0,3.4-10.311c1.2-7.371.036-14.835-2.2-22.159C249.841,192.748,206.813,174.516,170.8,188.7Zm54.895,207.168-.012,0-.006-.005Z" transform="translate(-93.049 -183.862)" fill="#e62276"></path></g></g><g id="Group_1138-2" data-name="Group 1138" transform="translate(334.67 0)"><g id="Group_1137-2" data-name="Group 1137"><path id="Path_4103-2" data-name="Path 4103" d="M709.216,206.11q-1.307-4.045-2.823-7.907c-1.868-5.983-6.77-18.441-18.188-32.373-13.538-17.5-31.474-30.884-53.257-40.462a183.263,183.263,0,0,0-37.485-11.811c-.028-.014-.07-.014-.1-.029q-9.186-1.853-18.539-2.836c-3.693-.38-7.4-.675-11.123-.857-3.947-.211-7.907-.352-11.84-.436-.253,0-.492-.014-.744,0-20.646-.337-41,1.558-60.393,9.93-2.078.9-4.129,1.853-6.18,2.907q-4.149,2.128-8.117,4.509a103.646,103.646,0,0,0-28.048,24.283c-1.208,1.488-2.345,3.02-3.426,4.592-.225.337-.464.66-.675,1-.182.266-.365.533-.533.8-21.91,32.485-31.98,69-31.741,108.565a214.165,214.165,0,0,0,4.34,39.663c4.578,12.387,12.682,38.89,16.867,71.515,3.535,27.559,4.251,59.488-2.343,90.953A190.522,190.522,0,0,1,421.6,508.842a179.934,179.934,0,0,1-15.52,29.494h65.659s33.051-28.66,36.035-30.7c34.272-23.449,139.945,30.7,139.945,30.7l27.959-8.117c-.245.1-7.044-8.016-13.258-15.384a71.623,71.623,0,0,1-14.464-27.785c-4.408-16.581-7.009-29.872-.531-48.741,7.753-22.57,20.786-42.246,33.483-62.105,16.249-25.393,30.252-51.937,34.633-82.007C719.848,264.605,718.6,235.013,709.216,206.11Z" transform="translate(-406.076 -109.361)" fill="#e62276"></path></g></g><g id="Group_1142-2" data-name="Group 1142" transform="translate(372.996 66.158)"><g id="Group_1139-2" data-name="Group 1139"><path id="Path_4104-2" data-name="Path 4104" d="M626.393,366.293A101.816,101.816,0,0,1,588.971,389.1c-3.287-1.493-5.854-4.164-9.174-5.605-17.72-9.618-35.4-8.332-53.037.21a72.866,72.866,0,0,0-6.65,3.594,4.246,4.246,0,0,1-2.7.832c-13.853-4.564-27.215-10.123-38.859-19.166,1.322-1.978,3.637-2.237,5.563-3.081a158.9,158.9,0,0,1,48.143-13,11.139,11.139,0,0,1,3.222-.059c.818.152-.133-.712.376-.841a4.025,4.025,0,0,1,2.853-.3c10.411,1.2,20.842.413,31.265.368a12.88,12.88,0,0,1,4.356.289c6.76,1.1,13.593,1.77,20.259,3.362a206.367,206.367,0,0,1,29.506,8.906A3.58,3.58,0,0,1,626.393,366.293Z" transform="translate(-451.512 -199.281)" fill="#941a2f"></path><path id="Path_4105-2" data-name="Path 4105" d="M574.506,350.106c-12.7.3-25.408.767-38.1-.325-4.461.939-8.759-.383-13.005-1.259-6-1.239-12.041-2.349-17.757-4.923-8.09-3.645-13.911-9.63-18.926-16.637-.48-.669-1.131-1.426-.546-2.4,4.4.707,8.81,1.346,13.194,2.132,12.772,2.292,25.667,3.569,38.555,4.958,21.279,2.293,42.328-.322,63.422-2.505,6.449-.667,12.618-2.834,19.095-3.19,1.964-.108,4-.686,5.853.532.447,1.172-.439,1.817-1.05,2.532-13.122,15.352-30.025,21.911-49.945,21.428A1.319,1.319,0,0,1,574.506,350.106Z" transform="translate(-452.238 -196.633)" fill="#fcfcfc"></path><path id="Path_4106-2" data-name="Path 4106" d="M482.506,324.114c6.341,10.32,14.91,17.672,26.9,20.757a219.875,219.875,0,0,0,23.335,4.458l1.7.788c-4.307.259-7.956.822-11.608,1.286-11.929,1.515-23.332,4.929-34.5,9.227-4.28,1.648-8.489,3.481-12.73,5.231a89.076,89.076,0,0,1-23.855-25.579,22.765,22.765,0,0,1-3.044-9.14c-.8-6.331,1.9-9.93,8.215-10.871,5.725-.852,11.337.174,16.872,1.44C476.72,322.382,479.808,322.579,482.506,324.114Z" transform="translate(-448.571 -196.181)" fill="#780e1c"></path><path id="Path_4107-2" data-name="Path 4107" d="M584.14,350.27c4.288-.39,8.579-.737,12.86-1.177,16.313-1.677,28.824-9.971,38.925-22.435,1.5-.9,2.849-.122,4.188.408,9.56,3.78,12.841,11.751,8.753,21.138a42.816,42.816,0,0,1-12.113,15.6c-8.423-3.452-17.214-5.759-25.939-8.255-7.961-2.278-16.163-3.348-24.349-4.437C585.593,351,584.688,351.192,584.14,350.27Z" transform="translate(-461.872 -196.797)" fill="#780e1c"></path><path id="Path_4108-2" data-name="Path 4108" d="M584.429,386.3c3.185,1.7,6.351,3.423,8.768,6.207-8.9,3.852-18.329,5.491-27.9,6.414-9.666.932-19.142-.452-28.468-2.868-5.114-1.325-10.136-3-15.2-4.516,2.841-1.617,5.529-3.508,8.582-4.738,12.593,8.589,26.507,9.161,40.874,6.584,4.021-.722,7.471-2.877,10.623-5.452C582.539,387.252,583.26,386.406,584.429,386.3Z" transform="translate(-455.739 -202.689)" fill="#f95052"></path><path id="Path_4109-2" data-name="Path 4109" d="M617.773,225.939a23.507,23.507,0,0,1,7.048-13.182c4.87-4.784,10.346-5.122,16.427-2.147,7.148,3.5,12.663,8.149,13.785,16.561a7.054,7.054,0,0,1,.134,1.461c-.106,1.352.03,3.182-1.435,3.562-1.751.455-1.577-1.642-1.979-2.6-2.24-5.353-5.034-10.18-10.438-12.967-5.032-2.6-9.817-2.74-14.588.812A59.471,59.471,0,0,0,617.773,225.939Z" transform="translate(-465.171 -185.265)"></path><path id="Path_4110-2" data-name="Path 4110" d="M525.617,200.578a41.2,41.2,0,0,0-1.742-3.984c-5.21-9.236-14.552-11.118-23.119-4.79-3.645,2.692-6.466,6.177-9.867,9.991.118-4.744,2.371-7.856,4.931-10.713a25.25,25.25,0,0,1,13.2-7.807c7.736-1.841,12.591.839,15.487,8.271a31.875,31.875,0,0,1,1.875,8.7Z" transform="translate(-452.723 -182.716)"></path><path id="Path_4111-2" data-name="Path 4111" d="M585.362,385.541c-7.014,7.877-16.329,9.516-26.143,9.245-6.81-.188-13.644-.922-20.094-3.356-3.026-1.142-6.373-2.045-7.979-5.39C549.133,376.775,567.2,375.6,585.362,385.541Z" transform="translate(-456.673 -201.931)" fill="#fa7072"></path></g><g id="Group_1140-2" data-name="Group 1140" transform="translate(33.489 29.475)"><path id="Path_4112-2" data-name="Path 4112" d="M486.244,246.591a44.7,44.7,0,0,0,1.645,20.918c1.017,3.036,2.341,6.178,6.1,6.57,3.516.367,5.548-2.189,7.176-4.765,7.074-11.2,8.654-23.684,8.214-36.578a30.664,30.664,0,0,0-2.817-12.584c-2.8-5.723-6.971-6.329-11.124-1.558a25.488,25.488,0,0,0-5.685,11.034Q487.952,238.1,486.244,246.591Z" transform="translate(-485.703 -215.397)" fill="#3d1a0b"></path><path id="Path_4113-2" data-name="Path 4113" d="M486.3,248.139a40.48,40.48,0,0,0,3.513-16.962A46.594,46.594,0,0,0,486.3,248.139Z" transform="translate(-485.762 -216.945)" fill="#3b190a"></path><path id="Path_4114-2" data-name="Path 4114" d="M502.764,230.613a19.839,19.839,0,0,0,.4,9.344c.357,1.1.795,2.336,2.154,2.405,1.558.081,2.194-1.22,2.644-2.432a19.47,19.47,0,0,0,.869-11.85c-.354-1.374-.645-3.079-2.376-3.219-1.747-.141-2.246,1.571-2.827,2.827A17.841,17.841,0,0,0,502.764,230.613Z" transform="translate(-487.342 -216.324)" fill="#f9f9f8"></path></g><g id="Group_1141-2" data-name="Group 1141" transform="translate(146.462 47.257)"><path id="Path_4115-2" data-name="Path 4115" d="M611.506,266.307a44.723,44.723,0,0,0,1.645,20.919c1.017,3.035,2.342,6.177,6.1,6.57,3.516.367,5.548-2.189,7.175-4.765,7.075-11.2,8.654-23.685,8.214-36.578a30.643,30.643,0,0,0-2.817-12.584c-2.8-5.723-6.971-6.329-11.123-1.558a25.481,25.481,0,0,0-5.685,11.034Q613.214,257.816,611.506,266.307Z" transform="translate(-610.966 -235.113)" fill="#3d1a0b"></path><path id="Path_4116-2" data-name="Path 4116" d="M611.565,267.855a40.467,40.467,0,0,0,3.513-16.962A46.6,46.6,0,0,0,611.565,267.855Z" transform="translate(-611.025 -236.661)" fill="#3b190a"></path><path id="Path_4117-2" data-name="Path 4117" d="M628.027,250.329a19.828,19.828,0,0,0,.4,9.344c.357,1.1.795,2.336,2.154,2.406,1.559.08,2.194-1.221,2.644-2.433a19.463,19.463,0,0,0,.869-11.85c-.354-1.374-.645-3.079-2.376-3.219s-2.245,1.571-2.827,2.827A17.827,17.827,0,0,0,628.027,250.329Z" transform="translate(-612.605 -236.041)" fill="#f9f9f8"></path></g></g><g id="Group_1148-2" data-name="Group 1148" transform="translate(347.643 82.135)"><path id="Path_4118-2" data-name="Path 4118" d="M675.014,234.879s-10.932-5.945-42.442-11.7-52.538-3.287-63.1,3.6a29.984,29.984,0,0,1-18.382,4.71c-4.674-.61-12.868-2.516-18.923-8.53-8.949-8.89-29.033-15.569-61.059-16.333s-43.933,2.839-43.933,2.839l-1.751,10.941s.6,2.367,4.057,5.451-.435,24.714,6.955,42.678c4.974,12.093,10.865,22.932,30.9,26.038s38.993,4.417,48.074-6.4,17.127-21.742,19.622-31.767,7.8-12.627,12.827-12.534a2.969,2.969,0,0,0,1.051-.184,2.661,2.661,0,0,0,.952.389c4.941.925,9.6,4.552,10.012,14.878s6.074,22.651,12.77,35.087,25.531,15,45.777,16.023,28.216-8.393,35.542-19.224c10.883-16.092,11.456-38.063,15.471-40.379s5.08-4.517,5.08-4.517Z" transform="translate(-420.947 -201.029)" fill="#191818" opacity="0.1" style="mix-blend-mode: multiply;isolation: isolate"></path><g id="Group_1147-2" data-name="Group 1147"><g id="Group_1143-2" data-name="Group 1143" transform="translate(11.826 9.005)"><path id="Path_4119-2" data-name="Path 4119" d="M502.3,286.616c-8.732,4.3-24.239,3.308-37.049-.208,17.957,6.328,36.115,7.053,51.53-8.01,15.661-15.584,14.8-38.456,9.359-47.524,1.74,5.109,1.89,12.029.9,21.141C525.193,269.03,513.243,281.234,502.3,286.616Z" transform="translate(-436.681 -212.423)" fill="#2c2c2e" opacity="0.2" style="mix-blend-mode: multiply;isolation: isolate"></path><path id="Path_4120-2" data-name="Path 4120" d="M500.036,214.43a165.951,165.951,0,0,1,16.377,3.771A43.244,43.244,0,0,0,500.036,214.43Z" transform="translate(-440.093 -210.81)" fill="#2c2c2e"></path><path id="Path_4121-2" data-name="Path 4121" d="M442.7,220.409a26.563,26.563,0,0,1,7.536-5.208c16.083-6.455,30.208-2.285,45.15-.806-11.553-2.236-25.346-4.03-34.915-3.978-1.661.009-3.2.07-4.573.2-15.039,1.4-18.436,5.874-20.045,10.324s-2.366,12.772-2.277,17.077c.22,10.642,3.01,32.616,14.461,40.624C436.313,260.126,427.611,235.714,442.7,220.409Z" transform="translate(-433.572 -210.416)" fill="#393939" opacity="0.1" style="mix-blend-mode: multiply;isolation: isolate"></path><path id="Path_4122-2" data-name="Path 4122" d="M439.3,267.455c2.5,6.191,6.111,11.551,11.319,14.2,13.161,6.7,37.337,10.529,49.138,4.723C510.7,281,522.647,268.8,524.5,251.781c1.137-10.458.782-18.044-1.774-23.3C492.045,235.148,462.809,247.364,439.3,267.455Z" transform="translate(-434.134 -212.189)" fill="url(#linear-gradient)"></path></g><path id="Path_4123-2" data-name="Path 4123" d="M433.4,210.863c-.15,1.463-2.259,2.443-4.711,2.192s-4.316-1.641-4.166-3.1,2.257-2.443,4.711-2.192S433.553,209.4,433.4,210.863Z" transform="translate(-420.858 -201.147)" fill="#2c2c2e" opacity="0.2" style="mix-blend-mode: multiply;isolation: isolate"></path><path id="Path_4124-2" data-name="Path 4124" d="M433.686,208.1c-.15,1.462-2.258,2.445-4.709,2.193s-4.317-1.641-4.168-3.1,2.259-2.442,4.709-2.192S433.836,206.637,433.686,208.1Z" transform="translate(-420.886 -200.876)" fill="#a29f9a"></path><path id="Path_4125-2" data-name="Path 4125" d="M431.812,208.022c-.079.772-1.189,1.286-2.478,1.154s-2.271-.863-2.193-1.632,1.188-1.286,2.479-1.154S431.893,207.254,431.812,208.022Z" transform="translate(-421.115 -201.014)" fill="#fff" opacity="0.3"></path><g id="Group_1144-2" data-name="Group 1144"><path id="Path_4126-2" data-name="Path 4126" d="M670.057,228.787s-10.933-5.946-42.448-11.694-52.533-3.29-63.1,3.6a29.962,29.962,0,0,1-18.381,4.707c-4.673-.607-12.867-2.515-18.923-8.529-8.949-8.889-29.036-15.566-61.059-16.331s-43.933,2.837-43.933,2.837l-1.752,10.941s.6,2.368,4.058,5.453-.436,24.713,6.954,42.677c4.975,12.091,10.866,22.933,30.9,26.038s38.992,4.417,48.074-6.4,17.127-21.746,19.623-31.768,7.8-12.629,12.828-12.535a2.925,2.925,0,0,0,1.05-.185,2.67,2.67,0,0,0,.952.389c4.94.928,9.6,4.552,10.012,14.878s6.074,22.65,12.771,35.087,25.53,15,45.775,16.024S641.675,295.58,649,284.749c10.881-16.09,11.457-38.062,15.47-40.379s5.079-4.515,5.079-4.515ZM497.91,283.63c-11.8,5.806-35.976,1.977-49.138-4.723s-16.247-30.622-16.479-41.869c-.088-4.306.666-12.627,2.277-17.077s5.005-8.928,20.045-10.324,49.554,4.766,58.682,8.851,11.2,13.526,9.353,30.542S508.848,278.247,497.91,283.63ZM653.353,259.7c-2.51,10.965-10.386,33.764-24.632,37.653s-38.7,2.735-49.076-5.345c-9.619-7.488-18.843-21.866-17.2-38.9s5.586-25.864,15.356-28.01,44.811-1.175,59.255,3.243,16.861,9.492,17.535,14.178S654.314,255.5,653.353,259.7Z" transform="translate(-420.46 -200.431)" fill="#2c2c2e"></path><path id="Path_4127-2" data-name="Path 4127" d="M594.819,295.508c7.68,5.98,23.065,8.158,36.322,7.313-18.869,2.556-36.8-.422-48.833-18.3-12.172-18.437-6.689-40.657.481-48.434-2.739,4.648-4.293,11.4-5.171,20.519C575.976,273.642,585.2,288.02,594.819,295.508Z" transform="translate(-435.634 -203.929)" fill="#2c2c2e" opacity="0.2" style="mix-blend-mode: multiply;isolation: isolate"></path><path id="Path_4128-2" data-name="Path 4128" d="M617.181,226.557a165.85,165.85,0,0,0-16.8.37A43.24,43.24,0,0,1,617.181,226.557Z" transform="translate(-438.112 -202.932)" fill="#2c2c2e"></path><path id="Path_4129-2" data-name="Path 4129" d="M665.579,237.722c-31.413,8.455-62.133,20.152-81,45.093a46.386,46.386,0,0,0,11.169,12.854c10.377,8.079,34.827,9.236,49.076,5.345s22.122-26.688,24.632-37.653c.961-4.2,1.91-12.5,1.237-17.183A12,12,0,0,0,665.579,237.722Z" transform="translate(-436.561 -204.09)" fill="url(#linear-gradient-2)"></path><path id="Path_4130-2" data-name="Path 4130" d="M667.266,243.175a26.621,26.621,0,0,0-6.325-6.627c-14.438-9.584-29.116-8.366-44.047-9.953,11.769.157,25.639,1.2,35,3.191,1.629.345,3.119.72,4.437,1.122,14.445,4.418,16.861,9.492,17.535,14.178s-.276,12.984-1.237,17.183c-2.375,10.375-9.565,31.327-22.4,36.844C665.461,283.365,678.936,261.225,667.266,243.175Z" transform="translate(-439.732 -202.998)" fill="#393939" opacity="0.1" style="mix-blend-mode: multiply;isolation: isolate"></path></g><g id="Group_1145-2" data-name="Group 1145" transform="translate(237.899 28.073)"><path id="Path_4131-2" data-name="Path 4131" d="M684.284,234.314c-.149,1.463,1.877,3.574,4.329,3.827s4.263-1.311,4.376-2.777c.245-3.2-1.834-.9-4.283-1.147S684.6,231.2,684.284,234.314Z" transform="translate(-684.242 -231.685)" fill="#2c2c2e" opacity="0.2" style="mix-blend-mode: multiply;isolation: isolate"></path><path id="Path_4132-2" data-name="Path 4132" d="M684.246,233.791c-.149,1.461,1.716,2.85,4.169,3.1s4.559-.73,4.706-2.19-1.715-2.852-4.166-3.1S684.4,232.327,684.246,233.791Z" transform="translate(-684.238 -231.559)" fill="#a29f9a"></path><path id="Path_4133-2" data-name="Path 4133" d="M686.58,234.143c-.078.77.9,1.5,2.194,1.632s2.4-.382,2.478-1.153-.9-1.5-2.192-1.634S686.659,233.374,686.58,234.143Z" transform="translate(-684.467 -231.697)" fill="#fff" opacity="0.3"></path></g><g id="Group_1146-2" data-name="Group 1146" transform="translate(3.687 4.061)"><path id="Path_4134-2" data-name="Path 4134" d="M424.593,207.688c-.147,1.462,1.877,3.574,4.328,3.827s4.264-1.31,4.376-2.777c.244-3.2-1.833-.9-4.283-1.147S424.907,204.572,424.593,207.688Z" transform="translate(-424.551 -205.06)" fill="#2c2c2e" opacity="0.2" style="mix-blend-mode: multiply;isolation: isolate"></path><path id="Path_4135-2" data-name="Path 4135" d="M424.556,207.164c-.151,1.463,1.714,2.852,4.166,3.1s4.56-.731,4.711-2.193-1.715-2.851-4.168-3.1S424.706,205.7,424.556,207.164Z" transform="translate(-424.548 -204.934)" fill="#a29f9a"></path><path id="Path_4136-2" data-name="Path 4136" d="M426.887,207.518c-.078.769.9,1.5,2.193,1.633s2.4-.383,2.48-1.154-.9-1.5-2.194-1.632S426.967,206.748,426.887,207.518Z" transform="translate(-424.777 -205.072)" fill="#fff" opacity="0.3"></path></g></g></g><path id="Path_4137-2" data-name="Path 4137" d="M380.908,459.215s35.828,43.577,51.995,16.678c21.307-35.451,7.848,65.73,7.848,65.73L412.3,553.4s-16.824-1.328-27.542-28.623" transform="translate(-68.937 -143.685)" fill="#e62276"></path><path id="Path_4138-2" data-name="Path 4138" d="M384.838,538.618s10.117,21.587,27.793,22.567,1.98,23.546,1.98,23.546l-13.7,10.524L389.5,585.623s-12.17,1.07-12.17-13.646-14.446-10.792-14.446-10.792-11.3-3.123-7.745-15.787" transform="translate(-66.341 -151.475)" fill="#f28b9d"></path><g id="Group_1149-2" data-name="Group 1149" transform="translate(0 335.887)"><path id="Path_4139-2" data-name="Path 4139" d="M603.753,572.651s-.815,15.333,10.958,15.333,12.262,5.119,12.262,5.119v10.384s8.339-2.75,13.244,3.137,3.924,13.849,3.924,13.849,1.963,7.734,17.659,5.771,19.621,13.735,19.621,13.735h14.328s.388,6.867,8.236,6.867h14.189l12.562,4.315s10.013,2.353,15.175,0,19.879,4.515,19.879,4.515h7.269l5.483-2.943s28.45,4.9,35.318-2.944,21.582-8.83,21.582-8.83,11.554-.224,10.792-7.848c-.981-9.81,18.639-24.526,18.639-24.526s4.071-14.715,7.922-12.754,11.7-14.715,11.7-14.715l-4.9-3.924s6.867-10.294,4.9-14.958-1.6-13.324-1.6-13.324,1.6-5.074-1.339-6.055.981-8.829.981-8.829.077-6.385-4.376-7.607-4.453-9.07-4.453-9.07,1.963-5.887-2.943-5.887-5.887-8.829-5.887-8.829-3.924-4.905-7.848-4.905-4.905-2.943-4.905-2.943,0-1.962-2.943-2.943a41.282,41.282,0,0,1-4.905-1.962l-3.924-4.9-3.733.118H832.89l-6.274-3.062s-1.963-.98-7.848.981-7.307-.538-7.307-.538-13.295,2.5-20.163,12.31c-1.622,2.317,17.659-2.943,17.659-2.943l29.431,2.943L853.1,511.463l14.716,24.526v45.128l-36.3,38.261-50.032,10.791L707.91,610.548l-72.6-37.28-28.428-21.9-12.774.32Z" transform="translate(-89.853 -481.786)" fill="#f28b9d"></path><path id="Path_4140-2" data-name="Path 4140" d="M477.286,532.479c-17.5,13.712-28.7,31.692-37.674,51.391s-16.919,39.843-28.506,58.347c-18.146,28.981-60.913,39.16-94.7,35.013-29.118-3.573-54.118-16.585-78.089-31.882-15.409-9.833-30.732-19.775-49.3-23.308-1.062-.2-1.97-.393-2.755-.59l-.06-.012a82.359,82.359,0,0,0-8.968.182,2.579,2.579,0,0,1-.5.148c-29.181,5.24-41.028,30.3-57.485,50.339-10.89,13.261-22.159,26.364-37.877,34.546-11.155,5.807-22.84,7.123-34.858,7.093-1.973,0-3.153-1.118-4.267-2.448-1.932,1.186-4.426-.568-7.252,2.36,6.412,2.367,12.36,6.628,18.179,6.238,9.254-.62,18.97-.2,27.951-5.039,7.009-3.775,14.86-6.349,20.843-11.587,11.419-10,21.012-21.8,30.365-33.758,2.773-3.546,5.376-8.352,9.67-9.291,5.5-1.2,8.012-4.562,10.25-8.829,1.65-3.145,4.613-6.394,7.429-4.937,5.518,2.852,8.683-.486,11.669-3.584,3.022-3.135,5.439-3.775,9.067-1.686,3.826,2.2,7.746,3.639,12.573,1.039,2.937-1.582,7.95-.584,8.072,2.475.446,11.23,8.169,8.8,14.774,8.356,4.767-.321,7.156,1.653,8.511,5.976,2.231,7.114,8.243,10.706,15.515,10.193,4.73-.333,8.168,1.912,10.268,6.185,2.99,6.087,6.453,11.186,14.855,9.951,3.781-.556,6.691,1.779,8.47,5.581,3.31,7.074,10.136,10.3,18.186,8.942,4.779-.807,9.4.2,11.624,3.976,2.5,4.25,6.352,4.576,10.109,6.21,6.878,2.991,12.305-3.325,18.569-2.7,8.965.887,17.73.611,26.188-3.593,2.294-1.14,4.831-.655,7.279-.847,7.469-.585,23.042,2.891,26.6-4.776a14.572,14.572,0,0,1,9.488-7.877c7.1-2.071,11.009-6.842,12.863-13.566.773-2.8,1.7-6.263,4.53-6.305,9.734-.147,10.27-7.855,11.87-14.04,1.48-5.717.9-11.909,8.939-13.438,2.1-.4,2.845-3.458,3.486-5.6,2.158-7.23,2.048-8.653-.074-16.863,2.352,1.595,6.867,0,6.713-5.312-.224-7.722-3.423-7.727-2.585-10.157.953-2.763,10.422-.17,9.838-2.889-1.181-5.493-1.168-13.578,6.636-15,10.791-1.962,11.266-19.154,12.754-21.582,0,0,22.564-29.431,46.109,2.943S552.03,566.5,552.03,566.5l-38.282-53.669Z" transform="translate(-35 -484.833)" fill="#f28b9d"></path></g><path id="Path_4141-2" data-name="Path 4141" d="M164.731,608.43q-.994.58-1.972,1.177c.432-.258,1.1-.639,2-1.106C164.749,608.477,164.74,608.454,164.731,608.43Z" transform="translate(-47.534 -158.324)" fill="#480495"></path><path id="Path_4142-2" data-name="Path 4142" d="M162.091,610.107v0c.2-.124.4-.251.6-.373C162.307,609.966,162.091,610.107,162.091,610.107Z" transform="translate(-47.469 -158.452)" fill="#915dbd"></path><path id="Path_4143-2" data-name="Path 4143" d="M224.622,611.549c-.02.011-.033.027-.052.039.017.019.027.039.045.057Z" transform="translate(-53.598 -158.63)" fill="#915dbd"></path><path id="Path_4144-2" data-name="Path 4144" d="M202.635,623.568c-.02.032-.032.063-.052.1l.068.076.061-.081C202.684,623.628,202.662,623.6,202.635,623.568Z" transform="translate(-51.441 -159.81)" fill="#915dbd"></path><path id="Path_4145-2" data-name="Path 4145" d="M104.152,660.958c-12.266,26.857-31.614,44.38-61.111,49.186,1.114,1.329,2.294,2.443,4.267,2.448,12.018.03,23.7-1.286,34.858-7.093,15.717-8.182,26.986-21.285,37.877-34.546,16.457-20.038,28.3-45.1,57.485-50.339a2.579,2.579,0,0,0,.5-.148,82.359,82.359,0,0,1,8.968-.182l.06.012h0c.784.2,1.691.388,2.752.59,18.564,3.533,33.887,13.474,49.3,23.308,23.971,15.3,48.971,28.309,78.089,31.882,33.784,4.147,78.513-6.032,96.659-35.013,12.736-20.342,17.9-35.072,28.506-58.347,8.976-19.7,20.169-37.678,37.674-51.391,2.456-1.924,4.242-2.782,5.92-2.457-4.87-4.626-29.362-13.176-34.232-17.8-4.816-2.478-9.882-4.223-14.537-6.721-3.167-1.7-35.21-5.332-36.452-1.782-6.868,19.621-18.34,40.206-27.47,61.806-6.766,16.007-10.587,20.737-18.639,36.3-10.068,19.456-27.371,20.074-48.821,20.72-12.875.387-25.038-2.358-36.864-6.694-20.757-7.61-23.744-11.752-44.616-19.122l0-.014c-.17-.058-.335-.108-.505-.165-.425-.148-.844-.307-1.272-.451v.036c-1.079-.345-2.152-.677-3.213-.988q-3.394-.994-6.657-1.738c-1.094-.25-2.172-.472-3.242-.682-1.551-.3-3.084-.579-4.585-.806a99.416,99.416,0,0,0-12.111-1.081c-.332-.01-.663-.016-.992-.022-3.17-.055-6.183.048-9.032.276-1.621.13-3.2.292-4.707.493-1.329.178-2.606.384-3.849.606-2.441.438-4.711.95-6.8,1.506a70.838,70.838,0,0,0-14.344,5.426c-.9.467-1.566.848-2,1.106-.2.123-.4.249-.6.373-9.225,5.693-20.364,18.392-27,27.307C115.493,637.4,109.581,649.072,104.152,660.958Z" transform="translate(-35.789 -147.79)" fill="#e62276"></path><path id="Path_4146-2" data-name="Path 4146" d="M496.832,563.559s16.908-28.315,46.339-24.391,91.236,58.862,91.236,58.862l-53.021-79.9-51.1-13.945-35.393,11.9Z" transform="translate(-80.12 -148.097)" fill="#e62276"></path><path id="Path_4147-2" data-name="Path 4147" d="M683.4,558.913s95.161,86.331,153.249,31.42c9.884-9.344,14.151-20.036,17.1-28.8,8.379-24.917-3.729-52.493-27.912-62.8-12.946-5.52-29.556-6.023-46.46,11.328,0,0-4.776,5.591-1.663-.609s12.246-14.189,12.246-14.189,11.932-12.018,32.837-9.441c15.838,1.953,44.271,18.809,51.474,54.869,5.17,25.886-10.463,63.209-46.862,88.093-36.543,24.983-92.874,14.306-122.424,3.713C615.754,600.5,584.319,514.765,584.319,514.765Z" transform="translate(-88.893 -146.259)" fill="#e62276"></path><path id="Path_4148-2" data-name="Path 4148" d="M438.1,406.291s6.674,78.2-17.677,76.4,43.291,24.351,43.291,24.351l10.044-53.018-10.044-38.073Z" transform="translate(-72.295 -138.493)" fill="#e62276"></path></g><path id="Path_4151-2" data-name="Path 4151" d="M8251.656,14046.26c-35.139-50.387-128.211-183.722-128.211-183.722" transform="translate(-2207.495 -15100.045) rotate(16)" fill="none" stroke="#142144" stroke-linecap="round" stroke-width="6"></path><g id="Group_1156-2" data-name="Group 1156" transform="matrix(0.996, 0.087, -0.087, 0.996, 2036.559, 840.038)"><path id="Path_4061-2" data-name="Path 4061" d="M-1157.859-1076.833l-18.5,58.46,28.5-13.607Z" transform="translate(1274.884 1104.147)" fill="#b2cacc"></path><path id="Path_4062-2" data-name="Path 4062" d="M-1180.5-1077.21l18.5,58.46-31.366-13.607Z" transform="translate(1254.971 1103.707)" fill="#b2cacc"></path><g id="Group_1123-2" data-name="Group 1123" transform="translate(63.885 44.964)"><path id="Path_4063-2" data-name="Path 4063" d="M-1158.157-1009.542c-.262,0-.521-.024-.781-.048-1.04-.048-2.082-.1-3.145-.189l-.782-.072c-1.891-.117-3.783-.284-5.7-.473-.33-.024-.684-.072-1.016-.117-1.324-.143-2.648-.26-3.972-.426-.1-.024-.213-.024-.308-.048-.97-.119-1.938-.237-2.885-.38l.4-1.939.947-4.565,3.595-17.6,1.654-8.136.545-2.648v-.024l.356-1.632.543-2.577v-.024l2.768-13.528.662,8.136v.048l.827,10.122v.024l.521,6.48.048.662Z" transform="translate(1210.546 1074.25)" fill="#191818" opacity="0.1" style="mix-blend-mode: multiply;isolation: isolate"></path><path id="Path_4064-2" data-name="Path 4064" d="M-1143.869-1015.775l-.782-.072c-1.891-.117-3.784-.284-5.7-.473-.33-.024-.684-.072-1.016-.117-1.324-.143-2.648-.26-3.972-.426-.1-.024-.213-.024-.308-.048-.97-.119-1.938-.237-2.885-.38-.26-.022-.5-.07-.758-.094q-8.691-1.172-17.359-3.028c-.779-.165-1.537-.33-2.316-.519q-4.474-.961-8.917-2.13c-.426-.117-.827-.213-1.255-.354-1.064-.26-2.1-.569-3.167-.877l.282-1.348,4.281-18.66,1.4-5.959v-.024l.686-2.957.614-2.648v-.024l.356-1.609.117-.545.189-.779,15.373.378,17.195.449h.024l1.04.024.26,1.561v.024l.425,2.7.285,1.678.449,2.792.875,5.392v.024Z" transform="translate(1192.331 1080.246)" fill="#5f2900"></path><path id="Path_4065-2" data-name="Path 4065" d="M-1188.986-1068.7l-1.493,21.7,40.817,5.17,1.372-25.834Z" transform="translate(1194.469 1068.702)" fill="#5f2900"></path><path id="Path_4066-2" data-name="Path 4066" d="M-1152.895-1049.225l-1.437-8.771-33.626-.85-1.3,5.62Z" transform="translate(1195.901 1080.241)" opacity="0.36"></path><path id="Path_4067-2" data-name="Path 4067" d="M-1190.544-1066.936l-1.453,19.784,48.11,5.294,1.25-23.559Z" transform="translate(1192.692 1070.77)" fill="#5f2900"></path><path id="Path_4068-2" data-name="Path 4068" d="M-1178.952-1028.774c.779.189,1.537.354,2.316.519q8.658,1.846,17.359,3.028c.26.024.5.072.758.094.946.143,1.915.26,2.885.38.1.024.213.024.308.048l-2.792-2.366-5.77-4.919-23.841-20.151-4.281,18.659-.308,1.348h.026c1.064.308,2.1.617,3.167.877" transform="translate(1192.317 1088.09)" fill="#843a00"></path></g><path id="Path_4069-2" data-name="Path 4069" d="M-1167.39-1063.506s84.422-4.89,109.514-25.829v47.029l-95.573,44.5-14.388-64.389Z" transform="translate(1284.861 1089.511)" fill="#c9e4e7"></path><path id="Path_4070-2" data-name="Path 4070" d="M-1147.725-1064.227s-42.931-4.259-68.287-25.189l-5.735,45.371,58.452,39.983,16.018-58.857Z" transform="translate(1221.747 1089.416)" fill="#c9e4e7"></path></g><path id="Path_4153-2" data-name="Path 4153" d="M8478.563,14313.027l-18.7,55.644,22.783,30.34,48.5-14.9-5.23-58.395Z" transform="translate(-6387 -13367)" fill="#5f2900"></path><path id="Path_4154-2" data-name="Path 4154" d="M8484.607,14293.837l42,41.119,3.084,32.915-52.276-51.9Z" transform="translate(-6387 -13367)" fill="#843a00"></path><path id="Path_4155-2" data-name="Path 4155" d="M8484.9,14294.166l51.182,52.241-19.579,6.264-38.629-36.3Z" transform="matrix(1, 0.017, -0.017, 1, -6149.597, -13473.225)" fill="#843a00"></path></g></g></svg>