<svg xmlns="http://www.w3.org/2000/svg" width="330.883" height="74.494" viewBox="0 0 330.883 74.494"><g id="Group_927" data-name="Group 927" transform="translate(-84.559 -212.753)"><g id="Group_926" data-name="Group 926"><g id="Group_923" data-name="Group 923"><path id="Path_420" data-name="Path 420" d="M176.5,263.7q-2.561-2.562-2.56-8.031V244.281q0-5.52,2.56-8.055t8.031-2.486h5.967q5.469,0,8.031,2.536t2.56,8.055v11.338q0,5.471-2.56,8.031t-8.031,2.56h-5.967Q179.059,266.26,176.5,263.7Zm14-.523a11.178,11.178,0,0,0,4.451-.72,4.48,4.48,0,0,0,2.337-2.338,11.171,11.171,0,0,0,.721-4.45V244.331a11.171,11.171,0,0,0-.721-4.45,4.483,4.483,0,0,0-2.337-2.338,11.179,11.179,0,0,0-4.451-.72h-6.016a10.7,10.7,0,0,0-4.452.671,4.377,4.377,0,0,0-2.312,2.337,11.526,11.526,0,0,0-.7,4.45v11.388a11.151,11.151,0,0,0,.722,4.45,4.473,4.473,0,0,0,2.337,2.338,11.173,11.173,0,0,0,4.45.72Z" fill="#e41f7b"></path><path id="Path_421" data-name="Path 421" d="M209.112,263.7q-2.561-2.562-2.56-8.031V244.331q0-5.568,2.536-8.1t8.006-2.486h6.017q4.623,0,6.911,1.914t2.586,6.091a1.356,1.356,0,0,1-.3,1.168,1.559,1.559,0,0,1-1.193.424q-1.343,0-1.591-1.542-.2-2.835-1.642-3.9t-4.773-1.069h-6.017a10.694,10.694,0,0,0-4.451.671,4.37,4.37,0,0,0-2.312,2.337,11.672,11.672,0,0,0-.7,4.5v11.338a11.153,11.153,0,0,0,.721,4.45,4.473,4.473,0,0,0,2.337,2.338,11.18,11.18,0,0,0,4.45.72h5.968q3.33,0,4.773-1.069t1.642-3.9a1.949,1.949,0,0,1,.472-1.169,1.52,1.52,0,0,1,1.119-.373,1.569,1.569,0,0,1,1.193.422,1.363,1.363,0,0,1,.3,1.17q-.3,4.176-2.586,6.091t-6.911,1.914h-5.968Q211.674,266.26,209.112,263.7Z" fill="#e41f7b"></path><path id="Path_422" data-name="Path 422" d="M247.457,264.719V236.772H237.163a1.362,1.362,0,0,1-1.542-1.541,1.567,1.567,0,0,1,.4-1.118,1.5,1.5,0,0,1,1.144-.423h23.669a1.454,1.454,0,0,1,1.543,1.541,1.494,1.494,0,0,1-.423,1.144,1.564,1.564,0,0,1-1.12.4H250.54v27.947a1.5,1.5,0,0,1-.422,1.144,1.569,1.569,0,0,1-1.12.4A1.362,1.362,0,0,1,247.457,264.719Z" fill="#e41f7b"></path><path id="Path_423" data-name="Path 423" d="M267.9,263.7q-2.561-2.562-2.56-8.031V244.281q0-5.52,2.56-8.055t8.031-2.486H281.9q5.469,0,8.03,2.536t2.561,8.055v11.338q0,5.471-2.561,8.031t-8.03,2.56h-5.968Q270.464,266.26,267.9,263.7Zm14-.523a11.173,11.173,0,0,0,4.45-.72,4.481,4.481,0,0,0,2.338-2.338,11.173,11.173,0,0,0,.72-4.45V244.331a11.173,11.173,0,0,0-.72-4.45,4.485,4.485,0,0,0-2.338-2.338,11.173,11.173,0,0,0-4.45-.72h-6.017a10.694,10.694,0,0,0-4.451.671,4.37,4.37,0,0,0-2.312,2.337,11.507,11.507,0,0,0-.7,4.45v11.388a11.154,11.154,0,0,0,.721,4.45,4.473,4.473,0,0,0,2.337,2.338,11.18,11.18,0,0,0,4.45.72Z" fill="#e41f7b"></path><path id="Path_424" data-name="Path 424" d="M318.291,235.977q2.262,2.236,2.263,6.613v1.493q0,4.325-2.263,6.589t-6.589,2.261h-10.1v11.786a1.541,1.541,0,1,1-3.082,0V235.281a1.362,1.362,0,0,1,1.541-1.541H311.7Q316.03,233.74,318.291,235.977Zm-.821,6.613a4.95,4.95,0,0,0-5.768-5.767h-10.1v13.028h10.1a4.951,4.951,0,0,0,5.768-5.768Z" fill="#e41f7b"></path><path id="Path_425" data-name="Path 425" d="M327.644,263.7q-2.535-2.562-2.537-8.031V235.281a1.363,1.363,0,0,1,1.543-1.541,1.567,1.567,0,0,1,1.118.4,1.5,1.5,0,0,1,.423,1.144v20.388a11.136,11.136,0,0,0,.721,4.45,4.469,4.469,0,0,0,2.337,2.338,11.178,11.178,0,0,0,4.451.72h5.967a11.18,11.18,0,0,0,4.45-.72,4.476,4.476,0,0,0,2.337-2.338,11.152,11.152,0,0,0,.722-4.45V235.281a1.362,1.362,0,0,1,1.541-1.541,1.566,1.566,0,0,1,1.118.4,1.5,1.5,0,0,1,.423,1.144v20.388q0,5.471-2.56,8.031t-8.031,2.56H335.7Q330.18,266.26,327.644,263.7Z" fill="#e41f7b"></path><path id="Path_426" data-name="Path 426" d="M360.373,264.346q-2.214-1.912-2.512-5.942a1.437,1.437,0,0,1,.374-1.169,1.578,1.578,0,0,1,1.168-.422,1.428,1.428,0,0,1,1.541,1.491,5.125,5.125,0,0,0,1.542,3.8,7.269,7.269,0,0,0,4.476,1.069h7.16q3.43,0,4.748-1.317t1.318-4.7q0-3.429-1.342-4.773t-4.724-1.342h-6.614q-4.475,0-6.588-2.114t-2.114-6.539q0-4.475,2.114-6.564t6.538-2.088h6.664q4.128,0,6.215,1.79a7.641,7.641,0,0,1,2.338,5.569,1.365,1.365,0,0,1-1.493,1.592,1.473,1.473,0,0,1-1.093-.4,1.923,1.923,0,0,1-.5-1.144,4.58,4.58,0,0,0-1.418-3.355,6.578,6.578,0,0,0-4.052-.97h-6.664q-3.182,0-4.375,1.192t-1.193,4.377q0,3.132,1.217,4.35t4.4,1.219h6.614q4.723,0,6.937,2.238t2.213,6.961q0,4.676-2.239,6.887t-6.911,2.213h-7.16Q362.585,266.26,360.373,264.346Z" fill="#e41f7b"></path><path id="Path_427" data-name="Path 427" d="M388.194,264.62v-1.045a1.385,1.385,0,0,1,1.592-1.541h.994a1.363,1.363,0,0,1,1.542,1.541v1.045a1.713,1.713,0,0,1-.4,1.218,1.5,1.5,0,0,1-1.144.422h-.994A1.429,1.429,0,0,1,388.194,264.62Z" fill="#e41f7b"></path></g><g id="Group_925" data-name="Group 925"><g id="Group_924" data-name="Group 924"><path id="Path_428" data-name="Path 428" d="M401.575,252.88h13.176a.69.69,0,1,1,0,1.38H403.689l6.944,4.607a.924.924,0,0,1,.446.824.839.839,0,0,1-.446.712l-6.944,4.607h11.062a.69.69,0,0,1,0,1.38H401.575a.61.61,0,0,1-.69-.69.873.873,0,0,1,.445-.757l8.079-5.341-8.079-5.3a.926.926,0,0,1-.445-.823Q400.885,252.881,401.575,252.88Z" fill="#e41f7b"></path><path id="Path_429" data-name="Path 429" d="M414.751,245.264a.746.746,0,0,1-.423-.156l-6.365-4.34L402,245.019a.927.927,0,0,1-.423.156.639.639,0,0,1-.534-.334.743.743,0,0,1-.156-.422.611.611,0,0,1,.312-.535l5.631-4.029-5.631-4.117a.686.686,0,0,1-.312-.534.774.774,0,0,1,.156-.445.671.671,0,0,1,.512-.311.785.785,0,0,1,.445.177l6.031,4.385,6.277-4.5a.779.779,0,0,1,.445-.156.677.677,0,0,1,.534.334.746.746,0,0,1,.156.423.637.637,0,0,1-.334.534l-5.965,4.273,5.965,4.051a.638.638,0,0,1,.334.534.743.743,0,0,1-.156.423A.6.6,0,0,1,414.751,245.264Z" fill="#e41f7b"></path></g></g></g><path id="Path_430" data-name="Path 430" d="M121.812,212.753a37.247,37.247,0,1,0,37.24,37.253A37.287,37.287,0,0,0,121.812,212.753Zm2.736,70.793a17.822,17.822,0,0,0,3.344-2.034,16.618,16.618,0,0,0,4.806-5.64c.25-.488.488-.987.7-1.5.25-.535.488-1.107.726-1.642a21.4,21.4,0,0,1,2.38-4.307,10.9,10.9,0,0,1,4.688-3.415,13.813,13.813,0,0,1,2.843-.725c.4-.036,1.464-.108,1.987-.12.286,0,.4-.285.119-.428a11.945,11.945,0,0,0-15.324,4.391,23.164,23.164,0,0,1-2.88,3.783,17.353,17.353,0,0,1-2.272,1.951c-2.13,1.535-4.521,2.987-7.151,3.189a7.427,7.427,0,0,1-4.319-.868c-3.343-1.94-.345-3.046,0-3.082a15.966,15.966,0,0,0,8.864-3.712,16.158,16.158,0,0,0,4.069-5.354,15.985,15.985,0,0,0,1.178-9.424c-.607-3.283-2.653-5.746-4.069-8.7a15.872,15.872,0,0,1-1.4-4.4,18.145,18.145,0,0,1-.274-2.534,20.61,20.61,0,0,1,1.012-7.306.471.471,0,0,0-.8-.476,14.761,14.761,0,0,0-3.094,5.426,18.4,18.4,0,0,0-.6,6.151,12.225,12.225,0,0,0,.452,2.344c.429,1.57,1.119,3.07,1.607,4.616.142.476.261.964.356,1.44a11.777,11.777,0,0,1-4.592,11.362,13.82,13.82,0,0,1-2.035,1.262,11.525,11.525,0,0,1-4.057,1.2c-.226.012-.678.084-.666-.321.083-1.011,1.249-4.759,1.428-5.723.071-.428-1.69.333-2.118.393a21.543,21.543,0,0,1-5.152.345c-5.318-.488-5.9-3.891-7.71-6.6-.19-.3-.036-.666.309-.594a37.664,37.664,0,0,0,5.533,1.011,15.12,15.12,0,0,0,7-.833,12.629,12.629,0,0,0,4.009-2.308.6.6,0,0,0,.286-.619c-.107-.749-.345-2.368-.416-3.165-.3-4.033.571-7.84-1.511-11.612-.191-.31-.381-.619-.6-.928a11.624,11.624,0,0,0-7-5.021,19.219,19.219,0,0,0-9.114.5,33.663,33.663,0,1,1,29.447,54.028Z" fill="#e41f7b"></path></g></svg>