<svg xmlns="http://www.w3.org/2000/svg" xmlns:xlink="http://www.w3.org/1999/xlink" width="598" height="557" viewBox="0 0 598 557"><defs><clipPath id="clip-path"><rect id="Rectangle_260" data-name="Rectangle 260" width="598" height="557" transform="translate(1144 2284)" fill="#fff"></rect></clipPath></defs><g id="Group_1352" data-name="Group 1352" transform="translate(-1144 -2284)"><g id="Group_1349" data-name="Group 1349"><g id="Mask_Group_42" data-name="Mask Group 42" clip-path="url(#clip-path)"><g id="Group_1317" data-name="Group 1317" transform="matrix(0.53, 0.848, -0.848, 0.53, 1607.854, 2248.496)"><path id="Path_1346" data-name="Path 1346" d="M4075.711-6912.638c17.657-19.053,38.707-31.427,61.793-41.481,27.471-11.96,57.263-16.53,85.388-26.391,59.9-21.007,92.966-80.887,78.83-141.6-4.041-17.354-13.066-32.191-21.515-47.416,11.8-.768,17.31,7.359,20.9,16.333,2.972,7.438,4.486,14.385,11.986,19.944,6.312,4.683,9.189,14.26,6.5,22.943-1.974,6.361-.142,10.232,4.123,14.774,6.774,7.221,8.67,23.373,2.592,30-6.3,6.87-6.213,14.542-5.683,22.176.8,11.5-2.607,20.813-9.7,29.712-5.4,6.777-13.477,15.028-12.94,22.056.736,9.608-2.4,14.967-8.218,20.4-5.894,5.5-12.749,10.245-20.822,10.846-9.96.743-16.847,4.949-22.566,12.929-6.537,9.117-16.22,13.57-27.065,10.414-6.091-1.773-8.533.213-11.967,3.975-7.5,8.223-16.358,12.5-27.7,7.907-4.9-1.98-8.846-.04-10.941,4.353-6.264,13.1-17.4,16.854-30.575,15.747-6.891-.581-9.167,1.857-9.918,8.279-.982,8.367-4.879,15.8-8.518,23.381s-13.792-2.108-15.569,6.443c-1.433,6.873,10.529,6.667,8.928,15.163-1.662,8.808,1.571,18.4-4.011,26.691-1.88,2.791-.935,5.255.8,7.667,2.686,3.715,4.841.736,6.969-.639,4.593-2.973,8.8-1.087,12.078,1.747a71.5,71.5,0,0,1,17.36,22.494c1.791,3.611,1.625,7.3-1.474,9.818-4.282,3.484-2.5,6.157.649,8.508,4.48,3.347,7.553,10.854,13.994,8.891,15.425-4.7,30.732,1.873,36.058,16.9,1.674,4.718,2.216,9.656-1.977,13.266-3.077,2.646-5.449,4.731-1.705,8.438,3.128,3.091,3.693,8.723,10.4,8.116,15.556-1.409,29.474,12.984,24.111,28.418-4.7,13.524-5.553,22.13,3.258,34.951,9.37,13.634,7.421,31.149-7.235,42.844-13.944,11.122-31,10-47.65,8.754-.732-.053-1.341-1.788-2.008-2.74.182-13.458,5.4-26.271,4.058-40.064-3.183-32.611-19.821-58.239-40.876-81.718-18.353-20.462-38.792-38.876-57.369-59.186C4048.348-6821.513,4047.4-6882.092,4075.711-6912.638Z" transform="translate(-4005.314 7315.714)" fill="#f28b9d"></path><path id="Path_1347" data-name="Path 1347" d="M4175.229-7068.387c.682-11.667-8.288-13.794-16.345-14.477-8.883-.723-10.351-3.839-6.982-11.168a4.928,4.928,0,0,0,.371-2.334c-.97-12.077-.268-23.433,11.488-30.967,1.593-1.035,2.418-4.233,2.458-6.444.146-4.788-.433-8.174,6.922-6.853,5.5.968,11.239-3.8,13.059-8.715,3.286-8.836,9.071-9.726,16.7-8.363,7.416,1.344,12.625-3.4,18.368-6.687-.31-10.842-3.018-15.608-16.4-13.007-34.734,6.774-63.166,33.015-68.661,67.347C4131.879-7083.2,4151.426-7060.483,4175.229-7068.387Z" transform="translate(-4044.809 7308.546)" fill="#f28b9d"></path><g id="Group_706" data-name="Group 706" transform="translate(221.507 174.308)"><path id="Path_1348" data-name="Path 1348" d="M4111.2-7153.1l-.081.01c-.023-.389-.033-.792-.055-1.183C4111.161-7153.533,4111.2-7153.1,4111.2-7153.1Z" transform="translate(-4111.067 7154.273)" fill="#480495"></path></g><g id="Group_708" data-name="Group 708" transform="translate(90.786 88.358)"><path id="Path_1349" data-name="Path 1349" d="M4126.114-7187.845a4.581,4.581,0,0,0-.726-.486A4.649,4.649,0,0,1,4126.114-7187.845Z" transform="translate(-4021.64 7211.586)" fill="none"></path><path id="Path_1350" data-name="Path 1350" d="M4125.1-7186.733c-.23-.276-.458-.538-.682-.774C4124.643-7187.271,4124.869-7187.012,4125.1-7186.733Z" transform="translate(-4018.843 7212.28)" fill="none"></path><path id="Path_1351" data-name="Path 1351" d="M4125.577-7187.345c-.229-.233-.452-.443-.668-.625C4125.125-7187.789,4125.349-7187.578,4125.577-7187.345Z" transform="translate(-4020.221 7211.887)" fill="none"></path><path id="Path_1352" data-name="Path 1352" d="M4124.39-7186.287q-.207-.272-.411-.532C4124.114-7186.646,4124.251-7186.47,4124.39-7186.287Z" transform="translate(-4017.318 7212.854)" fill="none"></path><path id="Path_1353" data-name="Path 1353" d="M4123.487-7185.633c-.037-.054-.072-.1-.109-.157C4123.415-7185.739,4123.45-7185.687,4123.487-7185.633Z" transform="translate(-4015.309 7213.723)" fill="none"></path><path id="Path_1354" data-name="Path 1354" d="M4123.01-7185.17l.008.011h0Z" transform="translate(-4014.163 7214.242)" fill="none"></path><path id="Path_1355" data-name="Path 1355" d="M4119.1-7178.2l-.042-.088Z" transform="translate(-4002.953 7220.03)" fill="#f28b9d"></path><path id="Path_1356" data-name="Path 1356" d="M4118.495-7176.7c-.022-.06-.049-.12-.07-.18C4118.445-7176.817,4118.473-7176.757,4118.495-7176.7Z" transform="translate(-4001.194 7221.217)" fill="#f28b9d"></path><path id="Path_1357" data-name="Path 1357" d="M4119.189-7178.34l-.057-.11Z" transform="translate(-4003.188 7219.889)" fill="#f28b9d"></path><path id="Path_1358" data-name="Path 1358" d="M4123-7185.162l.015.023-.015-.023Z" transform="translate(-4014.147 7214.246)" fill="#f28b9d"></path><g id="Group_707" data-name="Group 707" transform="translate(0)"><path id="Path_1359" data-name="Path 1359" d="M4140.068-7200.834c.032-.042.045-.087.075-.126l.047.11A1.17,1.17,0,0,0,4140.068-7200.834Z" transform="translate(-4062.764 7200.961)" fill="none"></path><path id="Path_1360" data-name="Path 1360" d="M4204.38-7177.4c13.389-2.6,16.095,2.165,16.4,13.007,1.9,22.031,1.3,43.833-7.6,64.479-7.294,16.931-18.7,29.44-38.43,31.529-23.8,7.9-43.35-14.809-39.032-41.668C4141.213-7144.386,4169.648-7170.627,4204.38-7177.4Z" transform="translate(-4135.117 7220.187)" fill="none"></path></g><path id="Path_1361" data-name="Path 1361" d="M4125.484-7187.893c-.072-.059-.143-.118-.215-.175C4125.342-7188.011,4125.413-7187.951,4125.484-7187.893Z" transform="translate(-4020.795 7211.808)" fill="#480495"></path><path id="Path_1362" data-name="Path 1362" d="M4118.026-7176.78a24.492,24.492,0,0,1,.736,2.372h0Q4118.472-7175.548,4118.026-7176.78Z" transform="translate(-4000.725 7221.3)" fill="#480495"></path><path id="Path_1363" data-name="Path 1363" d="M4119.55-7175.731a25.127,25.127,0,0,0-1.086-2.505A25,25,0,0,1,4119.55-7175.731Z" transform="translate(-4002.32 7220.073)" fill="#480495"></path><path id="Path_1364" data-name="Path 1364" d="M4124.789-7187.632c.073.077.146.15.22.229C4124.936-7187.482,4124.862-7187.555,4124.789-7187.632Z" transform="translate(-4019.432 7212.173)" fill="#480495"></path><path id="Path_1365" data-name="Path 1365" d="M4123.685-7184.718c-.225-.336-.447-.665-.669-.985C4123.238-7185.383,4123.46-7185.054,4123.685-7184.718Z" transform="translate(-4014.838 7213.79)" fill="#480495"></path><path id="Path_1366" data-name="Path 1366" d="M4124.434-7185.165c-.336-.48-.667-.934-1-1.366C4123.767-7186.1,4124.1-7185.645,4124.434-7185.165Z" transform="translate(-4016.366 7213.099)" fill="#480495"></path><path id="Path_1367" data-name="Path 1367" d="M4126.237-7172.82a141.6,141.6,0,0,0-7.076-12.331A140.679,140.679,0,0,1,4126.237-7172.82Z" transform="translate(-4010.293 7214.259)" fill="#480495"></path><path id="Path_1368" data-name="Path 1368" d="M4124.6-7186.6c-.135-.168-.267-.332-.4-.489C4124.335-7186.928,4124.467-7186.764,4124.6-7186.6Z" transform="translate(-4017.942 7212.631)" fill="#480495"></path><path id="Path_1369" data-name="Path 1369" d="M4119.177-7178.2l-.1-.194C4119.129-7178.288,4119.153-7178.238,4119.177-7178.2Z" transform="translate(-4003.076 7219.942)" fill="#480495"></path></g><g id="Group_709" data-name="Group 709" transform="translate(0 93.726)"><path id="Path_1370" data-name="Path 1370" d="M4102.865-7173.969l-.009,0h0Z" transform="translate(-3866.094 7218.293)" fill="#480495"></path><path id="Path_1371" data-name="Path 1371" d="M4106.208-7175.022c-.229-.088-.418-.16-.532-.207.169.057.347.1.516.161Z" transform="translate(-3874.633 7217.235)" fill="#480495"></path><path id="Path_1372" data-name="Path 1372" d="M4087.143-6897.721c23.663-43.984,62.594-68.967,108.837-83.641,23.492-7.457,47.691-12.67,71.259-19.895,42.16-12.924,66.081-50.742,59.776-92.476-2.156-14.275-9.835-25.7-17.154-37.389h0s-.735-1.2-2.136-3.082a70.18,70.18,0,0,0-14.412-14.419l-.934-.667a53.469,53.469,0,0,0-7.547-4.433l-.011,0h0c-1.949-.832-4.113-1.688-5.188-2.107l-.016-.046c-.168-.057-.343-.106-.515-.163-.515-.163-1.03-.331-1.557-.481a23.641,23.641,0,0,0-.736-2.372c-.023-.061-.049-.121-.071-.18a25.059,25.059,0,0,0-1.084-2.5l-.045-.09c-.021-.043-.047-.093-.1-.2l-.055-.112a140.42,140.42,0,0,0-7.077-12.332l-.014-.022-.011-.012c-.222-.338-.443-.664-.666-.986-.039-.051-.074-.1-.109-.156-.337-.475-.667-.931-1-1.363-.137-.184-.275-.362-.413-.534s-.266-.333-.4-.489c-.233-.275-.459-.537-.681-.775-.077-.079-.149-.152-.222-.229-.229-.232-.451-.442-.667-.623-.074-.063-.143-.123-.215-.179a5.185,5.185,0,0,0-.726-.487s-2.068,0-4.133-4.129a34.988,34.988,0,0,0-.956-12.948c2.033-1.576,4.089-1.182,7.074,4.214a20.073,20.073,0,0,0,15.537,9.646c11.076.824,22.066,1.875,29.483,11.828-.165,1.982-.172,1.987.006,0,14.153,4.757,22.838,16.534,33.349,25.963,8.447,15.221,17.474,30.06,21.515,47.416,14.133,60.712-18.929,120.589-78.831,141.6-28.125,9.861-57.917,14.429-85.387,26.393-23.087,10.053-44.136,22.427-61.794,41.479-28.31,30.544-27.362,91.128,2.759,124.055,18.578,20.311,39.016,38.725,57.368,59.183,21.057,23.481,37.695,49.111,40.875,81.722,1.347,13.791-3.875,26.606-4.056,40.062-.863-.063-1.723-.131-2.585-.193-.006,0-.846.019-2.256.022-5.462.011-19.624-.226-28.562-2.819l-.025.079c-.611-.214-1.207-.44-1.788-.674a17.423,17.423,0,0,1-2.81-1.255l-.007-.016c-7.854-3.954-11.832-10.12-9-20.181l-.016-.032s-.542-5.112-1.365-14.554c-4.429-25.132-17.746-45.4-36.641-62.637-20.6-18.8-41.38-37.49-56.437-61.327C4063.813-6795.964,4059.467-6846.277,4087.143-6897.721Zm201.383-254.17.081.178C4288.652-7151.752,4288.607-7151.813,4288.526-7151.891Z" transform="translate(-4068.723 7198.046)" fill="#e62276"></path><path id="Path_1373" data-name="Path 1373" d="M4100.876-7172.8l-.081-.178C4100.876-7172.9,4100.921-7172.836,4100.876-7172.8Z" transform="translate(-3860.328 7219.13)" fill="#480495"></path></g><g id="Group_710" data-name="Group 710" transform="translate(58.593)"><path id="Path_1374" data-name="Path 1374" d="M4144.942-7213.263c-.111-.288-.213-.569-.328-.858.115.291.217.57.328.858Z" transform="translate(-4043.698 7278.254)" fill="none"></path><path id="Path_1375" data-name="Path 1375" d="M4146.875-7219.516c.1.2.187.408.284.6.132.285.263.563.394.847-.253-.548-.514-1.095-.777-1.64l.1.2Z" transform="translate(-4050.287 7273.567)" fill="none"></path><path id="Path_1376" data-name="Path 1376" d="M4131.026-7187.295h0c.3.6.6,1.2.9,1.806C4131.631-7186.094,4131.325-7186.694,4131.026-7187.295Z" transform="translate(-4005.649 7300.812)" fill="none"></path><path id="Path_1377" data-name="Path 1377" d="M4204.38-7177.4c13.389-2.6,16.095,2.165,16.4,13.007,1.9,22.031,1.3,43.833-7.6,64.479-7.294,16.931-18.7,29.44-38.43,31.529-23.8,7.9-43.35-14.809-39.032-41.668C4141.213-7144.386,4169.648-7170.627,4204.38-7177.4Z" transform="translate(-4102.924 7308.546)" fill="none"></path><path id="Path_1378" data-name="Path 1378" d="M4157-7020.416c.71-1.323,1.389-2.64,2.042-3.959.221-.436.417-.875.627-1.312.422-.876.848-1.756,1.246-2.633.24-.526.46-1.053.691-1.581.343-.784.689-1.573,1.013-2.356.23-.564.446-1.125.668-1.688.294-.748.589-1.5.869-2.241.217-.58.418-1.161.621-1.739.257-.73.516-1.46.755-2.188.195-.584.377-1.173.562-1.759.225-.719.448-1.439.659-2.156.17-.592.334-1.18.495-1.772.2-.711.386-1.427.566-2.137.149-.6.292-1.186.434-1.773q.247-1.067.477-2.132c.126-.59.252-1.184.367-1.774q.207-1.063.395-2.129c.1-.584.206-1.173.3-1.76.115-.713.215-1.424.315-2.136q.122-.875.235-1.747c.087-.717.161-1.434.235-2.149.06-.576.122-1.15.171-1.723.065-.732.111-1.464.16-2.195.037-.557.08-1.111.109-1.668.039-.762.061-1.525.083-2.289.016-.52.042-1.042.05-1.563.015-.84.007-1.682,0-2.525,0-.439.007-.883,0-1.322q-.033-1.868-.126-3.73c0-.033,0-.07,0-.1q-.1-2.048-.278-4.089c-.036-.434-.091-.872-.131-1.305-.089-.921-.177-1.844-.286-2.769-.065-.532-.145-1.064-.214-1.6-.109-.828-.215-1.652-.339-2.475-.087-.571-.187-1.138-.279-1.71-.132-.784-.261-1.571-.407-2.353-.106-.589-.227-1.182-.343-1.768-.15-.767-.3-1.531-.467-2.3-.127-.6-.268-1.2-.4-1.791-.172-.756-.346-1.51-.529-2.266-.149-.6-.3-1.208-.461-1.81-.194-.749-.39-1.492-.594-2.237q-.253-.914-.52-1.832-.318-1.111-.653-2.219c-.184-.609-.375-1.213-.567-1.82q-.349-1.115-.722-2.228c-.2-.61-.4-1.213-.609-1.82q-.385-1.111-.784-2.222c-.217-.6-.433-1.208-.658-1.814-.275-.747-.561-1.488-.844-2.237-.23-.6-.46-1.194-.7-1.792-.3-.75-.6-1.5-.912-2.253q-.36-.89-.728-1.771c-.322-.769-.656-1.536-.989-2.3-.246-.573-.487-1.142-.744-1.714-.356-.806-.726-1.613-1.094-2.42-.244-.53-.481-1.063-.727-1.592-.414-.888-.844-1.775-1.271-2.666-.214-.447-.424-.9-.64-1.34-.294-.605-.6-1.207-.9-1.809h.012l-24.146-48.528c-.109-.287-.212-.564-.325-.854-.082-.2-.161-.408-.242-.616q-.727-1.846-1.5-3.683c-.078-.19-.16-.374-.241-.563-.542-1.274-1.1-2.539-1.666-3.766l0-.007c-.132-.281-.263-.562-.395-.846-.1-.2-.187-.4-.283-.6v.015c-.035-.067-.067-.136-.1-.2-.26-.54-.525-1.076-.792-1.616-.065-.128-.127-.258-.193-.39-.309-.614-.619-1.222-.931-1.833l-.039-.072c-1.2-2.331-2.432-4.642-3.617-6.951l-.138-.265q-.412-.816-.823-1.627c-.094-.194-.188-.385-.285-.575q-.349-.709-.689-1.424c-.113-.232-.224-.469-.335-.706-.208-.441-.409-.883-.609-1.333-.119-.256-.237-.52-.352-.781-.186-.426-.363-.852-.542-1.279-.117-.282-.237-.562-.349-.842-.167-.417-.324-.84-.483-1.261-.109-.293-.222-.582-.327-.875-.152-.421-.292-.846-.43-1.271-.1-.3-.2-.59-.294-.891-.133-.431-.253-.868-.375-1.306-.083-.292-.171-.585-.247-.883-.117-.457-.22-.917-.323-1.377-.062-.286-.135-.567-.193-.854-.1-.507-.182-1.016-.266-1.524-.041-.251-.092-.5-.128-.752-.11-.764-.2-1.535-.26-2.316,6.533,2.821,11.64,6.545,11.48,14.785-.076,3.715,1.986,6.413,5.854,8.088,9.684,4.188,11.659,13.323,13.212,22.435.444,2.6-.089,4.31-1.4,5.189l.367.446c8.034,1.485,12.63,10.9,12.63,10.9a38.013,38.013,0,0,1,5.246,11.828,35.027,35.027,0,0,1,.954,12.948c2.065,4.13,4.131,4.13,4.131,4.13a4.447,4.447,0,0,1,.728.486c.071.056.142.115.215.179.216.18.438.392.667.623.074.077.147.149.222.229.222.238.452.5.682.776.133.157.265.321.4.49s.274.35.414.532q.5.65,1,1.366c.039.055.073.1.111.153.22.322.445.649.668.988l.008.011.016.022a141.227,141.227,0,0,1,7.074,12.332l.057.113.1.193.042.091a24.737,24.737,0,0,1,1.086,2.5c.021.059.049.122.071.181a24.375,24.375,0,0,1,.736,2.372h0a18.154,18.154,0,0,1,.176,9.4c0,2.064,4.131,2.064,4.131,2.064,5.352,5.349,7.806,22.9,8.377,27.6.02.393.031.793.055,1.183.835,13.788,4.189,24.581-3.266,39.929-7.068,14.516-2.645,35.576-26.347,38.609a2.8,2.8,0,0,0-1.755,1.529c-6.322,15.112-19.154,15.423-32.584,14.433C4137.347-6998.057,4149.559-7006.607,4157-7020.416Z" transform="translate(-4026.841 7258.489)" fill="#f28b9d"></path><path id="Path_1379" data-name="Path 1379" d="M4121.37-7044.995c2.377-43.191,26.161-71.767,63.763-90.844,13.205-6.71,28.121-8.009,41.078-14.927a10.94,10.94,0,0,0,1.631-.284,10.593,10.593,0,0,1-1.631.278c-2.178-1.046-2.765-3-2.939-5.183-2.772-3.439-4.981-7.08-4.244-11.78a32.919,32.919,0,0,1-9.739-21.745c-9.157-16.581-13.9-37.841-12.81-59.481,3.1,7.858,5.67,14.358,8.231,20.86.064.781.149,1.551.26,2.316.037.253.088.5.129.75.083.512.165,1.021.265,1.525.059.29.13.569.194.855.1.459.2.921.322,1.375.077.3.166.589.249.885.12.439.242.874.373,1.306.1.3.2.593.3.889.139.426.279.85.43,1.27.1.3.217.583.327.877.16.419.315.841.484,1.261.112.279.232.56.35.844.177.426.354.851.54,1.277.114.263.234.523.35.783.2.448.4.891.612,1.33.11.236.221.476.334.708q.341.71.688,1.423c.094.192.189.38.286.575q.407.811.82,1.625l.138.267c1.187,2.312,2.417,4.619,3.618,6.95l.038.073c.314.611.624,1.221.932,1.836.065.129.129.26.195.386.266.539.532,1.074.792,1.616s.523,1.089.774,1.637l.005.009c.57,1.226,1.126,2.491,1.669,3.764.079.188.161.372.24.562q.774,1.838,1.5,3.685c.081.208.159.41.242.615.111.287.214.568.325.857l24.144,48.524-.009,0c.3.6.607,1.2.9,1.809.217.445.426.889.639,1.337.429.891.857,1.777,1.272,2.669.244.527.481,1.06.726,1.589.368.808.74,1.613,1.1,2.42.254.57.5,1.141.743,1.714.333.767.666,1.533.989,2.3.247.589.487,1.179.729,1.771.306.75.614,1.5.912,2.255.234.6.462,1.2.694,1.79.284.746.57,1.494.845,2.238.227.6.441,1.21.657,1.813.266.74.528,1.484.784,2.225.208.606.41,1.208.61,1.817q.37,1.112.722,2.229.289.907.566,1.823c.225.737.444,1.478.653,2.217q.267.917.518,1.833c.208.744.4,1.488.6,2.235.157.6.312,1.207.46,1.811.185.756.358,1.512.531,2.263.134.6.274,1.195.4,1.8.167.762.319,1.529.469,2.3.115.588.235,1.177.344,1.767.143.785.272,1.569.4,2.356.095.568.192,1.136.278,1.706.124.824.232,1.65.338,2.477.073.53.153,1.063.216,1.594.111.925.2,1.847.286,2.771.04.434.094.868.131,1.3q.177,2.1.282,4.2.093,1.86.125,3.729c.008.439,0,.883,0,1.32.006.841.012,1.686,0,2.526-.01.519-.033,1.041-.049,1.563-.021.762-.043,1.528-.082,2.291-.03.554-.072,1.109-.108,1.664-.048.735-.1,1.464-.162,2.2-.051.569-.112,1.146-.171,1.72-.073.718-.147,1.433-.235,2.149-.072.58-.154,1.165-.235,1.749-.1.711-.2,1.421-.312,2.136-.1.584-.2,1.174-.3,1.759-.126.709-.256,1.419-.4,2.129-.116.593-.241,1.183-.369,1.777-.149.708-.31,1.417-.476,2.126-.139.591-.28,1.181-.429,1.774-.183.712-.37,1.427-.569,2.141-.16.59-.324,1.18-.5,1.771-.209.718-.43,1.438-.657,2.158-.184.586-.367,1.173-.562,1.76-.241.729-.5,1.456-.757,2.183-.2.583-.4,1.163-.62,1.742-.279.748-.574,1.494-.868,2.241-.223.561-.438,1.125-.67,1.687-.324.787-.669,1.575-1.011,2.358-.231.526-.454,1.053-.694,1.579-.4.876-.822,1.753-1.245,2.633-.212.438-.406.875-.624,1.311q-.981,1.984-2.043,3.959c-7.44,13.813-19.649,22.361-31.14,31.919-.7.2-1.415.383-2.124.574v.01s-.555.149-1.478.389c-.147.043-.3.082-.448.12h-.008c-1.331.348-3.211.832-5.261,1.34-.041.047-.085.082-.123.127-1.154.245-2.3.5-3.451.746a52.1,52.1,0,0,1-7.623,1.472l.052-.033C4154.568-6967.3,4118.821-6998.96,4121.37-7044.995Zm71.7,36.194c19.729-2.086,31.137-14.6,38.431-31.529,8.905-20.646,9.5-42.445,7.6-64.478-.311-10.839-3.019-15.608-16.4-13-34.732,6.771-63.166,33.014-68.661,67.348C4149.721-7023.6,4169.267-7000.893,4193.069-7008.8Z" transform="translate(-4121.242 7248.959)" fill="#e62276"></path><path id="Path_1380" data-name="Path 1380" d="M4121.6-7150.387c-.067-1.4-.163-2.793-.281-4.194.116,1.362.208,2.723.279,4.088C4121.6-7150.457,4121.6-7150.42,4121.6-7150.387Z" transform="translate(-3977.424 7328.324)" fill="#e62276"></path></g></g></g><g id="Group_1335" data-name="Group 1335" transform="translate(1059.63 2145.619) rotate(-7)"><g id="Group_1331" data-name="Group 1331" transform="translate(286.179 216)"><path id="Path_4334" data-name="Path 4334" d="M516.246,707.09a88.228,88.228,0,0,0-45.91,12.8v4.355h91.82v-4.356A88.232,88.232,0,0,0,516.246,707.09Z" transform="translate(-377.083 -458.412)" fill="#fed100"></path><g id="Group_1318" data-name="Group 1318" transform="translate(81.099 265.833)"><rect id="Rectangle_261" data-name="Rectangle 261" width="116.13" height="72.586" transform="translate(0 0)" fill="#97512c"></rect></g><g id="Group_1319" data-name="Group 1319" transform="translate(73.079 338.419)"><rect id="Rectangle_262" data-name="Rectangle 262" width="132.17" height="10.982" transform="translate(0 0)" fill="#7c3e25"></rect></g><g id="Group_1320" data-name="Group 1320" transform="translate(55.2)"><path id="Path_4335" data-name="Path 4335" d="M488.325,393.379a26.333,26.333,0,0,1-18.343,0l.013-.034a18.881,18.881,0,0,0-7.735-14.905l-.1-.049a119.835,119.835,0,0,1-41.806-48.9l-.006,0A266.814,266.814,0,0,1,395.188,216H563.115a266.815,266.815,0,0,1-25.164,113.494l-.006,0a119.835,119.835,0,0,1-41.806,48.9l-.092.049a18.881,18.881,0,0,0-7.735,14.905Z" transform="translate(-395.188 -216)" fill="#fed100"></path></g><g id="Group_1321" data-name="Group 1321" transform="translate(123.562 177.845)"><path id="Path_4336" data-name="Path 4336" d="M553.6,567.21a16.253,16.253,0,0,0,5.783,12.44h.012a6.178,6.178,0,0,1-4.189,10.727l-.179,0H536.556l-.179,0a6.178,6.178,0,0,1-4.189-10.727h.012a16.254,16.254,0,0,0,5.783-12.44Z" transform="translate(-530.19 -567.21)" fill="#fed100"></path></g><g id="Group_1322" data-name="Group 1322" transform="translate(123.519 200.891)"><path id="Path_4337" data-name="Path 4337" d="M561.394,665.779a55.537,55.537,0,0,1-31.29,0l.044-.147V655.386a77.186,77.186,0,0,0,4.969-42.666h21.265a77.189,77.189,0,0,0,4.969,42.666v10.246Z" transform="translate(-530.104 -612.72)" fill="#ffdb31"></path></g><g id="Group_1323" data-name="Group 1323" transform="translate(0 0.418)"><path id="Path_4338" data-name="Path 4338" d="M366.025,376.727a17.919,17.919,0,0,1-11.662-4.315,6.256,6.256,0,0,1,8.148-9.5,5.329,5.329,0,0,0,3.515,1.3,5.412,5.412,0,0,0,5.406-5.406,5.469,5.469,0,0,0-.145-1.256,18.106,18.106,0,0,0-4.675-7.919,9.336,9.336,0,0,1-1.326-1.254l-54.747-51.376c-18.14-17.023-31.437-43.678-20.252-64.849a29.091,29.091,0,0,1,24.472-15.313c.15-.011.3-.016.456-.016h.5c.148,0,.3.005.441.015a28.243,28.243,0,0,1,19.862,47.336,6.256,6.256,0,0,1-9.212-8.466,15.732,15.732,0,0,0-11.338-26.372A16.428,16.428,0,0,0,301.347,238c-8.062,15.26,3.551,36.554,17.752,49.882l54.924,51.543c.157.147.287.283.4.4.144.114.283.233.418.36a30.624,30.624,0,0,1,8.526,14.1c.014.05.027.1.04.151a17.928,17.928,0,0,1-17.38,22.284Zm-.585-28.2.026.025Zm5.134-10.039h0Zm-.012,0h0Z" transform="translate(-286.179 -216.826)" fill="#fed100"></path></g><g id="Group_1324" data-name="Group 1324" transform="translate(180.564 0.418)"><path id="Path_4339" data-name="Path 4339" d="M642.758,358.81a17.972,17.972,0,0,1,.537-4.367q.02-.076.04-.151a30.623,30.623,0,0,1,8.526-14.1c.135-.127.274-.247.418-.36.111-.121.24-.257.4-.4L707.6,287.882c14.2-13.327,25.813-34.622,17.752-49.882a16.428,16.428,0,0,0-14.115-8.661A15.732,15.732,0,0,0,699.9,255.711a6.256,6.256,0,0,1-9.212,8.466,28.243,28.243,0,0,1,19.862-47.336c.146-.01.293-.015.441-.015h.5c.153,0,.306.006.456.016a29.091,29.091,0,0,1,24.472,15.313c11.185,21.172-2.112,47.826-20.252,64.849l-54.747,51.376a9.339,9.339,0,0,1-1.326,1.254,18.106,18.106,0,0,0-4.676,7.919,5.474,5.474,0,0,0-.145,1.256,5.412,5.412,0,0,0,5.406,5.406,5.329,5.329,0,0,0,3.515-1.3,6.256,6.256,0,0,1,8.148,9.5,17.917,17.917,0,0,1-29.58-13.6Zm18.476-10.258.026-.025Zm-5.109-10.064h0Zm.011,0h0Z" transform="translate(-642.758 -216.826)" fill="#fed100"></path></g><g id="Group_1325" data-name="Group 1325" transform="translate(62.428 7.641)"><path id="Path_4340" data-name="Path 4340" d="M437.881,231.089H409.462A216.872,216.872,0,0,0,425.4,312.962a120.954,120.954,0,0,1,12.481-81.873Z" transform="translate(-409.462 -231.089)" fill="#ffdf5a"></path></g><g id="Group_1326" data-name="Group 1326" transform="translate(81.098 265.833)"><path id="Path_4341" data-name="Path 4341" d="M446.332,813.554h116.13V740.968S523.651,813.554,446.332,813.554Z" transform="translate(-446.332 -740.968)" fill="#8d492b"></path></g><g id="Group_1327" data-name="Group 1327" transform="translate(96.817 282.586)"><rect id="Rectangle_263" data-name="Rectangle 263" width="84.691" height="41.472" transform="translate(0 0)" fill="#fed100"></rect></g><g id="Group_1328" data-name="Group 1328" transform="translate(2.518 2.847)"><path id="Path_4342" data-name="Path 4342" d="M297.486,242.793a30.9,30.9,0,0,1,26-16.266c.159-.012.322-.017.484-.017h.526c.157,0,.314.005.469.016a29.809,29.809,0,0,1,9.354,1.833,25.2,25.2,0,0,0-16.324-6.722c-.131-.01-.263-.014-.4-.014h-.444c-.137,0-.273.005-.408.015a26.053,26.053,0,0,0-21.916,13.713c-4.6,8.7-4.573,18.442-1.632,27.906A38.637,38.637,0,0,1,297.486,242.793Z" transform="translate(-291.152 -221.622)" fill="#ffdf5a"></path></g><g id="Group_1330" data-name="Group 1330" transform="translate(97.768)"><g id="Group_1329" data-name="Group 1329"><path id="Path_4343" data-name="Path 4343" d="M479.251,356.6a119.987,119.987,0,0,0,24.408,21.788l.1.049a18.88,18.88,0,0,1,7.735,14.905l-.013.034a26.333,26.333,0,0,0,18.343,0l-.013-.033a18.881,18.881,0,0,1,7.736-14.905l.092-.049a119.835,119.835,0,0,0,41.806-48.9l.005,0A266.806,266.806,0,0,0,604.611,216C567.509,362.976,479.655,356.6,479.251,356.6Z" transform="translate(-479.251 -216)" fill="#fcc200"></path></g></g></g><g id="Group_1334" data-name="Group 1334" transform="translate(380.444 251.47)"><g id="Group_1332" data-name="Group 1332" transform="translate(0 0)"><circle id="Ellipse_254" data-name="Ellipse 254" cx="39.135" cy="39.135" r="39.135" transform="translate(0 77.259) rotate(-80.783)" fill="#fff3c0"></circle></g><g id="Group_1333" data-name="Group 1333" transform="translate(32.648 16.802)"><path id="Path_4344" data-name="Path 4344" d="M545.379,376.646V329.66h-8.573V319.228h20.219v57.418Z" transform="translate(-536.806 -319.228)" fill="#d69a13"></path></g></g></g></g><path id="Path_4345" data-name="Path 4345" d="M7898.233,15870.313s23.709-3.2,39.906-10.72,0,23.853,0,23.853-1.875,7.287-6.215,9.2a84.229,84.229,0,0,1-22.983,6.81c-10.526,1.443-16.72-16.013-16.72-16.013Z" transform="translate(-6387 -13367)" fill="#e62276"></path><path id="Path_4346" data-name="Path 4346" d="M7905.548,15900.425c2.55-.229,17.617-4.07,27.605-8.311S7939.4,15912,7939.4,15912a12.341,12.341,0,0,1-3.3,1.6c-1.033.11-4.767.892-6.292-.937s-2.7-4.5-2.833-2.665-7.292,7.7-17.858,10.186-10.2-4.88-10.2-4.88S7903,15900.653,7905.548,15900.425Z" transform="translate(-6387 -13367)" fill="#f28b9d"></path></g></svg>