<svg xmlns="http://www.w3.org/2000/svg" xmlns:xlink="http://www.w3.org/1999/xlink" width="598" height="598" viewBox="0 0 598 598"><defs><clipPath id="clip-path"><rect id="Rectangle_276" data-name="Rectangle 276" width="598" height="598" transform="translate(406 2264)" fill="#fff"></rect></clipPath><clipPath id="clip-path-2"><rect id="Rectangle_273" data-name="Rectangle 273" width="237" height="98" transform="translate(0.301 -0.386)" fill="#fff"></rect></clipPath></defs><g id="Group_1351" data-name="Group 1351" transform="translate(-405 -2264)"><g id="Mask_Group_49" data-name="Mask Group 49" transform="translate(-1)" clip-path="url(#clip-path)"><g id="Group_1344" data-name="Group 1344" transform="translate(25.528 1)"><g id="Group_1297" data-name="Group 1297" transform="translate(903.086 2422.851) rotate(89)"><path id="Path_1318" data-name="Path 1318" d="M0,12.168C16.1-1.57,35.07-2.521,54.49,3.6c19.737,6.226,30.3,20.451,34.792,38.617,6.683,27-2.9,51.743-13.771,75.975-9.21,20.521-16.07,40.965-9.752,63.3-8.373-8.617-8.814-19.419-9.847-30.022-1.069-10.957,4.184-21.708.791-32.946-.925-3.069,2.483-7.35,4.27-10.921.875-1.747,3.717-3.13,3.748-4.71.4-21.264,12.363-41.964,1.858-63.922-6-12.551-18.025-18.76-27.992-27.071-4.7-3.917-11.789-3.145-18.317.341C14.045,15.57,6.7,18.6,0,12.168Z" transform="translate(106.729 37.767)" fill="#f28b9d"></path><g id="Group_703" data-name="Group 703" transform="translate(0 27.481)"><path id="Path_1319" data-name="Path 1319" d="M43.644,88.641c-.021-20.125-7.462-41.317-22.309-61.905C14.676,17.5,7.481,8.652,0,0,7.481,8.652,14.676,17.5,21.335,26.735,36.182,47.323,43.62,68.516,43.644,88.641Z" transform="translate(183.105 319.505)" fill="none"></path><path id="Path_1320" data-name="Path 1320" d="M0,0C.636,1.361,1.314,2.922,2.2,4.875,1.311,2.917.643,1.376,0,0Z" transform="translate(98.66 629.556)" fill="none"></path><path id="Path_1321" data-name="Path 1321" d="M113.733,134.114c-13.11-14.89-27.029-29.2-40.691-43.682C46.149,61.937,20.588,32.569,0,0,20.588,32.569,46.149,61.937,73.042,90.433,86.7,104.914,100.623,119.226,113.733,134.114Z" transform="translate(66.048 181.572)" fill="none"></path><path id="Path_1322" data-name="Path 1322" d="M19.841,16.165C-3.689,45.7-6.012,76.7,11.391,109.263c.269.5.523,1.015.778,1.545-.258-.53-.509-1.044-.778-1.545C-6.012,76.7-3.689,45.7,19.841,16.165A113.077,113.077,0,0,1,35.7,0,113.077,113.077,0,0,0,19.841,16.165Z" transform="translate(86.312 518.358)" fill="none"></path><path id="Path_1323" data-name="Path 1323" d="M0,67.8C.148,43.606,6.01,20.947,18.674,0,6.01,20.947.148,43.606,0,67.8Z" transform="translate(36.015 25.066)" fill="none"></path><path id="Path_1324" data-name="Path 1324" d="M9.307,0A140.364,140.364,0,0,0,0,13.448,140.364,140.364,0,0,1,9.307,0Z" transform="translate(54.688 11.619)" fill="none"></path><path id="Path_1325" data-name="Path 1325" d="M.223,2.553C.147,1.761.072.917,0,0,.072.917.147,1.761.223,2.553Z" transform="translate(36.747 109.444)" fill="none"></path><path id="Path_1326" data-name="Path 1326" d="M0,0C.05.182.116.332.173.5h0C.116.328.05.182,0,0Z" transform="translate(37.785 117.189)" fill="none"></path><path id="Path_1327" data-name="Path 1327" d="M0,0A30.531,30.531,0,0,0,.79,4.927,30.358,30.358,0,0,1,0,0Z" transform="translate(36.996 112.261)" fill="none"></path><path id="Path_1328" data-name="Path 1328" d="M2.14,0A77.586,77.586,0,0,1,0,10.11,77.586,77.586,0,0,0,2.14,0Z" transform="translate(223.78 419.511)" fill="none"></path><path id="Path_1329" data-name="Path 1329" d="M204.439,346.243c-6.657-9.23-13.851-18.084-21.332-26.736q-1.656-1.919-3.325-3.821c-13.111-14.887-27.028-29.2-40.691-43.68-26.893-28.5-52.453-57.864-73.042-90.436q-2.2-3.486-4.334-7.029-1.973-3.286-3.874-6.617l-.058.061c-11.925-15.535-17.7-39.453-19.822-50.3-.057-.168-.124-.314-.174-.5A30.745,30.745,0,0,1,37,112.263c-.022-.162-.039-.268-.039-.268h.01c-.077-.79-.148-1.635-.222-2.551-.08-1.006-.162-2.067-.252-3.236q-.516-6.749-.479-13.346c.148-24.191,6.01-46.847,18.674-67.8A140.638,140.638,0,0,1,64,11.622c.858-1.105,1.694-2.215,2.593-3.31,1.966-2.387,5.187-4.571,3.2-8.312-4.669-.038-6.483,6.26-11.262,4.881C45.536,1.126,40.635,12.977,40.988,17.454c1.1,14.085-10.246,17.357-18.805,23.679-8.324,6.144-15.294,15.721-9.556,23.643,7.4,10.212,2.236,14.352-4.531,20.262-9.946,8.686-11.061,25.6-1.48,34.565,6.05,5.66,6.667,10.208,1.8,16.471-9.835,12.645-6.023,27.569,8.416,36.337,4.886,2.965,12.091,6.409.652,11.141-7.086,2.932-6.349,9.381-3.65,14.542,4.137,7.9,5.679,20.527,17.026,20.216,10.711-.292,9.246,3.915,9.087,9.34-.34,11.423,5.425,20.6,15.379,26,9.14,4.959,13.544,11.758,16.535,20.135,1.92,5.366,3.813,11.236,9,14.232,21.631,12.494,27.8,37.267,48.881,50.313,5.37,3.327,8.172,9.709,9.467,16.453,1.312,6.821,1.719,17.088,9.067,18.839,15.581,3.717,12.7,12.824,12,22.559-.333,4.667.821,9.475,1.715,14.155,1.442,7.538-.517,13.1-8.894,16.355-11.48,4.463-19.91,12.542-28.364,20.648-6.547,6.28-13.687,11.76-24.375,11.648-19.737-.2-33.837,12.478-34.751,31.057-.342,6.938-3.649,11.357-10.994,12.5-19.786,3.1-31.414,20.651-24.16,38.79,4.81,12.035,1.794,21.872-4.853,32.308-7.435,11.67-8.366,25.71-1.234,36.514,7.675,11.632,17.4,24.239,35.542,25.077h41.322c-.12-.258-.209-.465-.32-.709l-.043-.1c-.887-1.951-1.566-3.513-2.2-4.874-.06-.124-.121-.262-.18-.388-.253-.531-.51-1.039-.776-1.543-17.4-32.565-15.083-63.565,8.448-93.1a113.291,113.291,0,0,1,15.859-16.165q5.175-4.347,10.79-8.187a238.885,238.885,0,0,1,32.163-18.112c32.228-15.481,51.8-37.533,58.815-62.436a77.546,77.546,0,0,0,2.14-10.11,79.342,79.342,0,0,0,.829-11.365C226.726,388.022,219.289,366.829,204.439,346.243Z" fill="#f28b9d"></path><path id="Path_1330" data-name="Path 1330" d="M0,0A30.287,30.287,0,0,0,.787,4.927c.052.18.116.326.174.5C.4,2.581.1.654,0,0Z" transform="translate(36.999 112.264)" fill="#e62276"></path><path id="Path_1331" data-name="Path 1331" d="M.483,13.346c.09,1.169.171,2.23.251,3.237C.654,15.577.574,14.515.483,13.346Q-.033,6.6,0,0-.034,6.6.483,13.346Z" transform="translate(36.012 92.86)" fill="#e62276"></path><path id="Path_1332" data-name="Path 1332" d="M3.876,6.619Q1.9,3.332,0,0H0Q1.906,3.328,3.876,6.619Z" transform="translate(57.838 167.924)" fill="#e62276"></path><path id="Path_1333" data-name="Path 1333" d="M0,0C.059.126.118.262.18.388.121.262.059.126,0,0Z" transform="translate(98.48 629.167)" fill="#e62276"></path><path id="Path_1334" data-name="Path 1334" d="M32.163,62.437A238.968,238.968,0,0,0,0,80.548,238.968,238.968,0,0,1,32.163,62.437C64.391,46.958,83.962,24.9,90.979,0,83.961,24.9,64.391,46.958,32.163,62.437Z" transform="translate(132.801 429.623)" fill="#e62276"></path><path id="Path_1335" data-name="Path 1335" d="M10.793,0Q5.19,3.855,0,8.189,5.177,3.84,10.793,0Z" transform="translate(122.01 510.17)" fill="#e62276"></path><path id="Path_1336" data-name="Path 1336" d="M0,0Q1.673,1.9,3.325,3.822,1.67,1.9,0,0Z" transform="translate(179.781 315.685)" fill="#e62276"></path><path id="Path_1337" data-name="Path 1337" d="M.042.095h0L0,0Z" transform="translate(100.863 634.429)" fill="#e62276"></path><path id="Path_1338" data-name="Path 1338" d="M2.593,8.312c-.9,1.094-1.734,2.2-2.592,3.31.858-1.105,1.693-2.215,2.592-3.31C4.559,5.925,7.779,3.741,5.793,0h0C7.779,3.741,4.559,5.925,2.593,8.312Z" transform="translate(63.996 0)" fill="#e62276"></path><path id="Path_1339" data-name="Path 1339" d="M.829,0A79.737,79.737,0,0,1,0,11.365,79.711,79.711,0,0,0,.829,0Z" transform="translate(225.92 408.146)" fill="#e62276"></path><path id="Path_1340" data-name="Path 1340" d="M.029.266v0C.021.174.01.094,0,0H0C.01.094.021.172.029.266Z" transform="translate(36.97 111.995)" fill="#e62276"></path><path id="Path_1341" data-name="Path 1341" d="M0,0S.017.106.039.266C.031.172.02.094.011,0Z" transform="translate(36.959 111.995)" fill="#e62276"></path><path id="Path_1342" data-name="Path 1342" d="M0,0" transform="translate(53.259 160.244)" fill="#e62276"></path></g><g id="Group_704" data-name="Group 704" transform="translate(36.012 0)"><path id="Path_1343" data-name="Path 1343" d="M.208,0,0,.219C.061.33.075.43.125.542.262.384.4.227.538.074.421.042.33.034.208,0Z" transform="translate(33.777 27.262)" fill="#e62276"></path><path id="Path_1344" data-name="Path 1344" d="M218.419,357.89c-22.071-27.832-49.885-50.917-74.844-76.357C108.2,245.479,69.293,211.974,47.342,166.61h0c-6.461-11.231-5.129-24.387-10.624-35.859-.063-4.324-.346-8.659-.152-12.977,1.215-26.851,7.255-51.721,34.151-67.839,16.1-13.738,35.069-14.688,54.488-8.562C144.942,47.6,155.5,61.82,160,79.989c6.682,27-2.9,51.742-13.771,75.977-9.208,20.519-16.073,40.963-9.752,63.3l9.141,13.5c-.632-12.375-2.7-23.878,1.61-35.6,4.459-12.145,10.886-23.294,18.243-34.06,16.638-24.353,27.657-50.206,26.725-79.484-1.149-36.24-17.778-64.057-55.652-77.268-34.1-11.9-66.405-7.11-94.466,14.686v-.058a41.517,41.517,0,0,0-7.759,6.36c-.142.153-.276.312-.416.468,1.116,2.42.049,4.189-1.366,5.806-.649.739-1.36,1.453-1.961,2.182-.9,1.092-1.735,2.2-2.591,3.309a140.393,140.393,0,0,0-9.308,13.445C6.011,73.494.149,96.151,0,120.341q-.037,6.6.481,13.346c.09,1.169.171,2.231.251,3.236.072.917.146,1.761.223,2.551.008.095.019.178.029.269.1.653.4,2.582.958,5.428q.765,2.34,0,0c2.124,10.84,7.9,34.76,19.824,50.294l.059-.061q1.905,3.327,3.875,6.62,2.127,3.536,4.332,7.029c20.587,32.568,46.149,61.937,73.042,90.433,13.663,14.479,27.58,28.79,40.691,43.678,1.116,1.268,2.22,2.544,3.325,3.821,7.481,8.653,14.676,17.506,21.333,26.737,14.846,20.588,22.288,41.78,22.309,61.9a79.226,79.226,0,0,1-.829,11.365,78.082,78.082,0,0,1-2.139,10.111c-7.015,24.9-26.588,46.957-58.815,62.436a238.911,238.911,0,0,0-32.164,18.111c-3.734,2.572-7.34,5.29-10.792,8.189A113.126,113.126,0,0,0,70.14,562.007c-23.531,29.532-25.852,60.533-8.449,93.1.267.5.52,1.013.777,1.544.058.125.12.263.18.387.642,1.377,1.31,2.916,2.2,4.875l.042.094H98.781c16.43-5.622,16.4-6.237,14.017-24.678-5.538-42.714,4.779-60.17,46.775-79.119,2.341-1.057,4.75-1.988,7.075-3.075C247.732,517.3,271.8,425.211,218.419,357.89Z" fill="#e62276"></path></g></g><rect id="Rectangle_272" data-name="Rectangle 272" width="190.995" height="355.493" rx="31" transform="matrix(0.996, 0.087, -0.087, 0.996, 671.983, 2295.14)" fill="#122047"></rect><rect id="Rectangle_274" data-name="Rectangle 274" width="170.995" height="336.581" rx="22" transform="matrix(0.996, 0.087, -0.087, 0.996, 681.121, 2305.431)" fill="#f4f7ff"></rect><g id="Mask_Group_48" data-name="Mask Group 48" transform="translate(679.555 2556.914) rotate(8)" clip-path="url(#clip-path-2)"><g id="Group_1343" data-name="Group 1343" transform="translate(202.697 -163.325) rotate(81)"><path id="Path_1318-2" data-name="Path 1318" d="M0,12.168C16.1-1.57,35.07-2.521,54.49,3.6c19.737,6.226,30.3,20.451,34.792,38.617,6.683,27-2.9,51.743-13.771,75.975-9.21,20.521-16.07,40.965-9.752,63.3-8.373-8.617-8.814-19.419-9.847-30.022-1.069-10.957,4.184-21.708.791-32.946-.925-3.069,2.483-7.35,4.27-10.921.875-1.747,3.717-3.13,3.748-4.71.4-21.264,12.363-41.964,1.858-63.922-6-12.551-18.025-18.76-27.992-27.071-4.7-3.917-11.789-3.145-18.317.341C14.045,15.57,6.7,18.6,0,12.168Z" transform="translate(106.729 37.767)" fill="#f28b9d"></path><g id="Group_703-2" data-name="Group 703" transform="translate(0 27.481)"><path id="Path_1319-2" data-name="Path 1319" d="M43.644,88.641c-.021-20.125-7.462-41.317-22.309-61.905C14.676,17.5,7.481,8.652,0,0,7.481,8.652,14.676,17.5,21.335,26.735,36.182,47.323,43.62,68.516,43.644,88.641Z" transform="translate(183.105 319.505)" fill="none"></path><path id="Path_1320-2" data-name="Path 1320" d="M0,0C.636,1.361,1.314,2.922,2.2,4.875,1.311,2.917.643,1.376,0,0Z" transform="translate(98.66 629.556)" fill="none"></path><path id="Path_1321-2" data-name="Path 1321" d="M113.733,134.114c-13.11-14.89-27.029-29.2-40.691-43.682C46.149,61.937,20.588,32.569,0,0,20.588,32.569,46.149,61.937,73.042,90.433,86.7,104.914,100.623,119.226,113.733,134.114Z" transform="translate(66.048 181.572)" fill="none"></path><path id="Path_1322-2" data-name="Path 1322" d="M19.841,16.165C-3.689,45.7-6.012,76.7,11.391,109.263c.269.5.523,1.015.778,1.545-.258-.53-.509-1.044-.778-1.545C-6.012,76.7-3.689,45.7,19.841,16.165A113.077,113.077,0,0,1,35.7,0,113.077,113.077,0,0,0,19.841,16.165Z" transform="translate(86.312 518.358)" fill="none"></path><path id="Path_1323-2" data-name="Path 1323" d="M0,67.8C.148,43.606,6.01,20.947,18.674,0,6.01,20.947.148,43.606,0,67.8Z" transform="translate(36.015 25.066)" fill="none"></path><path id="Path_1324-2" data-name="Path 1324" d="M9.307,0A140.364,140.364,0,0,0,0,13.448,140.364,140.364,0,0,1,9.307,0Z" transform="translate(54.688 11.619)" fill="none"></path><path id="Path_1325-2" data-name="Path 1325" d="M.223,2.553C.147,1.761.072.917,0,0,.072.917.147,1.761.223,2.553Z" transform="translate(36.747 109.444)" fill="none"></path><path id="Path_1326-2" data-name="Path 1326" d="M0,0C.05.182.116.332.173.5h0C.116.328.05.182,0,0Z" transform="translate(37.785 117.189)" fill="none"></path><path id="Path_1327-2" data-name="Path 1327" d="M0,0A30.531,30.531,0,0,0,.79,4.927,30.358,30.358,0,0,1,0,0Z" transform="translate(36.996 112.261)" fill="none"></path><path id="Path_1328-2" data-name="Path 1328" d="M2.14,0A77.586,77.586,0,0,1,0,10.11,77.586,77.586,0,0,0,2.14,0Z" transform="translate(223.78 419.511)" fill="none"></path><path id="Path_1329-2" data-name="Path 1329" d="M204.439,346.243c-6.657-9.23-13.851-18.084-21.332-26.736q-1.656-1.919-3.325-3.821c-13.111-14.887-27.028-29.2-40.691-43.68-26.893-28.5-52.453-57.864-73.042-90.436q-2.2-3.486-4.334-7.029-1.973-3.286-3.874-6.617l-.058.061c-11.925-15.535-17.7-39.453-19.822-50.3-.057-.168-.124-.314-.174-.5A30.745,30.745,0,0,1,37,112.263c-.022-.162-.039-.268-.039-.268h.01c-.077-.79-.148-1.635-.222-2.551-.08-1.006-.162-2.067-.252-3.236q-.516-6.749-.479-13.346c.148-24.191,6.01-46.847,18.674-67.8A140.638,140.638,0,0,1,64,11.622c.858-1.105,1.694-2.215,2.593-3.31,1.966-2.387,5.187-4.571,3.2-8.312-4.669-.038-6.483,6.26-11.262,4.881C45.536,1.126,40.635,12.977,40.988,17.454c1.1,14.085-10.246,17.357-18.805,23.679-8.324,6.144-15.294,15.721-9.556,23.643,7.4,10.212,2.236,14.352-4.531,20.262-9.946,8.686-11.061,25.6-1.48,34.565,6.05,5.66,6.667,10.208,1.8,16.471-9.835,12.645-6.023,27.569,8.416,36.337,4.886,2.965,12.091,6.409.652,11.141-7.086,2.932-6.349,9.381-3.65,14.542,4.137,7.9,5.679,20.527,17.026,20.216,10.711-.292,9.246,3.915,9.087,9.34-.34,11.423,5.425,20.6,15.379,26,9.14,4.959,13.544,11.758,16.535,20.135,1.92,5.366,3.813,11.236,9,14.232,21.631,12.494,27.8,37.267,48.881,50.313,5.37,3.327,8.172,9.709,9.467,16.453,1.312,6.821,1.719,17.088,9.067,18.839,15.581,3.717,12.7,12.824,12,22.559-.333,4.667.821,9.475,1.715,14.155,1.442,7.538-.517,13.1-8.894,16.355-11.48,4.463-19.91,12.542-28.364,20.648-6.547,6.28-13.687,11.76-24.375,11.648-19.737-.2-33.837,12.478-34.751,31.057-.342,6.938-3.649,11.357-10.994,12.5-19.786,3.1-31.414,20.651-24.16,38.79,4.81,12.035,1.794,21.872-4.853,32.308-7.435,11.67-8.366,25.71-1.234,36.514,7.675,11.632,17.4,24.239,35.542,25.077h41.322c-.12-.258-.209-.465-.32-.709l-.043-.1c-.887-1.951-1.566-3.513-2.2-4.874-.06-.124-.121-.262-.18-.388-.253-.531-.51-1.039-.776-1.543-17.4-32.565-15.083-63.565,8.448-93.1a113.291,113.291,0,0,1,15.859-16.165q5.175-4.347,10.79-8.187a238.885,238.885,0,0,1,32.163-18.112c32.228-15.481,51.8-37.533,58.815-62.436a77.546,77.546,0,0,0,2.14-10.11,79.342,79.342,0,0,0,.829-11.365C226.726,388.022,219.289,366.829,204.439,346.243Z" fill="#f28b9d"></path><path id="Path_1330-2" data-name="Path 1330" d="M0,0A30.287,30.287,0,0,0,.787,4.927c.052.18.116.326.174.5C.4,2.581.1.654,0,0Z" transform="translate(36.999 112.264)" fill="#e62276"></path><path id="Path_1331-2" data-name="Path 1331" d="M.483,13.346c.09,1.169.171,2.23.251,3.237C.654,15.577.574,14.515.483,13.346Q-.033,6.6,0,0-.034,6.6.483,13.346Z" transform="translate(36.012 92.86)" fill="#e62276"></path><path id="Path_1332-2" data-name="Path 1332" d="M3.876,6.619Q1.9,3.332,0,0H0Q1.906,3.328,3.876,6.619Z" transform="translate(57.838 167.924)" fill="#e62276"></path><path id="Path_1333-2" data-name="Path 1333" d="M0,0C.059.126.118.262.18.388.121.262.059.126,0,0Z" transform="translate(98.48 629.167)" fill="#e62276"></path><path id="Path_1334-2" data-name="Path 1334" d="M32.163,62.437A238.968,238.968,0,0,0,0,80.548,238.968,238.968,0,0,1,32.163,62.437C64.391,46.958,83.962,24.9,90.979,0,83.961,24.9,64.391,46.958,32.163,62.437Z" transform="translate(132.801 429.623)" fill="#e62276"></path><path id="Path_1335-2" data-name="Path 1335" d="M10.793,0Q5.19,3.855,0,8.189,5.177,3.84,10.793,0Z" transform="translate(122.01 510.17)" fill="#e62276"></path><path id="Path_1336-2" data-name="Path 1336" d="M0,0Q1.673,1.9,3.325,3.822,1.67,1.9,0,0Z" transform="translate(179.781 315.685)" fill="#e62276"></path><path id="Path_1337-2" data-name="Path 1337" d="M.042.095h0L0,0Z" transform="translate(100.863 634.429)" fill="#e62276"></path><path id="Path_1338-2" data-name="Path 1338" d="M2.593,8.312c-.9,1.094-1.734,2.2-2.592,3.31.858-1.105,1.693-2.215,2.592-3.31C4.559,5.925,7.779,3.741,5.793,0h0C7.779,3.741,4.559,5.925,2.593,8.312Z" transform="translate(63.996 0)" fill="#e62276"></path><path id="Path_1339-2" data-name="Path 1339" d="M.829,0A79.737,79.737,0,0,1,0,11.365,79.711,79.711,0,0,0,.829,0Z" transform="translate(225.92 408.146)" fill="#e62276"></path><path id="Path_1340-2" data-name="Path 1340" d="M.029.266v0C.021.174.01.094,0,0H0C.01.094.021.172.029.266Z" transform="translate(36.97 111.995)" fill="#e62276"></path><path id="Path_1341-2" data-name="Path 1341" d="M0,0S.017.106.039.266C.031.172.02.094.011,0Z" transform="translate(36.959 111.995)" fill="#e62276"></path><path id="Path_1342-2" data-name="Path 1342" d="M0,0" transform="translate(53.259 160.244)" fill="#e62276"></path></g><g id="Group_704-2" data-name="Group 704" transform="translate(36.012 0)"><path id="Path_1343-2" data-name="Path 1343" d="M.208,0,0,.219C.061.33.075.43.125.542.262.384.4.227.538.074.421.042.33.034.208,0Z" transform="translate(33.777 27.262)" fill="#e62276"></path><path id="Path_1344-2" data-name="Path 1344" d="M218.419,357.89c-22.071-27.832-49.885-50.917-74.844-76.357C108.2,245.479,69.293,211.974,47.342,166.61h0c-6.461-11.231-5.129-24.387-10.624-35.859-.063-4.324-.346-8.659-.152-12.977,1.215-26.851,7.255-51.721,34.151-67.839,16.1-13.738,35.069-14.688,54.488-8.562C144.942,47.6,155.5,61.82,160,79.989c6.682,27-2.9,51.742-13.771,75.977-9.208,20.519-16.073,40.963-9.752,63.3l9.141,13.5c-.632-12.375-2.7-23.878,1.61-35.6,4.459-12.145,10.886-23.294,18.243-34.06,16.638-24.353,27.657-50.206,26.725-79.484-1.149-36.24-17.778-64.057-55.652-77.268-34.1-11.9-66.405-7.11-94.466,14.686v-.058a41.517,41.517,0,0,0-7.759,6.36c-.142.153-.276.312-.416.468,1.116,2.42.049,4.189-1.366,5.806-.649.739-1.36,1.453-1.961,2.182-.9,1.092-1.735,2.2-2.591,3.309a140.393,140.393,0,0,0-9.308,13.445C6.011,73.494.149,96.151,0,120.341q-.037,6.6.481,13.346c.09,1.169.171,2.231.251,3.236.072.917.146,1.761.223,2.551.008.095.019.178.029.269.1.653.4,2.582.958,5.428q.765,2.34,0,0c2.124,10.84,7.9,34.76,19.824,50.294l.059-.061q1.905,3.327,3.875,6.62,2.127,3.536,4.332,7.029c20.587,32.568,46.149,61.937,73.042,90.433,13.663,14.479,27.58,28.79,40.691,43.678,1.116,1.268,2.22,2.544,3.325,3.821,7.481,8.653,14.676,17.506,21.333,26.737,14.846,20.588,22.288,41.78,22.309,61.9a79.226,79.226,0,0,1-.829,11.365,78.082,78.082,0,0,1-2.139,10.111c-7.015,24.9-26.588,46.957-58.815,62.436a238.911,238.911,0,0,0-32.164,18.111c-3.734,2.572-7.34,5.29-10.792,8.189A113.126,113.126,0,0,0,70.14,562.007c-23.531,29.532-25.852,60.533-8.449,93.1.267.5.52,1.013.777,1.544.058.125.12.263.18.387.642,1.377,1.31,2.916,2.2,4.875l.042.094H98.781c16.43-5.622,16.4-6.237,14.017-24.678-5.538-42.714,4.779-60.17,46.775-79.119,2.341-1.057,4.75-1.988,7.075-3.075C247.732,517.3,271.8,425.211,218.419,357.89Z" fill="#e62276"></path></g></g></g><rect id="Rectangle_275" data-name="Rectangle 275" width="73" height="15.614" rx="7" transform="matrix(0.996, 0.087, -0.087, 0.996, 731.195, 2302.251)" fill="#122047"></rect></g></g><rect id="Rectangle_277" data-name="Rectangle 277" width="172.567" height="107.1" rx="9" transform="matrix(0.996, 0.087, -0.087, 0.996, 665.72, 2392.713)" fill="#cdd5e6"></rect><rect id="Rectangle_278" data-name="Rectangle 278" width="129" height="30" rx="8" transform="matrix(0.996, 0.087, -0.087, 0.996, 680.25, 2456.467)" fill="#fff"></rect><g id="Group_1309" data-name="Group 1309" transform="matrix(0.993, -0.122, 0.122, 0.993, 784.105, 2489.02)"><g id="Group_28" data-name="Group 28"><g id="Group_19" data-name="Group 19"><path id="Path_34" data-name="Path 34" d="M-4910.835,817.218a.236.236,0,0,1-.122-.069c-.625-.484-1.246-.976-1.874-1.456a3.41,3.41,0,0,0-3.168-.605,3.288,3.288,0,0,0-1.7,1.164c-.264.338-.524.68-.783,1.022a3.274,3.274,0,0,0-.379.639,3.543,3.543,0,0,0,.947,4.16l1.6,1.354,5.45,4.613q2.694,2.281,5.393,4.561a1.256,1.256,0,0,1,.385.549q.447,1.247.9,2.494c.072.2.147.393.215.593a5.688,5.688,0,0,0,.231.6,2.572,2.572,0,0,0,3.181,1.317q.755-.264,1.511-.539l2.245-.807,2.221-.8q1.561-.564,3.123-1.128c1.243-.448,2.49-.886,3.73-1.343a2.516,2.516,0,0,0,1.537-1.555.726.726,0,0,0,.042-.209q.149-3.362.3-6.726.127-2.784.254-5.568c.027-.575.06-1.15.084-1.726a2.8,2.8,0,0,0-.146-1.08q-.366-1.016-.727-2.032c-.462-1.289-.92-2.577-1.383-3.864q-.645-1.8-1.3-3.6a5.629,5.629,0,0,0-.3-.749,2.591,2.591,0,0,0-2.462-1.345,3.641,3.641,0,0,0-.926.238q-1.038.376-2.078.749c-.118.043-.12.041-.189-.061a2.562,2.562,0,0,0-2.846-1.038c-.255.075-.5.171-.751.26q-.981.352-1.959.708c-.1.035-.087.049-.152-.044a2.523,2.523,0,0,0-.435-.464,2.506,2.506,0,0,0-1.051-.531,2.559,2.559,0,0,0-.958-.047,3.983,3.983,0,0,0-.8.232q-1.093.391-2.186.786c-.1.035-.1.034-.133-.061-.211-.586-.42-1.172-.632-1.758-.284-.787-.571-1.574-.854-2.362-.244-.677-.483-1.356-.73-2.032-.142-.391-.264-.79-.434-1.171a3.426,3.426,0,0,0-2.14-1.939,3.373,3.373,0,0,0-2.288.064c-.292.107-.586.212-.877.32a4.88,4.88,0,0,0-.54.216,3.427,3.427,0,0,0-1.763,2.057,3.4,3.4,0,0,0,.022,2.218c.211.609.432,1.213.65,1.818.281.78.565,1.559.847,2.339q.568,1.579,1.135,3.16.4,1.105.8,2.208.706,1.96,1.411,3.92.365,1.01.732,2.019C-4910.914,816.994-4910.877,817.1-4910.835,817.218Z" transform="translate(4919.172 -796.382)" fill="#f9faf9"></path></g><g id="Group_20" data-name="Group 20" transform="translate(11.71 37.391)"><path id="Path_35" data-name="Path 35" d="M-4910.512,824l-.023-.005c-.014-.015,0-.03.008-.042s.021-.014.026,0A.038.038,0,0,1-4910.512,824Z" transform="translate(4910.542 -823.941)" fill="#26282a"></path></g><g id="Group_21" data-name="Group 21"><path id="Path_36" data-name="Path 36" d="M-4910.835,817.218c-.042-.119-.079-.224-.116-.328q-.367-1.009-.732-2.019-.705-1.958-1.411-3.92-.4-1.1-.8-2.208-.568-1.579-1.135-3.16c-.281-.78-.566-1.559-.847-2.339-.218-.605-.439-1.209-.65-1.818a3.4,3.4,0,0,1-.022-2.218,3.427,3.427,0,0,1,1.763-2.057,4.88,4.88,0,0,1,.54-.216c.292-.109.585-.213.877-.32a3.373,3.373,0,0,1,2.288-.064,3.426,3.426,0,0,1,2.14,1.939c.169.381.292.78.434,1.171.247.677.486,1.355.73,2.032.284.788.57,1.575.854,2.362.212.586.42,1.172.632,1.758.034.1.035.1.133.061q1.092-.393,2.186-.786a3.983,3.983,0,0,1,.8-.232,2.559,2.559,0,0,1,.958.047,2.506,2.506,0,0,1,1.051.531,2.523,2.523,0,0,1,.435.464c.065.092.054.079.152.044q.979-.356,1.959-.708c.25-.089.5-.186.751-.26a2.562,2.562,0,0,1,2.846,1.038c.069.1.071.1.189.061q1.039-.373,2.078-.749a3.641,3.641,0,0,1,.926-.238,2.591,2.591,0,0,1,2.462,1.345,5.629,5.629,0,0,1,.3.749q.65,1.8,1.3,3.6c.462,1.288.92,2.575,1.383,3.864q.361,1.016.727,2.032a2.8,2.8,0,0,1,.146,1.08c-.024.575-.058,1.15-.084,1.726q-.128,2.784-.254,5.568-.152,3.362-.3,6.726a.726.726,0,0,1-.042.209,2.516,2.516,0,0,1-1.537,1.555c-1.241.457-2.487.9-3.73,1.343q-1.563.562-3.123,1.128l-2.221.8-2.245.807q-.755.273-1.511.539a2.572,2.572,0,0,1-3.181-1.317,5.688,5.688,0,0,1-.231-.6c-.068-.2-.144-.395-.215-.593q-.452-1.247-.9-2.494a1.256,1.256,0,0,0-.385-.549q-2.7-2.279-5.393-4.561l-5.45-4.613-1.6-1.354a3.543,3.543,0,0,1-.947-4.16,3.274,3.274,0,0,1,.379-.639c.259-.342.519-.684.783-1.022a3.288,3.288,0,0,1,1.7-1.164,3.41,3.41,0,0,1,3.168.605c.628.48,1.248.971,1.874,1.456A.236.236,0,0,0-4910.835,817.218Zm22.431,14.289a.4.4,0,0,0,.223-.368c0-.176.015-.353.022-.529q.2-4.365.4-8.729.086-1.889.175-3.779a2.4,2.4,0,0,0-.142-.942c-.273-.752-.542-1.5-.812-2.256q-.474-1.319-.945-2.639-.769-2.145-1.541-4.29c-.052-.151-.1-.3-.162-.45a.448.448,0,0,0-.563-.278c-.033.008-.064.02-.1.031l-1.592.575-.654.235c-.083.031-.082.033-.054.118l.013.035q.546,1.514,1.092,3.028a3.767,3.767,0,0,1,.188.563,1.055,1.055,0,0,1-.742,1.217,1.08,1.08,0,0,1-1.278-.623c-.057-.137-.1-.278-.148-.415q-.378-1.04-.75-2.078c-.311-.859-.625-1.716-.926-2.579a.482.482,0,0,0-.647-.3c-.248.1-.5.186-.746.277l-.642.231c-.353.126-.7.254-1.059.378-.065.023-.067.057-.046.114.041.106.075.214.113.322l1.33,3.695c.079.217.167.433.226.657a1,1,0,0,1-.322,1.062.985.985,0,0,1-1.095.176,1.1,1.1,0,0,1-.618-.663c-.112-.308-.22-.619-.331-.927q-.418-1.164-.838-2.328-.472-1.312-.944-2.627a1.741,1.741,0,0,0-.08-.2.447.447,0,0,0-.522-.227c-.06.018-.121.041-.18.062l-.987.354-1.341.484c-.1.035-.1.039-.062.137.07.2.139.4.211.594q.511,1.414,1.021,2.826c.277.768.558,1.534.825,2.306a.989.989,0,0,1-.219,1.034.982.982,0,0,1-.993.323,1.094,1.094,0,0,1-.815-.752q-.715-1.984-1.425-3.97-.393-1.093-.787-2.184l-1.592-4.419c-.273-.76-.55-1.518-.825-2.278-.19-.526-.376-1.056-.569-1.581a5.592,5.592,0,0,0-.268-.695,1.356,1.356,0,0,0-1.605-.647q-.6.21-1.188.427a1.285,1.285,0,0,0-.391.228,1.39,1.39,0,0,0-.4,1.536c.331.905.651,1.814.977,2.72.265.735.534,1.471.8,2.207s.523,1.457.785,2.186q.417,1.158.837,2.315c.254.7.5,1.4.756,2.1q.618,1.714,1.238,3.427l.854,2.376q.363,1.005.722,2.008a.934.934,0,0,1-.012.714,1.063,1.063,0,0,1-.522.526.957.957,0,0,1-1.059-.071c-.058-.041-.115-.084-.172-.129l-.4-.32q-.736-.576-1.468-1.151-.835-.653-1.667-1.309c-.435-.339-.866-.681-1.3-1.019a1.336,1.336,0,0,0-1.885.213q-.382.486-.752.982a1.361,1.361,0,0,0,.227,1.881q2.245,1.884,4.492,3.768,2.281,1.913,4.564,3.823,1.119.938,2.236,1.879c.481.4.959.806,1.444,1.2a1.491,1.491,0,0,1,.493.7c.1.311.221.619.333.927q.494,1.372.991,2.743c.048.134.1.27.148.4a.428.428,0,0,0,.552.259c.307-.1.612-.217.917-.326a.083.083,0,0,0,.07-.026l1.461-.52q1.307-.468,2.613-.936.9-.322,1.791-.647a.024.024,0,0,0,.034-.009l.49-.182c.015.008.027.005.034-.011l.038-.01q1.582-.572,3.167-1.142l1.47-.529a2.854,2.854,0,0,0,.456-.166l.114-.042A.564.564,0,0,0-4888.4,831.507Z" transform="translate(4919.172 -796.382)" fill="#122047"></path></g><g id="Group_22" data-name="Group 22" transform="translate(2.116 2.143)"><path id="Path_37" data-name="Path 37" d="M-4900.939,835.256c-.305.109-.61.221-.917.326a.428.428,0,0,1-.552-.259c-.053-.133-.1-.269-.148-.4q-.5-1.372-.991-2.744c-.111-.308-.228-.616-.333-.927a1.5,1.5,0,0,0-.493-.7c-.485-.4-.964-.8-1.445-1.2q-1.118-.938-2.235-1.879-2.282-1.913-4.565-3.823-2.246-1.883-4.492-3.768a1.36,1.36,0,0,1-.226-1.881q.368-.5.751-.982a1.336,1.336,0,0,1,1.885-.213c.436.338.867.68,1.3,1.019q.832.655,1.667,1.309.732.576,1.468,1.151l.4.32c.057.045.114.088.172.129a.958.958,0,0,0,1.06.071,1.065,1.065,0,0,0,.523-.526.938.938,0,0,0,.012-.714l-.722-2.008q-.428-1.186-.854-2.376-.62-1.714-1.239-3.427c-.252-.7-.5-1.4-.756-2.1q-.417-1.158-.837-2.315-.393-1.093-.785-2.186c-.267-.737-.535-1.472-.8-2.208-.327-.906-.648-1.815-.979-2.72a1.39,1.39,0,0,1,.4-1.536,1.3,1.3,0,0,1,.391-.228c.4-.145.791-.288,1.188-.427a1.357,1.357,0,0,1,1.606.647,5.751,5.751,0,0,1,.268.695c.193.525.378,1.054.568,1.581q.412,1.14.824,2.278.8,2.21,1.592,4.419.393,1.093.789,2.184.711,1.984,1.425,3.97a1.093,1.093,0,0,0,.815.752.982.982,0,0,0,.994-.323.99.99,0,0,0,.218-1.034c-.266-.772-.547-1.538-.824-2.306q-.51-1.414-1.021-2.826c-.072-.2-.141-.4-.211-.594-.034-.1-.034-.1.062-.137q.672-.244,1.341-.484l.987-.354c.06-.022.12-.045.18-.062a.448.448,0,0,1,.523.227,1.835,1.835,0,0,1,.08.2q.472,1.313.944,2.627.417,1.164.837,2.328c.111.308.218.619.331.927a1.1,1.1,0,0,0,.619.663.985.985,0,0,0,1.095-.176,1,1,0,0,0,.322-1.062c-.06-.224-.148-.44-.227-.657q-.664-1.848-1.33-3.695c-.039-.107-.072-.216-.113-.321-.022-.057-.019-.091.046-.114.354-.125.706-.252,1.059-.379l.642-.231c.248-.091.5-.179.746-.277a.482.482,0,0,1,.647.3c.3.863.616,1.72.926,2.579q.371,1.04.75,2.078c.051.137.091.278.147.415a1.081,1.081,0,0,0,1.279.623,1.056,1.056,0,0,0,.742-1.217,3.816,3.816,0,0,0-.187-.563q-.544-1.514-1.092-3.028l-.014-.035c-.027-.085-.028-.087.055-.118l.654-.235,1.591-.575c.031-.011.063-.023.1-.031a.447.447,0,0,1,.563.278c.058.149.11.3.163.45q.772,2.145,1.541,4.29.472,1.319.945,2.639.406,1.127.813,2.256a2.387,2.387,0,0,1,.141.942q-.09,1.889-.175,3.779-.2,4.365-.4,8.729c-.007.176-.021.353-.022.529a.4.4,0,0,1-.223.368.669.669,0,0,0-.241.092l-.114.042a1.522,1.522,0,0,0-.456.166l-1.47.529q-1.584.57-3.167,1.142l-.038.01-.034.011-.489.182a.024.024,0,0,0-.035.009c-.6.216-1.194.433-1.791.647q-1.307.47-2.613.936l-1.461.52A.059.059,0,0,0-4900.939,835.256Z" transform="translate(4917.613 -797.961)" fill="#f9faf9"></path></g><g id="Group_23" data-name="Group 23" transform="translate(29.958 35.26)"><path id="Path_38" data-name="Path 38" d="M-4897.091,822.536a1.525,1.525,0,0,1,.456-.166A2.848,2.848,0,0,1-4897.091,822.536Z" transform="translate(4897.091 -822.37)" fill="#ccb89b"></path></g><g id="Group_24" data-name="Group 24" transform="translate(30.528 35.125)"><path id="Path_39" data-name="Path 39" d="M-4896.673,822.363a.671.671,0,0,1,.241-.092A.564.564,0,0,1-4896.673,822.363Z" transform="translate(4896.673 -822.271)" fill="#ccb89b"></path></g><g id="Group_25" data-name="Group 25" transform="translate(18.79 39.408)"><path id="Path_40" data-name="Path 40" d="M-4905.322,825.456a.059.059,0,0,1,.071-.026A.085.085,0,0,1-4905.322,825.456Z" transform="translate(4905.322 -825.428)" fill="#ccb89b"></path></g><g id="Group_26" data-name="Group 26" transform="translate(24.726 37.295)"><path id="Path_41" data-name="Path 41" d="M-4900.95,823.884a.024.024,0,0,1,.035-.01A.025.025,0,0,1-4900.95,823.884Z" transform="translate(4900.95 -823.871)" fill="#ccb89b"></path></g><g id="Group_27" data-name="Group 27" transform="translate(25.25 37.106)"><path id="Path_42" data-name="Path 42" d="M-4900.563,823.742l.034-.011C-4900.536,823.747-4900.548,823.75-4900.563,823.742Z" transform="translate(4900.563 -823.731)" fill="#ccb89b"></path></g></g></g><g id="Group_1345" data-name="Group 1345" transform="translate(2 -8)"><path id="Path_4369" data-name="Path 4369" d="M7064.635,15714.168l152.45,14.213" transform="translate(-6392.86 -13289.028)" fill="none" stroke="#707070" stroke-linecap="round" stroke-width="4" opacity="0.443"></path><path id="Path_4370" data-name="Path 4370" d="M7064.635,15714.168l152.45,14.213" transform="translate(-6393.86 -13278.028)" fill="none" stroke="#707070" stroke-linecap="round" stroke-width="4" opacity="0.443"></path><path id="Path_4371" data-name="Path 4371" d="M7064.635,15714.168l152.45,14.213" transform="translate(-6394.86 -13267.028)" fill="none" stroke="#707070" stroke-linecap="round" stroke-width="4" opacity="0.443"></path></g><g id="CLICK" transform="translate(-5841.064 -1566.228)" style="isolation: isolate"><g id="Group_1850" data-name="Group 1850" style="isolation: isolate"><path id="Path_5225" data-name="Path 5225" d="M6551.162,4047a6.105,6.105,0,0,1-2.295-2.825,8.933,8.933,0,0,1-.522-4.213v-.01a8.839,8.839,0,0,1,1.25-4.054,6.112,6.112,0,0,1,2.754-2.373,8.026,8.026,0,0,1,3.963-.554,7.645,7.645,0,0,1,3.52,1.12,6.08,6.08,0,0,1,2.2,2.4,5.81,5.81,0,0,1,.586,3.195l-.008.092-4.146-.362v-.124a3.11,3.11,0,0,0-.279-1.346,2.413,2.413,0,0,0-.829-.989,2.754,2.754,0,0,0-1.355-.452,2.523,2.523,0,0,0-1.579.345,3.046,3.046,0,0,0-1.122,1.3,6.128,6.128,0,0,0-.545,2.175v.01a6.284,6.284,0,0,0,.157,2.262,3.032,3.032,0,0,0,.885,1.493,2.532,2.532,0,0,0,1.5.614,2.733,2.733,0,0,0,1.354-.2,2.5,2.5,0,0,0,1.018-.812,3.1,3.1,0,0,0,.547-1.316l.02-.111,4.147.362-.01.112a5.68,5.68,0,0,1-1.146,3.028,6.185,6.185,0,0,1-2.6,1.975,7.638,7.638,0,0,1-3.646.495A8.022,8.022,0,0,1,6551.162,4047Z" fill="#7f8fb6"></path><path id="Path_5226" data-name="Path 5226" d="M6566.88,4034.166l4.33.378-.988,11.306,5.781.5-.3,3.432-10.111-.884Z" fill="#7f8fb6"></path><path id="Path_5227" data-name="Path 5227" d="M6580.716,4035.375l4.33.378-1.288,14.737-4.33-.378Z" fill="#7f8fb6"></path><path id="Path_5228" data-name="Path 5228" d="M6591,4050.484a6.117,6.117,0,0,1-2.295-2.825,8.944,8.944,0,0,1-.521-4.213v-.01a8.847,8.847,0,0,1,1.249-4.053,6.116,6.116,0,0,1,2.754-2.373,8.018,8.018,0,0,1,3.963-.555,7.653,7.653,0,0,1,3.52,1.121,6.074,6.074,0,0,1,2.2,2.4,5.807,5.807,0,0,1,.586,3.194l-.008.093-4.146-.363v-.123a3.125,3.125,0,0,0-.28-1.347,2.424,2.424,0,0,0-.828-.989,2.767,2.767,0,0,0-1.356-.452,2.526,2.526,0,0,0-1.579.346,3.047,3.047,0,0,0-1.121,1.3,6.124,6.124,0,0,0-.545,2.176v.01a6.287,6.287,0,0,0,.157,2.262,3.028,3.028,0,0,0,.884,1.492,2.538,2.538,0,0,0,1.5.615,2.748,2.748,0,0,0,1.355-.2,2.492,2.492,0,0,0,1.017-.812,3.089,3.089,0,0,0,.548-1.315l.02-.112,4.147.362-.01.113a5.688,5.688,0,0,1-1.146,3.028,6.2,6.2,0,0,1-2.6,1.975,7.639,7.639,0,0,1-3.646.5A8.029,8.029,0,0,1,6591,4050.484Z" fill="#7f8fb6"></path><path id="Path_5229" data-name="Path 5229" d="M6606.714,4037.646l4.33.378-1.288,14.737-4.33-.378Zm3.682,6.619.184.016,5.1-5.852,4.544.4-5.537,6.246-1.113-.1-3.6,4.049Zm.221,1.584,3.406-2.46,5.138,10.194-5.034-.44Z" fill="#7f8fb6"></path></g></g></g></svg>