<svg xmlns="http://www.w3.org/2000/svg" xmlns:xlink="http://www.w3.org/1999/xlink" width="598" height="578" viewBox="0 0 598 578"><defs><clipPath id="clip-path"><rect id="Rectangle_264" data-name="Rectangle 264" width="598" height="578" transform="translate(1883 2280)" fill="#fff"></rect></clipPath><clipPath id="clip-path-2"><rect id="Rectangle_269" data-name="Rectangle 269" width="233" height="106" transform="translate(13257 13375)" fill="#fff"></rect></clipPath></defs><g id="Group_1350" data-name="Group 1350" transform="translate(-1883 -2280)"><g id="Mask_Group_43" data-name="Mask Group 43" clip-path="url(#clip-path)"><g id="Group_1336" data-name="Group 1336" transform="translate(1951.861 2635.582) rotate(-83)"><path id="Path_1166" data-name="Path 1166" d="M5800.078-7300.275a11.059,11.059,0,0,1-.619-1.565c-.783-3.394-7.983-6.393-4.02-9.061,3.86-2.6,3.789,4.413,7.213,5.843,2.747,1.145,5.682,4.952,8.114,2.2,2.467-2.787-.919-6.932-3.806-8.207-6.913-3.057-5.557-8.358-7.117-13.242,4.572-.114,5,5.367,9.332,4.1,4.379-1.278,6.106-3.9,4.271-7.871-.825-1.785-2.382-3.869.216-5.255,2.494-1.33,2.892,1.324,4.157,2.306.71.553,1.636,1.614,2.187,1.492,9.149-2.029,9.008-.4,5.183,6.564-2.038,3.708,3.82,8.417,9.385,9.934,2.433.664,6.123-1.353,6.575,2.75.222,2.01-1.391,3.078-3.2,3.8-3.313,1.319-6.536.848-8.829-1.519-2.682-2.769-4.861-5.907-7.286-8.869-1.735-2.118-3.722-2.93-6.527-1.213-2.756,1.687-3.042,3.225-2.062,6.294,2.775,8.688,11.949,9.063,19.009,11.775,25.14,9.657,41.264,25.811,51.41,48.041,18.942,41.5,9.274,80.938-9.3,119.825-12.768,26.723-30.366,51.218-48.147,75.642-17.888,24.571-36.381,48.932-50.784,75.262-22.774,41.629-37.321,85.019-31.609,131.767,2.519,20.615,7.311,41,13.35,61.1-15.816,4.045-32.076,2.321-46.229-2.875-6.091-2.237-15.276-7.667-18.083-15.323-3.551-9.681-5.019-19.722-3.047-29.88a7.353,7.353,0,0,1,3.187-4.019c8.469-5.584,8.1-12.082-1.113-16.545-3.368-1.629-5.535-4.366-5.862-7.4-1.025-9.5-2.131-19.143,2-28.33,1.693-3.76,3.372-8.409,10.283-6.2a5.6,5.6,0,0,0,3.346-.64c-.213-6.958,5.386-12.468,6.2-19.067.332-2.689-1.446-1.767-3.6-1.035-4.692,1.6-7.738-.625-7.731-4.694.025-13.75,3.651-26.666,16.22-35.882,3.713-2.723,10.6-2,11.509-8.138.237-1.6,2.35-3.613.91-4.728-11.167-8.666-3.473-17.451.715-25.18,3.789-6.989,7.367-16.363,20.855-13.672,3.454.689,9.877-9.778,7.969-13.67-3.44-7.018-.465-12.528,3.706-18.116,2.63-3.521,4.889-7.276,7.789-10.612,2.886-3.321,5.975-6.42,11.9-5.66,7.994,1.026,14.129-5.553,10.881-11.828-1.467-2.833-2.551-5.149-.51-7.764,4.515-5.78,8.769-11.778,13.955-17.074,3.291-3.36,7.75-5.173,13.833-4.183,5.516.9,8.135-2.412,5.6-7.218-5.576-10.572,5.786-28.434,18.855-29.263,5.681-.361,5.647-3.7,5.011-7.1-2.044-11,1.412-20.38,11.025-27.678,2.873-2.18,2.182-3.777,1.672-6.466-1.743-9.165-2.169-18.382,5.375-26.138,1.8-1.854,2.225-3.265.089-4.987-5.941-4.795-3.614-11.608-5.488-17.4-.318-.982-.171-2.767.553-3.216,11.857-7.373,1.193-10.616-3.12-15.746-4.5-5.352-7.472-11.4-4.212-18.855,2.386-5.456.27-10.381-7.448-12.363a178.535,178.535,0,0,1-18.01-5.96c-5.23-1.955-8.5-4.866-9.625-10.485C5814.941-7301.667,5806.214-7299.212,5800.078-7300.275Z" transform="translate(-5685.07 7350.058)" fill="#f28b9d"></path><path id="Path_1167" data-name="Path 1167" d="M5845.7-7332.368c-2.081,4.031-8.078,4.668-10.047,8.813-.884,1.858-4.176,3.642-.805,5.667,2.72,1.638,4.8-.32,6.647-1.885,1.8-1.517,1.273-4.405,5.145-5.784,2.122,4.748-.385,7.884-4.121,10.479-3.482,2.419-7.2,3.46-11.439.732-8.225-5.3-10.771-11.774-7.643-20.475-38.508-6.139-83.384,13.556-88.222,53.566-3.423,28.31,3.945,54.308,23.791,77.58,12.771,14.976,27.818,28.11,41.8,42.106-4.225.342-7.135-2.214-10.594-3.593-7.2-2.871-12.547-7.905-22.221-7.868-8.467.033-13.634-8.576-16.977-15.481-2.168-4.484-3.047-7.605-9.974-9.18-8.361-1.9-12.007-9.741-13.424-17.035-.818-4.219-1.453-7.424-6.732-8.992-4.067-1.207-5.708-4.9-6.114-8.12-1.5-11.96-1.17-23.972-6.424-35.641-2.368-5.255-.165-11.675,2.691-17.794,3.244-6.941,7.9-13.3,8.384-21.928.584-10.53,12.882-16.792,22.959-21.013,8.883-3.721,15.291-9.722,23.328-14.066,10.18-5.5,15.114-5.981,24.668.4,3.147,2.1,6.069.918,9.536-.9,10.419-5.463,25.834-.193,28.484,9.22,1.067,2.491-3.777,7.026,1.869,7.375,3.779.232,7.459-3.029,5.534-7.692C5839.241-7334.095,5842.837-7335.058,5845.7-7332.368Z" transform="translate(-5674.738 7346.536)" fill="#f28b9d"></path><path id="Path_1168" data-name="Path 1168" d="M5761.668-7306.728q1.348-.339,2.7-.681A1.881,1.881,0,0,1,5761.668-7306.728Z" transform="translate(-5649.526 7357.279)" fill="#b394dd"></path><path id="Path_1169" data-name="Path 1169" d="M5903.62-7279l-.018-.031a.1.1,0,0,0-.018-.022,132.521,132.521,0,0,0-9.229-14.235c-.268-.363-.536-.728-.82-1.093-.46-.611-.938-1.223-1.414-1.821-.4-.518-.812-1.027-1.238-1.529-.276-.35-.57-.7-.872-1.049-28.435-33.286-73.949-38.569-79.791-39.123a1.607,1.607,0,0,0-.26-.021c-.083-.008-.15-.016-.209-.016-.108-.006-.159-.014-.159-.014v.008c-20-1.421-43.307,1.559-61.29,17.368-11.214,9.077-19.114,21.542-20.989,37.053-3.422,28.31,3.95,54.31,23.792,77.578,12.034,14.105,26.075,26.57,39.339,39.669l2.26,2.622-.36-.743-8.763-17.935c-2.293-3.344-4.586-6.7-7.2-9.857-10.746-12.989-18.42-27.139-21.951-42.56a.1.1,0,0,0-.009-.03.751.751,0,0,1-.025-.094,95.915,95.915,0,0,1-3.18-23.2v-.007c-.009-.488-.009-.984,0-1.486a58.912,58.912,0,0,1,2.293-16.413V-7276c.351-1.137.736-2.259,1.179-3.359,3.934-9.886,11.832-18.184,26.729-20.652a56.531,56.531,0,0,1,8.317-.743h.01a2.51,2.51,0,0,0,1.632-.017h.007c7.842.029,17.156,1.355,28.193,4.313,21.993,9.829,36.487,25.185,45.86,45.736,18.938,41.5,9.272,80.938-9.306,119.821-12.771,26.729-30.37,51.223-48.144,75.643-17.893,24.572-36.386,48.934-50.787,75.264-22.771,41.628-37.323,85.019-31.607,131.768,2.518,20.618,7.306,40.994,13.348,61.1,22.267.634,35.782-11.78,48.067-25.272,2.034-2.237,5.472-5.42,3.2-10.506-12.418-27.742-12.963-56.43-7.28-85.47,6.477-33.141,22.9-62.805,42.393-91.291,17.264-25.229,35.591-49.89,51.909-75.613,13.181-20.777,25.2-41.912,33.348-64.387l0-.006,0,0v-.006l0-.007v0C5935.931-7229.876,5904.743-7277.33,5903.62-7279Z" transform="translate(-5666.844 7348.805)" fill="#e62276"></path></g></g><rect id="Rectangle_265" data-name="Rectangle 265" width="264" height="340" rx="18" transform="translate(2040.578 2302) rotate(3)" fill="#596ca2"></rect><rect id="Rectangle_270" data-name="Rectangle 270" width="228" height="294" rx="11" transform="translate(2057.67 2329.938) rotate(3)" fill="#f5f6fa"></rect><rect id="Rectangle_271" data-name="Rectangle 271" width="160" height="25" rx="9" transform="translate(2090.157 2318.814) rotate(3)" fill="#fed100"></rect><g id="Icon_feather-check-circle" data-name="Icon feather-check-circle" transform="translate(2073.175 2372.189) rotate(7)"><path id="Path_4355" data-name="Path 4355" d="M33,16.62V18A15,15,0,1,1,24.105,4.29" fill="none" stroke="#142144" stroke-linecap="round" stroke-linejoin="round" stroke-width="5"></path><path id="Path_4356" data-name="Path 4356" d="M33,6,18,21.015l-4.5-4.5" fill="none" stroke="#142144" stroke-linecap="round" stroke-linejoin="round" stroke-width="5"></path></g><g id="Icon_feather-check-circle-2" data-name="Icon feather-check-circle" transform="translate(2066.175 2478.189) rotate(7)"><path id="Path_4355-2" data-name="Path 4355" d="M33,16.62V18A15,15,0,1,1,24.105,4.29" fill="none" stroke="#142144" stroke-linecap="round" stroke-linejoin="round" stroke-width="5"></path><path id="Path_4356-2" data-name="Path 4356" d="M33,6,18,21.015l-4.5-4.5" fill="none" stroke="#142144" stroke-linecap="round" stroke-linejoin="round" stroke-width="5"></path></g><g id="Icon_feather-check-circle-3" data-name="Icon feather-check-circle" transform="translate(2069.675 2425.189) rotate(7)"><path id="Path_4355-3" data-name="Path 4355" d="M33,16.62V18A15,15,0,1,1,24.105,4.29" fill="none" stroke="#142144" stroke-linecap="round" stroke-linejoin="round" stroke-width="5"></path><path id="Path_4356-3" data-name="Path 4356" d="M33,6,18,21.015l-4.5-4.5" fill="none" stroke="#142144" stroke-linecap="round" stroke-linejoin="round" stroke-width="5"></path></g><g id="Icon_feather-check-circle-4" data-name="Icon feather-check-circle" transform="translate(2064.675 2531.189) rotate(7)"><path id="Path_4355-4" data-name="Path 4355" d="M33,16.62V18A15,15,0,1,1,24.105,4.29" fill="none" stroke="#142144" stroke-linecap="round" stroke-linejoin="round" stroke-width="5"></path><path id="Path_4356-4" data-name="Path 4356" d="M33,6,18,21.015l-4.5-4.5" fill="none" stroke="#142144" stroke-linecap="round" stroke-linejoin="round" stroke-width="5"></path></g><g id="Group_1339" data-name="Group 1339" transform="matrix(1, 0.017, -0.017, 1, 42.511, -32.789)"><path id="Path_4357" data-name="Path 4357" d="M8513.947,15745.157l140.774,8.314" transform="matrix(1, -0.017, 0.017, 1, -6663.556, -13216.19)" fill="none" stroke="#707070" stroke-linecap="round" stroke-width="6" opacity="0.346"></path><path id="Path_4358" data-name="Path 4358" d="M8513.947,15745.157l140.774,8.314" transform="matrix(1, -0.017, 0.017, 1, -6664.556, -13202.483)" fill="none" stroke="#707070" stroke-linecap="round" stroke-width="6" opacity="0.346"></path><path id="Path_4359" data-name="Path 4359" d="M8513.947,15745.157l91.679,5.985" transform="matrix(1, -0.017, 0.017, 1, -6665.556, -13189.776)" fill="none" stroke="#707070" stroke-linecap="round" stroke-width="6" opacity="0.346"></path></g><g id="Group_1340" data-name="Group 1340" transform="matrix(1, 0.017, -0.017, 1, 44.511, -35.789)"><path id="Path_4362" data-name="Path 4362" d="M8513.947,15745.157l140.774,8.314" transform="matrix(1, -0.017, 0.017, 1, -6668.556, -13157.966)" fill="none" stroke="#707070" stroke-linecap="round" stroke-width="6" opacity="0.346"></path><path id="Path_4361" data-name="Path 4361" d="M8513.947,15745.157l140.774,8.314" transform="matrix(1, -0.017, 0.017, 1, -6669.556, -13144.259)" fill="none" stroke="#707070" stroke-linecap="round" stroke-width="6" opacity="0.346"></path><path id="Path_4360" data-name="Path 4360" d="M8513.947,15745.157l91.679,5.985" transform="matrix(1, -0.017, 0.017, 1, -6670.556, -13131.552)" fill="none" stroke="#707070" stroke-linecap="round" stroke-width="6" opacity="0.346"></path></g><g id="Group_1341" data-name="Group 1341" transform="matrix(1, 0.017, -0.017, 1, 45.511, -32.789)"><path id="Path_4365" data-name="Path 4365" d="M8513.947,15745.157l140.774,8.314" transform="matrix(1, -0.017, 0.017, 1, -6673.556, -13105.966)" fill="none" stroke="#707070" stroke-linecap="round" stroke-width="6" opacity="0.346"></path><path id="Path_4364" data-name="Path 4364" d="M8513.947,15745.157l140.774,8.314" transform="matrix(1, -0.017, 0.017, 1, -6674.556, -13092.259)" fill="none" stroke="#707070" stroke-linecap="round" stroke-width="6" opacity="0.346"></path><path id="Path_4363" data-name="Path 4363" d="M8513.947,15745.157l91.679,5.985" transform="matrix(1, -0.017, 0.017, 1, -6675.556, -13079.552)" fill="none" stroke="#707070" stroke-linecap="round" stroke-width="6" opacity="0.346"></path></g><g id="Group_1342" data-name="Group 1342" transform="matrix(1, 0.017, -0.017, 1, 46.417, -32.824)"><path id="Path_4368" data-name="Path 4368" d="M8513.947,15745.157l140.774,8.314" transform="matrix(1, -0.017, 0.017, 1, -6676.556, -13053.966)" fill="none" stroke="#707070" stroke-linecap="round" stroke-width="6" opacity="0.346"></path><path id="Path_4367" data-name="Path 4367" d="M8513.947,15745.157l140.774,8.314" transform="matrix(1, -0.017, 0.017, 1, -6677.556, -13040.259)" fill="none" stroke="#707070" stroke-linecap="round" stroke-width="6" opacity="0.346"></path><path id="Path_4366" data-name="Path 4366" d="M8513.947,15745.157l91.679,5.985" transform="matrix(1, -0.017, 0.017, 1, -6678.556, -13027.552)" fill="none" stroke="#707070" stroke-linecap="round" stroke-width="6" opacity="0.346"></path></g><g id="Mask_Group_47" data-name="Mask Group 47" transform="translate(-11317 -10856)" clip-path="url(#clip-path-2)"><g id="Mask_Group_46" data-name="Mask Group 46" transform="translate(11317 10856)" clip-path="url(#clip-path)"><g id="Group_1338" data-name="Group 1338" transform="translate(1951.861 2635.582) rotate(-83)"><path id="Path_4351" data-name="Path 4351" d="M5800.078-7300.275a11.059,11.059,0,0,1-.619-1.565c-.783-3.394-7.983-6.393-4.02-9.061,3.86-2.6,3.789,4.413,7.213,5.843,2.747,1.145,5.682,4.952,8.114,2.2,2.467-2.787-.919-6.932-3.806-8.207-6.913-3.057-5.557-8.358-7.117-13.242,4.572-.114,5,5.367,9.332,4.1,4.379-1.278,6.106-3.9,4.271-7.871-.825-1.785-2.382-3.869.216-5.255,2.494-1.33,2.892,1.324,4.157,2.306.71.553,1.636,1.614,2.187,1.492,9.149-2.029,9.008-.4,5.183,6.564-2.038,3.708,3.82,8.417,9.385,9.934,2.433.664,6.123-1.353,6.575,2.75.222,2.01-1.391,3.078-3.2,3.8-3.313,1.319-6.536.848-8.829-1.519-2.682-2.769-4.861-5.907-7.286-8.869-1.735-2.118-3.722-2.93-6.527-1.213-2.756,1.687-3.042,3.225-2.062,6.294,2.775,8.688,11.949,9.063,19.009,11.775,25.14,9.657,41.264,25.811,51.41,48.041,18.942,41.5,9.274,80.938-9.3,119.825-12.768,26.723-30.366,51.218-48.147,75.642-17.888,24.571-36.381,48.932-50.784,75.262-22.774,41.629-37.321,85.019-31.609,131.767,2.519,20.615,7.311,41,13.35,61.1-15.816,4.045-32.076,2.321-46.229-2.875-6.091-2.237-15.276-7.667-18.083-15.323-3.551-9.681-5.019-19.722-3.047-29.88a7.353,7.353,0,0,1,3.187-4.019c8.469-5.584,8.1-12.082-1.113-16.545-3.368-1.629-5.535-4.366-5.862-7.4-1.025-9.5-2.131-19.143,2-28.33,1.693-3.76,3.372-8.409,10.283-6.2a5.6,5.6,0,0,0,3.346-.64c-.213-6.958,5.386-12.468,6.2-19.067.332-2.689-1.446-1.767-3.6-1.035-4.692,1.6-7.738-.625-7.731-4.694.025-13.75,3.651-26.666,16.22-35.882,3.713-2.723,10.6-2,11.509-8.138.237-1.6,2.35-3.613.91-4.728-11.167-8.666-3.473-17.451.715-25.18,3.789-6.989,7.367-16.363,20.855-13.672,3.454.689,9.877-9.778,7.969-13.67-3.44-7.018-.465-12.528,3.706-18.116,2.63-3.521,4.889-7.276,7.789-10.612,2.886-3.321,5.975-6.42,11.9-5.66,7.994,1.026,14.129-5.553,10.881-11.828-1.467-2.833-2.551-5.149-.51-7.764,4.515-5.78,8.769-11.778,13.955-17.074,3.291-3.36,7.75-5.173,13.833-4.183,5.516.9,8.135-2.412,5.6-7.218-5.576-10.572,5.786-28.434,18.855-29.263,5.681-.361,5.647-3.7,5.011-7.1-2.044-11,1.412-20.38,11.025-27.678,2.873-2.18,2.182-3.777,1.672-6.466-1.743-9.165-2.169-18.382,5.375-26.138,1.8-1.854,2.225-3.265.089-4.987-5.941-4.795-3.614-11.608-5.488-17.4-.318-.982-.171-2.767.553-3.216,11.857-7.373,1.193-10.616-3.12-15.746-4.5-5.352-7.472-11.4-4.212-18.855,2.386-5.456.27-10.381-7.448-12.363a178.535,178.535,0,0,1-18.01-5.96c-5.23-1.955-8.5-4.866-9.625-10.485C5814.941-7301.667,5806.214-7299.212,5800.078-7300.275Z" transform="translate(-5685.07 7350.058)" fill="#f28b9d"></path><path id="Path_4352" data-name="Path 4352" d="M5845.7-7332.368c-2.081,4.031-8.078,4.668-10.047,8.813-.884,1.858-4.176,3.642-.805,5.667,2.72,1.638,4.8-.32,6.647-1.885,1.8-1.517,1.273-4.405,5.145-5.784,2.122,4.748-.385,7.884-4.121,10.479-3.482,2.419-7.2,3.46-11.439.732-8.225-5.3-10.771-11.774-7.643-20.475-38.508-6.139-83.384,13.556-88.222,53.566-3.423,28.31,3.945,54.308,23.791,77.58,12.771,14.976,27.818,28.11,41.8,42.106-4.225.342-7.135-2.214-10.594-3.593-7.2-2.871-12.547-7.905-22.221-7.868-8.467.033-13.634-8.576-16.977-15.481-2.168-4.484-3.047-7.605-9.974-9.18-8.361-1.9-12.007-9.741-13.424-17.035-.818-4.219-1.453-7.424-6.732-8.992-4.067-1.207-5.708-4.9-6.114-8.12-1.5-11.96-1.17-23.972-6.424-35.641-2.368-5.255-.165-11.675,2.691-17.794,3.244-6.941,7.9-13.3,8.384-21.928.584-10.53,12.882-16.792,22.959-21.013,8.883-3.721,15.291-9.722,23.328-14.066,10.18-5.5,15.114-5.981,24.668.4,3.147,2.1,6.069.918,9.536-.9,10.419-5.463,25.834-.193,28.484,9.22,1.067,2.491-3.777,7.026,1.869,7.375,3.779.232,7.459-3.029,5.534-7.692C5839.241-7334.095,5842.837-7335.058,5845.7-7332.368Z" transform="translate(-5674.738 7346.536)" fill="#f28b9d"></path><path id="Path_4353" data-name="Path 4353" d="M5761.668-7306.728q1.348-.339,2.7-.681A1.881,1.881,0,0,1,5761.668-7306.728Z" transform="translate(-5649.526 7357.279)" fill="#b394dd"></path><path id="Path_4354" data-name="Path 4354" d="M5903.62-7279l-.018-.031a.1.1,0,0,0-.018-.022,132.521,132.521,0,0,0-9.229-14.235c-.268-.363-.536-.728-.82-1.093-.46-.611-.938-1.223-1.414-1.821-.4-.518-.812-1.027-1.238-1.529-.276-.35-.57-.7-.872-1.049-28.435-33.286-73.949-38.569-79.791-39.123a1.607,1.607,0,0,0-.26-.021c-.083-.008-.15-.016-.209-.016-.108-.006-.159-.014-.159-.014v.008c-20-1.421-43.307,1.559-61.29,17.368-11.214,9.077-19.114,21.542-20.989,37.053-3.422,28.31,3.95,54.31,23.792,77.578,12.034,14.105,26.075,26.57,39.339,39.669l2.26,2.622-.36-.743-8.763-17.935c-2.293-3.344-4.586-6.7-7.2-9.857-10.746-12.989-18.42-27.139-21.951-42.56a.1.1,0,0,0-.009-.03.751.751,0,0,1-.025-.094,95.915,95.915,0,0,1-3.18-23.2v-.007c-.009-.488-.009-.984,0-1.486a58.912,58.912,0,0,1,2.293-16.413V-7276c.351-1.137.736-2.259,1.179-3.359,3.934-9.886,11.832-18.184,26.729-20.652a56.531,56.531,0,0,1,8.317-.743h.01a2.51,2.51,0,0,0,1.632-.017h.007c7.842.029,17.156,1.355,28.193,4.313,21.993,9.829,36.487,25.185,45.86,45.736,18.938,41.5,9.272,80.938-9.306,119.821-12.771,26.729-30.37,51.223-48.144,75.643-17.893,24.572-36.386,48.934-50.787,75.264-22.771,41.628-37.323,85.019-31.607,131.768,2.518,20.618,7.306,40.994,13.348,61.1,22.267.634,35.782-11.78,48.067-25.272,2.034-2.237,5.472-5.42,3.2-10.506-12.418-27.742-12.963-56.43-7.28-85.47,6.477-33.141,22.9-62.805,42.393-91.291,17.264-25.229,35.591-49.89,51.909-75.613,13.181-20.777,25.2-41.912,33.348-64.387l0-.006,0,0v-.006l0-.007v0C5935.931-7229.876,5904.743-7277.33,5903.62-7279Z" transform="translate(-5666.844 7348.805)" fill="#e62276"></path></g></g></g></g></svg>