<svg id="Capa_3" data-name="Capa 3" xmlns="http://www.w3.org/2000/svg" viewBox="0 0 1024 411"><defs><style>.cls-1{fill:#fff;}</style></defs><title>logo-tp-link</title><path class="cls-1" d="M228,246.22c0-10.06.18-20.12-.07-30.16-.14-5.57,2.11-8,7.63-7.87,8.15.12,16.31.14,24.46-.06,30-.71,51.43-24.12,51.31-55.89-.11-31.51-20.63-52.71-51.47-53.18-33.45-.52-58,23.22-58.54,56.64-.1,6.52-.16,13,0,19.56.11,4.64-1.53,7.18-6.5,7.17q-31.38-.08-62.76,0c-3.92,0-6.05-1.71-6.33-5.76-4.41-63.51,20.79-122.75,88.94-145.94,88-29.95,179,29.39,172.07,132.9C382.13,231.8,325,283.8,256.86,283.87c-6.79,0-13.6-.29-20.37.08-6.27.34-8.87-1.93-8.63-8.39C228.23,265.79,228,256,228,246.22Z"/><path class="cls-1" d="M204.26,290.64c0,24.72-.21,49.44.13,74.16.11,7.37-2.25,10.23-9.78,10-15.2-.4-30.42,0-45.63-.18-18-.26-25.24-7.69-25.28-25.42,0-17.93-.24-35.86.1-53.78.14-6.81-2.34-9-9-8.93-17.93.31-35.86.17-53.79.08s-25-7.4-25.14-25.43c-.08-15.48.13-31-.07-46.45-.08-6.15,2.07-8.69,8.55-8.67q75.78.27,151.58,0c6.56,0,8.44,2.69,8.4,8.78C204.15,240.11,204.25,265.38,204.26,290.64Z"/><path class="cls-1" d="M502,263.73c0-16,.13-32.06-.07-48.08a16.86,16.86,0,0,1,5.37-13.06c15.55-15.25,34.37-20.74,55.38-16.88,24.36,4.47,40.59,26.7,39.66,52.46-.91,25.07-18.2,44-43.2,47.44a118.63,118.63,0,0,1-17.86,1c-4.66-.06-6.61-2-6.84-6.92-.64-14-.68-14.17,14.1-14.4,21.52-.33,34.33-17.46,28.54-38.13-2.79-10-9.08-16.8-19.09-19.28-10.65-2.63-20.44-.18-28.81,7.22-3.49,3.09-3.42,7.13-3.41,11.25,0,28.79-.19,57.59.14,86.38.09,7.47-1.7,10.83-9.92,10.48-12.2-.53-13.88-1.17-13.95-10.57C501.93,296.32,502,280,502,263.73Z"/><path class="cls-1" d="M897.84,239.43c0,13.93-.32,25.49.12,37,.28,7.07-1.54,10.52-9.39,10.3-11.35-.34-14.34-1.89-14.38-10.62-.15-27.71-.07-55.43-.08-83.14,0-10.32.35-20.66-.12-31-.29-6.61,2-10.37,8.07-13.28,15.91-7.68,15.78-7.94,15.79,10q0,31.78,0,63.58a35.15,35.15,0,0,0,.7,4.29c10-11.79,19.3-22.67,28.6-33.51,4.75-5.53,22.85-9.62,29.12-6.25,4.46,2.39.32,4.7-1,6.24-9.71,11.35-19.32,22.82-29.68,33.57-5.25,5.44-4.68,8.74.21,14,11.89,12.67,23.15,25.93,34.59,39,1.3,1.49,3.84,2.88,2.35,5.42-1.08,1.86-3.36,1.47-5.22,1.51-4.34.08-8.71-.2-13,.1-5.47.39-9.08-2-12.44-6.11C921.38,267.35,910.35,254.4,897.84,239.43Z"/><path class="cls-1" d="M761.56,243.57q0-15.07,0-30.16c0-3.28.15-6.43,2.05-9.38,8.83-13.69,35-23.61,53.22-20.06,19.53,3.82,34.83,18.17,37.85,36.89,1.33,8.23.67,16.79.74,25.2.09,10.87-.18,21.74.09,32.6.13,5.51-1.86,8.2-7.48,7.94-1.62-.08-3.26,0-4.89,0-10.47-.06-11.12-.65-11.17-11-.07-14.94.25-29.9-.14-44.83-.49-18.87-16.37-29.52-34-23.19-9.74,3.5-12.54,7.53-12.55,18.16,0,17.11-.19,34.23.08,51.35.1,6.15-1.1,9.67-8.33,9.67-11.47,0-15-1.64-15.32-9.75-.37-11.13-.1-22.28-.1-33.42Z"/><path class="cls-1" d="M431.77,217.35c0-13.3.49-26.63-.19-39.89-.41-7.81,2.65-11.69,9.4-14.84,15.66-7.31,14.51-8.31,14.53,9.11,0,16.78-1.24,14.62,14.94,14.73,12.69.09,12.41.16,12.91,10.67.36,7.81-2.41,10.39-10.25,10.23-17.61-.35-17.61,0-17.61,17.62,0,8.68-.05,17.37,0,26.06.07,11.87,2.29,14,14.44,14.23,4.88.07,9.77.15,14.65.05,7.52-.15,7.11,5.08,6.91,10.08s1.72,11.18-6.61,11.14c-10.56-.06-21.17.94-31.66-1.16-13.4-2.68-21.26-11.91-21.42-25.69C431.65,245.58,431.78,231.46,431.77,217.35Z"/><path class="cls-1" d="M698.72,213.23c0,21.45-.19,42.91.1,64.37.1,6.69-2.26,9.16-8.94,9.13-11.64-.05-14.79-1.36-14.82-9-.17-39.65,0-79.31-.19-119,0-6,3.75-7.79,7.94-9.93,15.92-8.12,15.91-8.16,15.91,9.79Q698.74,185.93,698.72,213.23Z"/><path class="cls-1" d="M742.61,236.5c0,13.59-.05,27.17,0,40.75,0,5-.13,9.72-6.94,9.28-6.59-.42-14.93,2.78-17.32-7.39a32.12,32.12,0,0,1-.59-7.28c0-25,.24-50-.17-75-.14-8.25,2.64-11.64,10.82-10.43a14.6,14.6,0,0,0,4.07,0c7.85-1.07,10.53,2.33,10.24,10.12C742.25,209.87,742.61,223.19,742.61,236.5Z"/><path class="cls-1" d="M637,224.1h5.7c15.46,0,18,3.29,15.16,18.83-.71,3.83-2.87,4.88-6.2,4.89-6.79,0-13.58-.09-20.37,0-6.19.11-7.14-5-9.11-9-7.39-14.73-7.33-14.76,9.12-14.76Z"/><path class="cls-1" d="M730.12,165.91c-11.55,0-15.52-2.69-15.68-10.53-.16-8,7.45-15.67,15.63-15.76A15.83,15.83,0,0,1,745.94,155C746,163.48,742.46,165.94,730.12,165.91Z"/><path class="cls-1" d="M976.46,270.7h3.25c2.11,0,3.63.76,3.63,2.92s-1.52,3.07-3.63,3.07h-1.93v4.39h-1.32Zm3.06,4.92c1.61,0,2.5-.65,2.5-2s-.89-1.85-2.5-1.85h-1.74v3.85Zm-.07.71,1-.68,3.17,5.43h-1.5Z"/><path class="cls-1" d="M979.54,285.39a9.46,9.46,0,1,1,9.46-9.46A9.47,9.47,0,0,1,979.54,285.39Zm0-17.82a8.36,8.36,0,1,0,8.36,8.36A8.37,8.37,0,0,0,979.54,267.57Z"/></svg>